M48
;Layer_Color=9474304
;FILE_FORMAT=2:5
INCH,LZ
;TYPE=PLATED
T1F00S00C0.01181
T2F00S00C0.01968
T3F00S00C0.03543
;TYPE=NON_PLATED
T4F00S00C0.11811
%
T01
X-0012Y002
X-00105Y0027
X-00185Y00275
X00045Y0031327
X00035Y00195
X00165Y0021
X0014Y00145
X0027Y0022
X00355Y0027
X0043
X00565Y0031327
X0059Y00215
X0055Y00145
X00755Y0021
X0073Y0031327
X0087Y0027
X00945
X0108Y00315
X01065Y00165
X0021Y0031327
X01245Y00315
X01225Y00205
X01385Y00265
X0146
X016Y0031327
X0161Y00205
X0162Y0008
X01755Y00215
X01765Y0031327
X01775Y0040327
X01855
X0193Y00485
X0169Y0056827
X01615Y0052327
X0159Y0047827
X0152Y00415
X0146Y00575
X0138
X01385Y0077
X0148
X01535Y0092
X01545Y0101
X01625
X0146Y01175
X01385Y0113
X0136Y01085
X0137Y0092
X0123Y0101
X0111
X0109Y0068
X01155
X0117Y0057
X01095Y00525
X01255Y00405
X01295Y0043
X0161Y0067827
X01675
X018Y00805
Y0119
X01875Y01265
X01945Y01345
X01785Y0138
X01695Y01385
X0163587Y0143087
X01655Y01535
X0153764Y0150764
X0147Y0139
X01445Y01285
X0138Y0128
X012776Y014
X0122Y01405
X01155Y01395
X0129Y0157
X01415Y0161
X0202Y0162
X01905Y01085
X0103Y0101
X0102Y0092
X00855
X0087Y00765
X0096
X00945Y00575
X0087
X00805Y0047827
X00795Y00405
X00735Y0040327
X00975Y00405
X0107Y0048
X00655Y0056827
X0058Y0052327
X00555Y0047827
X00465Y00405
X00265
X00215Y0040327
X00135Y0056827
X0006Y0052327
X00035Y0047827
X-0006Y0041
X-0011Y005
X-00185
Y00765
X-00105Y0074
X0007Y0068
X0012Y0067827
X00355Y00775
X0046Y0078
X0051Y00925
X00525Y01015
X006
X00715Y0101
X00845Y01085
X0087Y0113
X00945Y01175
X0093Y01285
X0086
X00755Y0137
X00685Y0136
X0063Y01365
X0054Y01435
X0051Y0148657
Y0151225
X0047Y0148666
Y0146098
X00435Y0137
X0042Y0129
X0037Y01285
X0036Y01135
X00335Y0109
X00345Y00925
X0021Y01015
X0008Y0101347
X0
X-0001Y0092347
X-00175
X-00185Y0108846
X-0016Y0113347
X-00085Y0117847
X-001Y0128847
X-00165
X-0012Y0136
X-00095Y0146141
Y0148709
X-0006177Y0153823
X-0008516Y0161
X-0011084
X-00245Y01645
X-00265Y0159
X-0002Y0144
X0015Y01487
Y0151268
X0014Y0156377
Y0158946
X00315Y01565
X0032Y01615
X0045337Y0161163
X0047153Y0159347
X0067416Y0152
X0069984
X00745Y0159
X007511Y016139
X0083Y01615
X0082236Y0150764
X0106Y01545
X01065Y0143
X0101Y01395
X003Y0143
X00255Y01365
X0016
X001216Y013616
X00435Y0118
X0043Y00575
X00355
X0059Y0068
X0064Y0067827
X00765Y00805
X-00315Y0101347
T02
X0187Y0073
X01965Y0117
X0183Y01325
T03
X0Y0
X001
X002
X003
X004
X005
X006
X007
X008
X009
X01
Y001
X009
X008
X007
X006
X005
X004
X003
X002
X001
X0
X011
X012
X013
X014
X015
Y0
X014
X013
X012
X011
Y019
X012
X013
X014
X015
X016
X017
X018
X019
X02
X01
X009
X008
X007
X006
X005
X004
X003
X002
X001
X0
X-001
X-002
X-003
X-004
Y02
X-003
X-002
X-001
X0
X001
X002
X003
X004
X005
X006
X007
X008
X009
X01
X011
X012
X013
X014
X015
X016
X017
X018
X019
X02
T04
X-001748Y0009921
X0175433
X0210866Y0096535
Y0175276
X-0048976
Y0096535
M30
