G04 Layer_Color=255*
%FSLAX25Y25*%
%MOIN*%
G70*
G01*
G75*
%ADD23R,0.05905X0.05905*%
%ADD24C,0.05905*%
%ADD34R,0.07100X0.01600*%
%ADD35O,0.02756X0.07087*%
G54D23*
X200000Y200000D02*
D03*
X0Y0D02*
D03*
G54D24*
X200000Y190000D02*
D03*
X190000Y200000D02*
D03*
Y190000D02*
D03*
X180000Y200000D02*
D03*
Y190000D02*
D03*
X170000Y200000D02*
D03*
Y190000D02*
D03*
X160000Y200000D02*
D03*
Y190000D02*
D03*
X150000Y200000D02*
D03*
X140000Y190000D02*
D03*
X130000Y200000D02*
D03*
Y190000D02*
D03*
X120000Y200000D02*
D03*
Y190000D02*
D03*
X110000Y200000D02*
D03*
Y190000D02*
D03*
X100000Y200000D02*
D03*
Y190000D02*
D03*
X90000Y200000D02*
D03*
Y190000D02*
D03*
X80000Y200000D02*
D03*
Y190000D02*
D03*
X70000Y200000D02*
D03*
Y190000D02*
D03*
X60000Y200000D02*
D03*
Y190000D02*
D03*
X50000Y200000D02*
D03*
Y190000D02*
D03*
X40000Y200000D02*
D03*
Y190000D02*
D03*
X30000Y200000D02*
D03*
Y190000D02*
D03*
X20000Y200000D02*
D03*
Y190000D02*
D03*
X10000Y200000D02*
D03*
Y190000D02*
D03*
X0Y200000D02*
D03*
Y190000D02*
D03*
X-10000Y200000D02*
D03*
Y190000D02*
D03*
X-20000Y200000D02*
D03*
Y190000D02*
D03*
X-30000Y200000D02*
D03*
Y190000D02*
D03*
X-40000Y200000D02*
D03*
Y190000D02*
D03*
X140000Y200000D02*
D03*
X150000Y190000D02*
D03*
Y10000D02*
D03*
Y0D02*
D03*
X140000Y10000D02*
D03*
Y0D02*
D03*
X130000Y10000D02*
D03*
Y0D02*
D03*
X120000Y10000D02*
D03*
Y0D02*
D03*
X110000Y10000D02*
D03*
Y0D02*
D03*
X100000Y10000D02*
D03*
Y0D02*
D03*
X90000Y10000D02*
D03*
Y0D02*
D03*
X80000Y10000D02*
D03*
Y0D02*
D03*
X70000Y10000D02*
D03*
Y0D02*
D03*
X60000Y10000D02*
D03*
Y0D02*
D03*
X50000Y10000D02*
D03*
Y0D02*
D03*
X40000Y10000D02*
D03*
Y0D02*
D03*
X30000Y10000D02*
D03*
Y0D02*
D03*
X20000Y10000D02*
D03*
Y0D02*
D03*
X10000Y10000D02*
D03*
Y0D02*
D03*
X0Y10000D02*
D03*
G54D34*
X37189Y161457D02*
D03*
X37189Y158898D02*
D03*
X37189Y151221D02*
D03*
Y143543D02*
D03*
X60811D02*
D03*
Y146102D02*
D03*
Y153779D02*
D03*
Y161457D02*
D03*
Y158898D02*
D03*
Y156339D02*
D03*
Y151221D02*
D03*
Y148661D02*
D03*
X37189D02*
D03*
Y146102D02*
D03*
Y156339D02*
D03*
Y153779D02*
D03*
X89878Y161000D02*
D03*
X89878Y158441D02*
D03*
X89878Y150764D02*
D03*
Y143087D02*
D03*
X113500D02*
D03*
Y145646D02*
D03*
Y153323D02*
D03*
Y161000D02*
D03*
Y158441D02*
D03*
Y155882D02*
D03*
Y150764D02*
D03*
Y148205D02*
D03*
X89878D02*
D03*
Y145646D02*
D03*
Y155882D02*
D03*
Y153323D02*
D03*
X-17622Y161500D02*
D03*
X-17622Y158941D02*
D03*
X-17622Y151264D02*
D03*
Y143587D02*
D03*
X6000D02*
D03*
Y146146D02*
D03*
Y153823D02*
D03*
Y161500D02*
D03*
Y158941D02*
D03*
Y156382D02*
D03*
Y151264D02*
D03*
Y148705D02*
D03*
X-17622D02*
D03*
Y146146D02*
D03*
Y156382D02*
D03*
Y153823D02*
D03*
X147378Y161000D02*
D03*
X147378Y158441D02*
D03*
X147378Y150764D02*
D03*
Y143087D02*
D03*
X171000D02*
D03*
Y145646D02*
D03*
Y153323D02*
D03*
Y161000D02*
D03*
Y150764D02*
D03*
Y148205D02*
D03*
Y158441D02*
D03*
Y155882D02*
D03*
X147378Y148205D02*
D03*
Y145646D02*
D03*
Y155882D02*
D03*
Y153323D02*
D03*
G54D35*
X-5000Y102847D02*
D03*
X-10000D02*
D03*
X-15000D02*
D03*
X-20000D02*
D03*
X-5000Y123319D02*
D03*
X-10000D02*
D03*
X-15000D02*
D03*
X-20000D02*
D03*
X17000Y41827D02*
D03*
X12000D02*
D03*
X7000D02*
D03*
X2000D02*
D03*
X17000Y62299D02*
D03*
X12000D02*
D03*
X7000D02*
D03*
X2000D02*
D03*
X47000Y103000D02*
D03*
X42000D02*
D03*
X37000D02*
D03*
X32000D02*
D03*
X47000Y123472D02*
D03*
X42000D02*
D03*
X37000D02*
D03*
X32000D02*
D03*
X69000Y41827D02*
D03*
X64000D02*
D03*
X59000D02*
D03*
X54000D02*
D03*
X69000Y62299D02*
D03*
X64000D02*
D03*
X59000D02*
D03*
X54000D02*
D03*
X98000Y102500D02*
D03*
X93000D02*
D03*
X88000D02*
D03*
X83000D02*
D03*
X98000Y122972D02*
D03*
X93000D02*
D03*
X88000D02*
D03*
X83000D02*
D03*
X120500Y42000D02*
D03*
X115500D02*
D03*
X110500D02*
D03*
X105500D02*
D03*
X120500Y62472D02*
D03*
X115500D02*
D03*
X110500D02*
D03*
X105500D02*
D03*
X149500Y102500D02*
D03*
X144500D02*
D03*
X139500D02*
D03*
X134500D02*
D03*
X149500Y122972D02*
D03*
X144500D02*
D03*
X139500D02*
D03*
X134500D02*
D03*
X172500Y41827D02*
D03*
X167500D02*
D03*
X162500D02*
D03*
X157500D02*
D03*
X172500Y62299D02*
D03*
X167500D02*
D03*
X162500D02*
D03*
X157500D02*
D03*
M02*
