G04 Layer_Physical_Order=1*
G04 Layer_Color=255*
%FSLAX25Y25*%
%MOIN*%
G70*
G01*
G75*
%ADD10R,0.04567X0.05787*%
%ADD11R,0.05787X0.04567*%
%ADD12R,0.02362X0.02559*%
%ADD13R,0.02756X0.04921*%
%ADD14R,0.03937X0.03268*%
%ADD15R,0.02559X0.02362*%
%ADD16R,0.04528X0.02559*%
%ADD17R,0.03661X0.03858*%
%ADD18C,0.03000*%
%ADD19C,0.02000*%
%ADD20C,0.01500*%
%ADD21C,0.01000*%
%ADD22C,0.00600*%
%ADD23R,0.05905X0.05905*%
%ADD24C,0.05905*%
%ADD25C,0.01968*%
%ADD26C,0.03150*%
G54D10*
X183496Y137000D02*
D03*
X190504D02*
D03*
X186996Y171500D02*
D03*
X194004D02*
D03*
G54D11*
X196000Y121496D02*
D03*
Y128504D02*
D03*
G54D12*
X163154Y55327D02*
D03*
X166500D02*
D03*
X-10827Y104347D02*
D03*
X-14173D02*
D03*
X-11000Y110846D02*
D03*
X-14346D02*
D03*
Y116347D02*
D03*
X-11000D02*
D03*
X11173Y43327D02*
D03*
X7827D02*
D03*
X11000Y49827D02*
D03*
X7654D02*
D03*
Y55327D02*
D03*
X11000D02*
D03*
X41173Y104500D02*
D03*
X37827D02*
D03*
X41000Y111000D02*
D03*
X37653D02*
D03*
Y116500D02*
D03*
X41000D02*
D03*
X63173Y43327D02*
D03*
X59827D02*
D03*
X63000Y49827D02*
D03*
X59654D02*
D03*
Y55327D02*
D03*
X63000D02*
D03*
X92173Y104000D02*
D03*
X88827D02*
D03*
X92000Y110500D02*
D03*
X88653D02*
D03*
Y116000D02*
D03*
X92000D02*
D03*
X114673Y43500D02*
D03*
X111327D02*
D03*
X114500Y50000D02*
D03*
X111153D02*
D03*
Y55500D02*
D03*
X114500D02*
D03*
X143673Y104000D02*
D03*
X140327D02*
D03*
X143500Y110500D02*
D03*
X140154D02*
D03*
Y116000D02*
D03*
X143500D02*
D03*
X166673Y43327D02*
D03*
X163327D02*
D03*
X166500Y49827D02*
D03*
X163154D02*
D03*
G54D13*
X180240Y54748D02*
D03*
X172760D02*
D03*
X176500Y44905D02*
D03*
X158240Y54248D02*
D03*
X150760D02*
D03*
X154500Y44405D02*
D03*
X2740Y115768D02*
D03*
X-4740D02*
D03*
X-1000Y105925D02*
D03*
X-19260Y115268D02*
D03*
X-26740D02*
D03*
X-23000Y105425D02*
D03*
X24740Y54748D02*
D03*
X17260D02*
D03*
X21000Y44905D02*
D03*
X2740Y54248D02*
D03*
X-4740D02*
D03*
X-1000Y44405D02*
D03*
X54740Y115921D02*
D03*
X47260D02*
D03*
X51000Y106079D02*
D03*
X32740Y115421D02*
D03*
X25260D02*
D03*
X29000Y105579D02*
D03*
X76740Y54748D02*
D03*
X69260D02*
D03*
X73000Y44905D02*
D03*
X54740Y54248D02*
D03*
X47260D02*
D03*
X51000Y44405D02*
D03*
X105740Y115421D02*
D03*
X98260D02*
D03*
X102000Y105579D02*
D03*
X83740Y114921D02*
D03*
X76260D02*
D03*
X80000Y105079D02*
D03*
X128240Y54921D02*
D03*
X120760D02*
D03*
X124500Y45079D02*
D03*
X106240Y54421D02*
D03*
X98760D02*
D03*
X102500Y44579D02*
D03*
X157240Y115421D02*
D03*
X149760D02*
D03*
X153500Y105579D02*
D03*
X135240Y114921D02*
D03*
X127760D02*
D03*
X131500Y105079D02*
D03*
G54D14*
X179500Y62327D02*
D03*
X170209D02*
D03*
X151000D02*
D03*
X160291D02*
D03*
X2000Y123346D02*
D03*
X-7291D02*
D03*
X-26500D02*
D03*
X-17209D02*
D03*
X24000Y62327D02*
D03*
X14709D02*
D03*
X-4500D02*
D03*
X4791D02*
D03*
X54000Y123500D02*
D03*
X44709D02*
D03*
X25500D02*
D03*
X34791D02*
D03*
X76000Y62327D02*
D03*
X66709D02*
D03*
X47500D02*
D03*
X56791D02*
D03*
X105000Y123000D02*
D03*
X95709D02*
D03*
X76500D02*
D03*
X85791D02*
D03*
X127500Y62500D02*
D03*
X118209D02*
D03*
X99000D02*
D03*
X108291D02*
D03*
X156500Y123000D02*
D03*
X147209D02*
D03*
X128000D02*
D03*
X137291D02*
D03*
G54D15*
X-9000Y95173D02*
D03*
Y98520D02*
D03*
Y86173D02*
D03*
Y89520D02*
D03*
X-3500Y95327D02*
D03*
Y98673D02*
D03*
Y86173D02*
D03*
Y89520D02*
D03*
X2000Y95000D02*
D03*
Y98347D02*
D03*
X2000Y86173D02*
D03*
Y89520D02*
D03*
X-26000Y95000D02*
D03*
Y98347D02*
D03*
X-26000Y86173D02*
D03*
Y89520D02*
D03*
X-20500Y95327D02*
D03*
Y98673D02*
D03*
Y86173D02*
D03*
Y89520D02*
D03*
X-15000Y95173D02*
D03*
Y98520D02*
D03*
Y86173D02*
D03*
Y89520D02*
D03*
X13000Y34154D02*
D03*
Y37500D02*
D03*
Y25153D02*
D03*
Y28500D02*
D03*
X18500Y34307D02*
D03*
Y37653D02*
D03*
Y25153D02*
D03*
Y28500D02*
D03*
X24000Y33980D02*
D03*
Y37327D02*
D03*
X24000Y25153D02*
D03*
Y28500D02*
D03*
X-4000Y33980D02*
D03*
Y37327D02*
D03*
X-4000Y25153D02*
D03*
Y28500D02*
D03*
X1500Y34307D02*
D03*
Y37653D02*
D03*
Y25153D02*
D03*
Y28500D02*
D03*
X7000Y34154D02*
D03*
Y37500D02*
D03*
Y25153D02*
D03*
Y28500D02*
D03*
X43000Y95327D02*
D03*
Y98673D02*
D03*
Y86327D02*
D03*
Y89673D02*
D03*
X48500Y95480D02*
D03*
Y98827D02*
D03*
Y86327D02*
D03*
Y89673D02*
D03*
X54000Y95153D02*
D03*
Y98500D02*
D03*
X54000Y86327D02*
D03*
Y89673D02*
D03*
X26000Y95153D02*
D03*
Y98500D02*
D03*
X26000Y86327D02*
D03*
Y89673D02*
D03*
X31500Y95480D02*
D03*
Y98827D02*
D03*
Y86327D02*
D03*
Y89673D02*
D03*
X37000Y95327D02*
D03*
Y98673D02*
D03*
Y86327D02*
D03*
Y89673D02*
D03*
X65000Y34154D02*
D03*
Y37500D02*
D03*
Y25153D02*
D03*
Y28500D02*
D03*
X70500Y34307D02*
D03*
Y37653D02*
D03*
Y25153D02*
D03*
Y28500D02*
D03*
X76000Y33980D02*
D03*
Y37327D02*
D03*
X76000Y25153D02*
D03*
Y28500D02*
D03*
X48000Y33980D02*
D03*
Y37327D02*
D03*
X48000Y25153D02*
D03*
Y28500D02*
D03*
X53500Y34307D02*
D03*
Y37653D02*
D03*
Y25153D02*
D03*
Y28500D02*
D03*
X59000Y34154D02*
D03*
Y37500D02*
D03*
Y25153D02*
D03*
Y28500D02*
D03*
X94000Y94827D02*
D03*
Y98173D02*
D03*
Y85827D02*
D03*
Y89173D02*
D03*
X99500Y94980D02*
D03*
Y98327D02*
D03*
Y85827D02*
D03*
Y89173D02*
D03*
X105000Y94653D02*
D03*
Y98000D02*
D03*
X105000Y85827D02*
D03*
Y89173D02*
D03*
X77000Y94653D02*
D03*
Y98000D02*
D03*
X77000Y85827D02*
D03*
Y89173D02*
D03*
X82500Y94980D02*
D03*
Y98327D02*
D03*
Y85827D02*
D03*
Y89173D02*
D03*
X88000Y94827D02*
D03*
Y98173D02*
D03*
Y85827D02*
D03*
Y89173D02*
D03*
X116500Y34327D02*
D03*
Y37673D02*
D03*
Y25327D02*
D03*
Y28673D02*
D03*
X122000Y34480D02*
D03*
Y37827D02*
D03*
Y25327D02*
D03*
Y28673D02*
D03*
X127500Y34154D02*
D03*
Y37500D02*
D03*
X127500Y25327D02*
D03*
Y28673D02*
D03*
X99500Y34154D02*
D03*
Y37500D02*
D03*
X99500Y25327D02*
D03*
Y28673D02*
D03*
X105000Y34480D02*
D03*
Y37827D02*
D03*
Y25327D02*
D03*
Y28673D02*
D03*
X110500Y34327D02*
D03*
Y37673D02*
D03*
Y25327D02*
D03*
Y28673D02*
D03*
X145500Y94827D02*
D03*
Y98173D02*
D03*
Y85827D02*
D03*
Y89173D02*
D03*
X151000Y94980D02*
D03*
Y98327D02*
D03*
Y85827D02*
D03*
Y89173D02*
D03*
X156500Y94653D02*
D03*
Y98000D02*
D03*
X156500Y85827D02*
D03*
Y89173D02*
D03*
X128500Y94653D02*
D03*
Y98000D02*
D03*
X128500Y85827D02*
D03*
Y89173D02*
D03*
X134000Y94980D02*
D03*
Y98327D02*
D03*
Y85827D02*
D03*
Y89173D02*
D03*
X139500Y94827D02*
D03*
Y98173D02*
D03*
Y85827D02*
D03*
Y89173D02*
D03*
X168500Y34154D02*
D03*
Y37500D02*
D03*
Y25153D02*
D03*
Y28500D02*
D03*
X174000Y34307D02*
D03*
Y37653D02*
D03*
Y25153D02*
D03*
Y28500D02*
D03*
X179500Y33980D02*
D03*
Y37327D02*
D03*
X179500Y25153D02*
D03*
Y28500D02*
D03*
X151500Y33980D02*
D03*
Y37327D02*
D03*
X151500Y25153D02*
D03*
Y28500D02*
D03*
X157000Y34307D02*
D03*
Y37653D02*
D03*
Y25153D02*
D03*
Y28500D02*
D03*
X162500Y34154D02*
D03*
Y37500D02*
D03*
Y25153D02*
D03*
Y28500D02*
D03*
X-16500Y157827D02*
D03*
Y161173D02*
D03*
X-22500Y157827D02*
D03*
Y161173D02*
D03*
X36000Y157827D02*
D03*
Y161173D02*
D03*
X28000Y157827D02*
D03*
Y161173D02*
D03*
X86500Y157500D02*
D03*
Y160846D02*
D03*
X79500Y157500D02*
D03*
Y160846D02*
D03*
X145000Y157500D02*
D03*
Y160846D02*
D03*
X138500Y157500D02*
D03*
Y160846D02*
D03*
G54D16*
X183693Y158500D02*
D03*
X195307Y162240D02*
D03*
Y154760D02*
D03*
G54D17*
X193000Y147500D02*
D03*
X186937D02*
D03*
G54D18*
X75110Y161390D02*
X167110D01*
X201000Y158000D02*
Y164504D01*
X129000Y157000D02*
X154000D01*
X163000D02*
X176000Y144000D01*
X190504Y137000D02*
X196000Y131504D01*
X81000Y157000D02*
X105500D01*
X79500Y155500D02*
X81000Y157000D01*
X40500Y143000D02*
X67000D01*
X-11500D02*
X30000D01*
X-21000Y156500D02*
X-16500D01*
X30000Y143000D02*
X40500D01*
X194004Y171500D02*
X201000Y164504D01*
X197760Y154760D02*
X201000Y158000D01*
X105500Y157000D02*
X129000D01*
X190000Y200000D02*
X200000D01*
Y190000D02*
Y200000D01*
Y177496D02*
Y190000D01*
X194004Y171500D02*
X200000Y177496D01*
X160000Y190000D02*
X170000D01*
Y188496D02*
Y190000D01*
Y188496D02*
X186996Y171500D01*
X195307Y154760D02*
X197760D01*
X193000Y147500D02*
Y152453D01*
X195307Y154760D01*
X186996Y161803D02*
Y171500D01*
X183693Y158500D02*
X186996Y161803D01*
X186937Y153870D02*
X195307Y162240D01*
X186937Y147500D02*
Y153870D01*
X181000Y147500D02*
X186937D01*
X167110Y161390D02*
X181000Y147500D01*
X193000Y144500D02*
Y147500D01*
X191000Y142500D02*
X193000Y144500D01*
X179000Y142500D02*
X191000D01*
X187000Y73000D02*
Y120500D01*
X183000Y124500D02*
X187000Y120500D01*
X183000Y124500D02*
Y132500D01*
Y136504D01*
X183496Y137000D01*
X190504D02*
Y142004D01*
X191000Y142500D01*
X196000Y117500D02*
Y121496D01*
Y117500D02*
X196500Y117000D01*
X196000Y128504D02*
Y131504D01*
X-15500Y147000D02*
X-11500Y143000D01*
X-16500Y156500D02*
X-15500Y155500D01*
Y147000D02*
Y155500D01*
X177500Y144000D02*
X179000Y142500D01*
X67000Y143000D02*
X79500Y155500D01*
X154000Y157000D02*
X163000D01*
X176000Y144000D02*
X177500D01*
X74500Y160780D02*
X75110Y161390D01*
X74500Y159000D02*
Y160780D01*
G54D19*
X28000Y161173D02*
X36000D01*
X-24500Y164500D02*
X-21173Y161173D01*
X28000Y157827D02*
X36000D01*
X180000Y80500D02*
Y119000D01*
X129500Y40500D02*
Y43000D01*
X78173Y40500D02*
X79500D01*
X78000Y40327D02*
X78173Y40500D01*
X26000Y40327D02*
X26327D01*
X26500Y40500D01*
X165500Y40327D02*
X166039D01*
X181500D02*
X185500D01*
X142500Y101000D02*
X143039D01*
X158500D02*
X162500D01*
X113500Y40500D02*
X114039D01*
X62000Y40327D02*
X62539D01*
X10000D02*
X10539D01*
X-12000Y101347D02*
X-11461D01*
X4000D02*
X8000D01*
X56000Y101500D02*
X60000D01*
X40000D02*
X40539D01*
X91000Y101000D02*
X91539D01*
X107000D02*
X111000D01*
X193000Y48500D02*
Y106000D01*
X190500Y108500D02*
X193000Y106000D01*
X-21173Y161173D02*
X-16500D01*
X0Y101347D02*
X4000D01*
X20500Y101500D02*
X21000D01*
X52500D02*
X56000D01*
X103000Y101000D02*
X107000D01*
X154500D02*
X158500D01*
X177500Y40327D02*
X181500D01*
X125500Y40500D02*
X129500D01*
X73500Y40327D02*
X78000D01*
X21500D02*
X26000D01*
X36000Y147500D02*
Y157827D01*
Y147500D02*
X40500Y143000D01*
G54D20*
X105500Y144000D02*
Y157000D01*
X152000Y41500D02*
X157405D01*
X97500Y40500D02*
X106579D01*
X46500D02*
X54905D01*
X-6000Y41000D02*
X2406D01*
X158579Y40327D02*
X165500D01*
X135579Y101000D02*
X142500D01*
X106579Y40500D02*
X113500D01*
X123000Y101000D02*
X135579D01*
X55079Y40327D02*
X62000D01*
X3079D02*
X10000D01*
X-31500Y101347D02*
X-18921D01*
X-12000D01*
X33079Y101500D02*
X40000D01*
X71500Y101000D02*
X84079D01*
X91000D01*
X105500Y144000D02*
X106500Y143000D01*
X163587Y143087D02*
X176587D01*
X177500Y144000D01*
X-11461Y101347D02*
X0D01*
X21000Y101500D02*
X33079D01*
X40539D02*
X52500D01*
X91539Y101000D02*
X103000D01*
X143039D02*
X154500D01*
X166039Y40327D02*
X177500D01*
X114039Y40500D02*
X125500D01*
X62539Y40327D02*
X73500D01*
X10539D02*
X21500D01*
G54D21*
X146000Y75327D02*
X156500Y85827D01*
X138500Y26500D02*
Y77000D01*
X175500Y22000D02*
X176347D01*
X153500Y0D02*
X175500Y22000D01*
X94500Y75327D02*
X105000Y85827D01*
X115000Y12827D02*
X127500Y25327D01*
X43500Y75827D02*
X54000Y86327D01*
X-10500Y73673D02*
X2000Y86173D01*
X43500Y25000D02*
Y75827D01*
X76000Y15000D02*
Y25153D01*
X43500Y25000D02*
X55000Y13500D01*
X24000Y25153D02*
X35000Y14153D01*
X26000Y40327D02*
X26500Y39827D01*
X-10500Y27000D02*
Y73673D01*
X10654Y21500D02*
X17500D01*
X10500Y17500D02*
X15000Y13000D01*
X179500Y62327D02*
Y64500D01*
X175500Y68500D02*
X179500Y64500D01*
X175500Y68500D02*
Y135000D01*
X178500Y138000D01*
X87000Y57500D02*
Y76500D01*
Y84827D01*
X138500Y77000D02*
Y84827D01*
X59000Y21500D02*
Y25153D01*
Y21000D02*
Y21500D01*
X106500Y16500D02*
X110500Y20500D01*
X105000Y15000D02*
X106500Y16500D01*
X161000Y20500D02*
X162500Y22000D01*
X157500Y17000D02*
X161000Y20500D01*
X146000Y26500D02*
Y57500D01*
Y22500D02*
Y26500D01*
X138500Y25000D02*
Y26500D01*
X146000Y57500D02*
Y75327D01*
X94500Y57500D02*
Y75327D01*
Y27000D02*
Y57500D01*
X87000Y27000D02*
Y57500D01*
X94500Y4500D02*
Y27000D01*
X87000Y18000D02*
Y27000D01*
X35500Y77500D02*
Y84827D01*
Y57500D02*
Y77500D01*
Y27000D02*
Y57500D01*
Y24000D02*
Y27000D01*
X3500Y19500D02*
X5500Y17500D01*
X2000Y21000D02*
X3500Y19500D01*
X-10500Y26000D02*
Y27000D01*
X-12000Y20000D02*
X-8000Y16000D01*
X-18500Y26500D02*
X-12000Y20000D01*
X-18500Y27500D02*
Y50000D01*
Y26500D02*
Y27500D01*
Y50000D02*
Y76500D01*
Y82673D01*
X134000Y25500D02*
Y85827D01*
X120000Y11500D02*
X134000Y25500D01*
X120000Y10000D02*
Y11500D01*
X142500Y22500D02*
Y77327D01*
X130000Y10000D02*
X142500Y22500D01*
X135000Y11500D02*
X146000Y22500D01*
X135000Y5000D02*
Y11500D01*
X148500Y19500D02*
X154000D01*
X140000Y11000D02*
X148500Y19500D01*
X140000Y10000D02*
Y11000D01*
X162500Y22000D02*
Y25153D01*
X150500Y17000D02*
X157500D01*
X145000Y11500D02*
X150500Y17000D01*
X145000Y5000D02*
Y11500D01*
X150000Y0D02*
X153500D01*
X142500Y77327D02*
X151000Y85827D01*
X157405Y41500D02*
X158579Y40327D01*
X154500Y44405D02*
X157405Y41500D01*
X91000Y12000D02*
Y77327D01*
X90000Y11000D02*
X91000Y12000D01*
X90000Y10000D02*
Y11000D01*
X91000Y77327D02*
X99500Y85827D01*
X82500D02*
X84000Y84327D01*
Y19000D02*
Y84327D01*
X80000Y15000D02*
X84000Y19000D01*
X55000Y5000D02*
Y13500D01*
X9000Y14500D02*
X10000Y13500D01*
X4737Y14500D02*
X9000D01*
X-13Y19250D02*
X4737Y14500D01*
X4500Y4500D02*
Y11500D01*
X0Y16000D02*
X4500Y11500D01*
X-8000Y16000D02*
X0D01*
X5500Y17500D02*
X10500D01*
X-5500Y21000D02*
X2000D01*
X20000Y10000D02*
Y13000D01*
X13500Y19500D02*
X20000Y13000D01*
X7153Y19500D02*
X13500D01*
X1500Y25153D02*
X7153Y19500D01*
X45500Y5500D02*
Y14000D01*
X35500Y24000D02*
X45500Y14000D01*
X39500Y77327D02*
X48500Y86327D01*
X39500Y24000D02*
Y77327D01*
Y24000D02*
X50000Y13500D01*
X54905Y40500D02*
X55079Y40327D01*
X51000Y44405D02*
X54905Y40500D01*
X31500Y23737D02*
Y86327D01*
Y23737D02*
X40000Y15237D01*
X-10500Y26000D02*
X-5500Y21000D01*
X2406Y41000D02*
X3079Y40327D01*
X-1000Y44405D02*
X2406Y41000D01*
X-7750Y19250D02*
X-13D01*
X-14500Y26000D02*
X-7750Y19250D01*
X-14500Y26000D02*
Y77500D01*
X-5500Y10000D02*
X0D01*
X-24500Y29000D02*
X-5500Y10000D01*
X-24500Y29000D02*
Y82173D01*
X-20500Y86173D01*
X156330Y28500D02*
X157000D01*
X154049Y26219D02*
X156330Y28500D01*
X152565Y26219D02*
X154049D01*
X151500Y25153D02*
X152565Y26219D01*
X151500Y28500D02*
Y33980D01*
X151500Y33980D02*
X151500Y33980D01*
X151500Y37327D02*
X156673D01*
X157000Y37653D01*
X162346D02*
X162500Y37500D01*
X157000Y28500D02*
Y34307D01*
X160000Y31000D02*
X162500Y28500D01*
X157000Y37653D02*
X160000D01*
X162346D01*
X165500Y26654D02*
Y31154D01*
X164000Y25153D02*
X165500Y26654D01*
X162500Y25153D02*
X164000D01*
X172516Y28500D02*
X174000D01*
X169170Y25153D02*
X172516Y28500D01*
X168500Y25153D02*
X169170D01*
X168500Y28500D02*
Y34154D01*
X174000Y28500D02*
Y34307D01*
X179327Y37500D02*
X179500Y37327D01*
X176500Y31500D02*
Y37500D01*
X179327D01*
X179500Y33980D02*
X182000Y31480D01*
Y26153D02*
Y31480D01*
X181000Y25153D02*
X182000Y26153D01*
X179500Y25153D02*
X181000D01*
X160000Y31327D02*
Y37653D01*
X166039Y40327D02*
X166673Y40961D01*
X165500Y31154D02*
Y40327D01*
Y31154D02*
X165500Y31154D01*
X162500Y34154D02*
X165500Y31154D01*
X182000Y31480D02*
Y39827D01*
X159000Y47653D02*
X163327Y43327D01*
X166500Y49827D02*
X166673Y49654D01*
Y43327D02*
Y49654D01*
X166500Y49827D02*
Y51980D01*
X165533Y52947D02*
X166500Y51980D01*
X164863Y52947D02*
X165533D01*
X163154Y54657D02*
X164863Y52947D01*
X163154Y54657D02*
Y55327D01*
X161500Y52327D02*
X163154Y50673D01*
Y49827D02*
Y50673D01*
X158240Y54248D02*
Y60276D01*
X160291Y62327D01*
X176500Y44905D02*
X176921D01*
X166500Y55327D02*
X167500D01*
X169000Y56827D01*
X172661Y62327D02*
X180240Y54748D01*
X170209Y62327D02*
X172661D01*
X172760Y54748D02*
X177181Y50327D01*
X182000D01*
X183500Y51827D01*
Y58327D01*
X179500Y62327D02*
X183500Y58327D01*
X160291Y62327D02*
Y67118D01*
X161000Y67827D01*
X170209Y62327D02*
Y65118D01*
X167500Y67827D02*
X170209Y65118D01*
X159000Y47653D02*
Y47827D01*
X176921Y44905D02*
X181500Y40327D01*
X182000Y39827D01*
X153500Y98173D02*
X156327D01*
X153500Y92173D02*
Y98173D01*
X156327D02*
X156500Y98000D01*
X136000Y108327D02*
Y108500D01*
Y108327D02*
X140327Y104000D01*
X134000Y98327D02*
X137000D01*
Y92000D02*
Y98327D01*
Y91673D02*
X139500Y89173D01*
X139347Y98327D02*
X139500Y98173D01*
X137000Y98327D02*
X139347D01*
X143500Y116000D02*
X144500D01*
X146000Y117500D01*
X138500Y113000D02*
X140154Y111346D01*
Y110500D02*
Y111346D01*
X131500Y105079D02*
X135579Y101000D01*
X139500Y85827D02*
X141000D01*
X142500Y87327D01*
X142500Y91827D02*
X142500Y91827D01*
X142500Y91827D02*
Y101000D01*
X139500Y94827D02*
X142500Y91827D01*
X142500Y87327D02*
Y91827D01*
X156500Y85827D02*
X158000D01*
X159000Y92154D02*
Y100500D01*
X156500Y94653D02*
X159000Y92154D01*
X158500Y101000D02*
X159000Y100500D01*
X143039Y101000D02*
X143673Y101634D01*
Y104000D01*
X153921Y105579D02*
X158500Y101000D01*
X153500Y105579D02*
X153921D01*
X134000Y89173D02*
Y94980D01*
X128500Y98000D02*
X133673D01*
X134000Y98327D01*
X128500Y85827D02*
X129565Y86892D01*
X131049D01*
X133330Y89173D01*
X134000D01*
X128500D02*
Y94653D01*
X128500Y94653D02*
X128500Y94653D01*
X151000Y89173D02*
Y94980D01*
X145500Y85827D02*
X146170D01*
X149516Y89173D01*
X151000D01*
X145500D02*
Y94827D01*
X149661Y123000D02*
X157240Y115421D01*
X149760D02*
X154181Y111000D01*
X159000D01*
X160500Y112500D01*
Y119000D01*
X156500Y123000D02*
X160500Y119000D01*
X140154Y115330D02*
Y116000D01*
X142533Y113620D02*
X143500Y112654D01*
X140154Y115330D02*
X141863Y113620D01*
X142533D01*
X143500Y110500D02*
Y112654D01*
Y110500D02*
X143673Y110327D01*
X124500Y37673D02*
X127327D01*
X124500Y31673D02*
Y37673D01*
X127327D02*
X127500Y37500D01*
X107000Y47827D02*
Y48000D01*
Y47827D02*
X111327Y43500D01*
X105000Y37827D02*
X108000D01*
Y31500D02*
Y37827D01*
Y31173D02*
X110500Y28673D01*
X110346Y37827D02*
X110500Y37673D01*
X108000Y37827D02*
X110346D01*
X114500Y55500D02*
X115500D01*
X117000Y57000D01*
X109500Y52500D02*
X111153Y50846D01*
Y50000D02*
Y50846D01*
X102500Y44579D02*
X106579Y40500D01*
X110500Y25327D02*
X112000D01*
X113500Y26827D01*
X113500Y31327D02*
X113500Y31327D01*
X113500Y31327D02*
Y40500D01*
X110500Y34327D02*
X113500Y31327D01*
X113500Y26827D02*
Y31327D01*
X127500Y25327D02*
X129000D01*
X130000Y26327D01*
Y31653D01*
Y40000D01*
X127500Y34154D02*
X130000Y31653D01*
X129500Y40500D02*
X130000Y40000D01*
X114039Y40500D02*
X114673Y41134D01*
Y43500D01*
X124921Y45079D02*
X129500Y40500D01*
X124500Y45079D02*
X124921D01*
X105000Y28673D02*
Y34480D01*
X99500Y37500D02*
X104673D01*
X105000Y37827D01*
X99500Y25327D02*
X100565Y26392D01*
X102049D01*
X104330Y28673D01*
X105000D01*
X99500D02*
Y34154D01*
X99500Y34154D02*
X99500Y34154D01*
X122000Y28673D02*
Y34480D01*
X116500Y25327D02*
X117170D01*
X120516Y28673D01*
X122000D01*
X116500D02*
Y34327D01*
X120661Y62500D02*
X128240Y54921D01*
X120760D02*
X125181Y50500D01*
X130000D01*
X131500Y52000D01*
Y58500D01*
X127500Y62500D02*
X131500Y58500D01*
X111153Y54830D02*
Y55500D01*
X113533Y53120D02*
X114500Y52153D01*
X111153Y54830D02*
X112863Y53120D01*
X113533D01*
X114673Y43500D02*
Y49827D01*
X114500Y50000D02*
Y52153D01*
Y50000D02*
X114673Y49827D01*
X166673Y40961D02*
Y43327D01*
X143673Y104000D02*
Y110327D01*
X159000Y86827D02*
Y92154D01*
X158000Y85827D02*
X159000Y86827D01*
X158846Y10000D02*
X174000Y25153D01*
X150000Y10000D02*
X158846D01*
X130000Y0D02*
X135000Y5000D01*
X125000D02*
Y11500D01*
X120000Y0D02*
X125000Y5000D01*
X115000D02*
Y12827D01*
X110000Y0D02*
X115000Y5000D01*
X110000Y13327D02*
X122000Y25327D01*
X110000Y10000D02*
Y13327D01*
X110500Y20500D02*
Y25327D01*
X105000Y5000D02*
Y15000D01*
X100000Y0D02*
X105000Y5000D01*
X105000Y21000D02*
Y25327D01*
X100000Y16000D02*
X105000Y21000D01*
X100000Y10000D02*
Y16000D01*
X73000Y37500D02*
X75827D01*
X73000Y31500D02*
Y37500D01*
X75827D02*
X76000Y37327D01*
X55500Y47653D02*
Y47827D01*
Y47653D02*
X59827Y43327D01*
X53500Y37653D02*
X56500D01*
Y31327D02*
Y37653D01*
Y31000D02*
X59000Y28500D01*
X58846Y37653D02*
X59000Y37500D01*
X56500Y37653D02*
X58846D01*
X63000Y55327D02*
X64000D01*
X65500Y56827D01*
X58000Y52327D02*
X59654Y50673D01*
Y49827D02*
Y50673D01*
X59000Y25153D02*
X60500D01*
X62000Y26654D01*
X76000Y25153D02*
X77500D01*
X78500Y26153D01*
Y31480D01*
X62000Y31154D02*
X62000Y31154D01*
Y26654D02*
Y31154D01*
X59000Y34154D02*
X62000Y31154D01*
Y40327D01*
X76000Y33980D02*
X78500Y31480D01*
X78000Y40327D02*
X78500Y39827D01*
Y31480D02*
Y39827D01*
X62539Y40327D02*
X63173Y40961D01*
Y43327D01*
X73421Y44905D02*
X78000Y40327D01*
X73000Y44905D02*
X73421D01*
X53500Y28500D02*
Y34307D01*
X48000Y37327D02*
X53173D01*
X53500Y37653D01*
X48000Y25153D02*
X49065Y26219D01*
X50549D01*
X52830Y28500D01*
X53500D01*
X48000D02*
Y33980D01*
X48000Y33980D02*
X48000Y33980D01*
X70500Y28500D02*
Y34307D01*
X65000Y25153D02*
X65670D01*
X69016Y28500D01*
X70500D01*
X65000D02*
Y34154D01*
X69161Y62327D02*
X76740Y54748D01*
X69260D02*
X73681Y50327D01*
X78500D01*
X80000Y51827D01*
Y58327D01*
X76000Y62327D02*
X80000Y58327D01*
X59654Y54657D02*
X61363Y52947D01*
X62033D01*
X59654Y54657D02*
Y55327D01*
X63000Y49827D02*
X63173Y49654D01*
Y43327D02*
Y49654D01*
X62033Y52947D02*
X63000Y51980D01*
Y49827D02*
Y51980D01*
X21000Y37500D02*
X23827D01*
X21000Y31500D02*
Y37500D01*
X23827D02*
X24000Y37327D01*
X3500Y47653D02*
Y47827D01*
Y47653D02*
X7827Y43327D01*
X1500Y37653D02*
X4500D01*
Y31327D02*
Y37653D01*
Y31000D02*
X7000Y28500D01*
X6847Y37653D02*
X7000Y37500D01*
X4500Y37653D02*
X6847D01*
X11000Y55327D02*
X12000D01*
X13500Y56827D01*
X6000Y52327D02*
X7654Y50673D01*
Y49827D02*
Y50673D01*
X7000Y25153D02*
X8500D01*
X10000Y26654D01*
Y31154D01*
X24000Y25153D02*
X25500D01*
X26500Y26153D01*
Y31480D01*
X7000Y34154D02*
X10000Y31154D01*
X10000Y31154D01*
X10000Y31154D02*
Y40327D01*
X24000Y33980D02*
X26500Y31480D01*
Y39827D01*
X10539Y40327D02*
X11173Y40961D01*
Y43327D01*
X21421Y44905D02*
X26000Y40327D01*
X21000Y44905D02*
X21421D01*
X1500Y28500D02*
Y34307D01*
X-4000Y37327D02*
X1173D01*
X1500Y37653D01*
X-4000Y25153D02*
X-2935Y26219D01*
X-1451D01*
X830Y28500D01*
X1500D01*
X-4000D02*
Y33980D01*
X-4000Y33980D02*
X-4000Y33980D01*
X18500Y28500D02*
Y34307D01*
X13000Y25153D02*
X13670D01*
X17016Y28500D01*
X18500D01*
X13000D02*
Y34154D01*
X17161Y62327D02*
X24740Y54748D01*
X17260D02*
X21681Y50327D01*
X26500D01*
X28000Y51827D01*
Y58327D01*
X24000Y62327D02*
X28000Y58327D01*
X7654Y54657D02*
Y55327D01*
X9363Y52947D02*
X10033D01*
X11000Y49827D02*
Y51980D01*
X7654Y54657D02*
X9363Y52947D01*
X10033D02*
X11000Y51980D01*
X11173Y43327D02*
Y49654D01*
X11000Y49827D02*
X11173Y49654D01*
X-1000Y98520D02*
X1827D01*
X-1000Y92520D02*
Y98520D01*
X1827D02*
X2000Y98347D01*
X-18500Y108673D02*
Y108846D01*
Y108673D02*
X-14173Y104347D01*
X-20500Y98673D02*
X-17500D01*
Y92347D02*
Y98673D01*
Y92020D02*
X-15000Y89520D01*
X-15154Y98673D02*
X-15000Y98520D01*
X-17500Y98673D02*
X-15154D01*
X-11000Y116347D02*
X-10000D01*
X-8500Y117847D01*
X-10000Y128847D02*
X-7291Y126138D01*
Y123346D02*
Y126138D01*
X-17209Y123346D02*
Y128138D01*
X-16500Y128847D01*
X-16000Y113347D02*
X-14346Y111693D01*
Y110846D02*
Y111693D01*
X-15000Y86173D02*
X-13500D01*
X-12000Y87673D01*
Y92173D01*
X2000Y86173D02*
X3500D01*
X4500Y87173D01*
Y92500D01*
X-15000Y95173D02*
X-12000Y92173D01*
X-12000Y92173D01*
X-12000Y92173D02*
Y101347D01*
X2000Y95000D02*
X4500Y92500D01*
X4000Y101347D02*
X4500Y100847D01*
Y92500D02*
Y100847D01*
X-23000Y105425D02*
X-18921Y101347D01*
X-11461D02*
X-10827Y101980D01*
Y104347D01*
X-579Y105925D02*
X4000Y101347D01*
X-1000Y105925D02*
X-579D01*
X-20500Y89520D02*
Y95327D01*
X-26000Y98347D02*
X-20827D01*
X-20500Y98673D01*
X-26000Y86173D02*
X-24935Y87239D01*
X-23451D01*
X-21170Y89520D01*
X-20500D01*
X-26000D02*
Y95000D01*
X-26000Y95000D02*
X-26000Y95000D01*
X-3500Y89520D02*
Y95327D01*
X-9000Y86173D02*
X-8330D01*
X-4984Y89520D01*
X-3500D01*
X-9000D02*
Y95173D01*
X-19260Y115268D02*
Y121295D01*
X-17209Y123346D01*
X-26740Y115268D02*
Y123106D01*
X-26500Y123346D01*
X-4839D02*
X2740Y115768D01*
X-7291Y123346D02*
X-4839D01*
X-4740Y115768D02*
X-319Y111346D01*
X4500D01*
X6000Y112847D01*
Y119346D01*
X2000Y123346D02*
X6000Y119346D01*
X-14346Y115677D02*
X-12637Y113967D01*
X-11967D01*
X-11000Y110846D02*
Y113000D01*
X-14346Y115677D02*
Y116347D01*
X-11967Y113967D02*
X-11000Y113000D01*
X-10827Y104347D02*
Y110673D01*
X-11000Y110846D02*
X-10827Y110673D01*
X51000Y98673D02*
X53827D01*
X51000Y92673D02*
Y98673D01*
X53827D02*
X54000Y98500D01*
X33500Y108827D02*
Y109000D01*
Y108827D02*
X37827Y104500D01*
X31500Y98827D02*
X34500D01*
Y92500D02*
Y98827D01*
Y92173D02*
X37000Y89673D01*
X36847Y98827D02*
X37000Y98673D01*
X34500Y98827D02*
X36847D01*
X41000Y116500D02*
X42000D01*
X43500Y118000D01*
X36000Y113500D02*
X37653Y111846D01*
Y111000D02*
Y111846D01*
X40000Y92327D02*
X40000Y92327D01*
X54000Y86327D02*
X55500D01*
X56500Y87327D01*
Y92654D01*
X37000Y95327D02*
X40000Y92327D01*
Y101500D01*
X54000Y95153D02*
X56500Y92654D01*
Y101000D01*
X56000Y101500D02*
X56500Y101000D01*
X29000Y105579D02*
X33079Y101500D01*
X40539D02*
X41173Y102134D01*
Y104500D01*
X51421Y106079D02*
X56000Y101500D01*
X51000Y106079D02*
X51421D01*
X26000Y98500D02*
X31173D01*
X31500Y98827D01*
X26000Y86327D02*
X27065Y87392D01*
X28549D01*
X30830Y89673D01*
X31500D01*
X26000D02*
Y95153D01*
X26000Y95153D02*
X26000Y95153D01*
X48500Y89673D02*
Y95480D01*
X43000Y86327D02*
X43670D01*
X47016Y89673D01*
X48500D01*
X47161Y123500D02*
X54740Y115921D01*
X47260D02*
X51681Y111500D01*
X56500D01*
X58000Y113000D01*
Y119500D01*
X54000Y123500D02*
X58000Y119500D01*
X41173Y104500D02*
Y110827D01*
X37653Y115830D02*
X39363Y114120D01*
X40033D01*
X37653Y115830D02*
Y116500D01*
X41000Y111000D02*
X41173Y110827D01*
X40033Y114120D02*
X41000Y113154D01*
Y111000D02*
Y113154D01*
X102000Y98173D02*
X104827D01*
X102000Y92173D02*
Y98173D01*
X104827D02*
X105000Y98000D01*
X84500Y108327D02*
Y108500D01*
Y108327D02*
X88827Y104000D01*
X82500Y98327D02*
X85500D01*
Y92000D02*
Y98327D01*
Y91673D02*
X88000Y89173D01*
X87846Y98327D02*
X88000Y98173D01*
X85500Y98327D02*
X87846D01*
X92000Y116000D02*
X93000D01*
X94500Y117500D01*
X87000Y113000D02*
X88653Y111346D01*
Y110500D02*
Y111346D01*
X88000Y85827D02*
X89500D01*
X91000Y87327D01*
Y91827D01*
X105000Y85827D02*
X106500D01*
X107500Y86827D01*
Y92154D01*
X88000Y94827D02*
X91000Y91827D01*
X91000Y91827D01*
X91000Y91827D02*
Y101000D01*
X105000Y94653D02*
X107500Y92154D01*
Y100500D01*
X107000Y101000D02*
X107500Y100500D01*
X80000Y105079D02*
X84079Y101000D01*
X91539D02*
X92173Y101634D01*
Y104000D01*
X102421Y105579D02*
X107000Y101000D01*
X102000Y105579D02*
X102421D01*
X82500Y89173D02*
Y94980D01*
X77000Y98000D02*
X82173D01*
X82500Y98327D01*
X77000Y85827D02*
X78065Y86892D01*
X79549D01*
X81830Y89173D01*
X82500D01*
X77000D02*
Y94653D01*
X77000Y94653D02*
X77000Y94653D01*
X99500Y89173D02*
Y94980D01*
X94000Y85827D02*
X94670D01*
X98016Y89173D01*
X99500D01*
X94000D02*
Y94827D01*
X98161Y123000D02*
X105740Y115421D01*
X98260D02*
X102681Y111000D01*
X107500D01*
X109000Y112500D01*
Y119000D01*
X105000Y123000D02*
X109000Y119000D01*
X92173Y104000D02*
Y110327D01*
X88653Y115330D02*
X90363Y113620D01*
X91033D01*
X88653Y115330D02*
Y116000D01*
X92000Y110500D02*
X92173Y110327D01*
X91033Y113620D02*
X92000Y112654D01*
Y110500D02*
Y112654D01*
X90000Y0D02*
X94500Y4500D01*
X85000Y5000D02*
Y16000D01*
X80000Y0D02*
X85000Y5000D01*
X80000Y10000D02*
Y15000D01*
X75000Y14000D02*
X76000Y15000D01*
X75000Y5000D02*
Y14000D01*
X70000Y0D02*
X75000Y5000D01*
X70000Y10000D02*
Y24654D01*
X70500Y25153D01*
X59000Y21000D02*
X65000Y15000D01*
Y5000D02*
Y15000D01*
X60000Y0D02*
X65000Y5000D01*
X53500Y21500D02*
Y25153D01*
Y21500D02*
X60000Y15000D01*
Y10000D02*
Y15000D01*
X50000Y0D02*
X55000Y5000D01*
X31500Y89673D02*
Y95480D01*
X43000Y89673D02*
Y95327D01*
X37000Y86327D02*
X38500D01*
X40000Y87827D01*
Y92327D01*
X35500Y84827D02*
X37000Y86327D01*
X40000Y0D02*
X45500Y5500D01*
X40000Y10000D02*
Y15237D01*
X35000Y5000D02*
Y14153D01*
X30000Y0D02*
X35000Y5000D01*
X30000Y10000D02*
Y13500D01*
X18500Y25000D02*
X30000Y13500D01*
X18500Y25000D02*
Y25153D01*
X25000Y5000D02*
Y14000D01*
X20000Y0D02*
X25000Y5000D01*
X15000D02*
Y13000D01*
X10000Y0D02*
X15000Y5000D01*
X-10000Y82000D02*
X-7673D01*
X-3500Y86173D01*
X7000Y25153D02*
X10654Y21500D01*
X17500D02*
X25000Y14000D01*
X-14500Y77500D02*
X-10000Y82000D01*
X10000Y10000D02*
Y13500D01*
X0Y0D02*
X4500Y4500D01*
X80500Y47827D02*
X82000Y49327D01*
Y75500D01*
X77500Y80000D02*
X82000Y75500D01*
X76000Y80000D02*
X76500Y80500D01*
X151000Y62327D02*
Y66000D01*
X169500Y84500D01*
Y138500D01*
X156500Y123000D02*
Y129500D01*
X147000Y139000D02*
X156500Y129500D01*
X144500Y125000D02*
X146500Y123000D01*
X144500Y125000D02*
Y128500D01*
X146500Y123000D02*
X147209D01*
X149661D01*
X135240Y114921D02*
Y120949D01*
X137291Y123000D01*
Y127291D01*
X138000Y128000D01*
X127500Y62500D02*
Y75500D01*
X109000Y63209D02*
Y68000D01*
X108291Y62500D02*
X109000Y63209D01*
X106240Y54421D02*
Y60449D01*
X108291Y62500D01*
X98760Y54421D02*
Y62260D01*
X99000Y62500D01*
Y67500D01*
X115500Y84000D01*
X86000Y123209D02*
Y128500D01*
X85791Y123000D02*
X86000Y123209D01*
X83740Y114921D02*
Y120949D01*
X85791Y123000D01*
X105000D02*
Y135500D01*
X76000Y62327D02*
Y74500D01*
X68500Y82000D02*
X76000Y74500D01*
X47260Y54248D02*
Y62087D01*
X47500Y62327D01*
X64000Y78827D01*
X64000Y65000D02*
X66673Y62327D01*
X64000Y65000D02*
Y67827D01*
X66673Y62327D02*
X66709D01*
X69161D01*
X54740Y54248D02*
Y60276D01*
X56791Y62327D01*
X59000Y64535D01*
Y68000D01*
X4791Y65791D02*
X7000Y68000D01*
X4791Y62327D02*
Y65791D01*
X44709Y123500D02*
X47161D01*
X42000Y126209D02*
Y129000D01*
Y126209D02*
X44709Y123500D01*
X25260Y115421D02*
Y123260D01*
X25500Y123500D01*
X34791Y126291D02*
X37000Y128500D01*
X34791Y123500D02*
Y126291D01*
X32740Y115421D02*
Y121449D01*
X34791Y123500D01*
X2740Y54248D02*
Y60276D01*
X4791Y62327D01*
X-4740Y54248D02*
Y62087D01*
X-4500Y62327D01*
Y63000D01*
X12000Y64500D02*
X14173Y62327D01*
X12000Y64500D02*
Y67827D01*
X14173Y62327D02*
X14709D01*
X17161D01*
X24000D02*
Y72000D01*
X16000Y80000D02*
X24000Y72000D01*
X-26500Y123346D02*
Y159000D01*
X115500Y84000D02*
Y139500D01*
X101000D02*
X105000Y135500D01*
X187500Y126500D02*
X190500Y123500D01*
Y108500D02*
Y123500D01*
X120000Y83000D02*
X127500Y75500D01*
X120000Y83000D02*
Y138500D01*
X122000Y140500D01*
X115500Y64000D02*
X117000Y62500D01*
X115500Y64000D02*
Y68000D01*
X117000Y62500D02*
X118209D01*
X120661D01*
X25500Y123500D02*
Y136500D01*
X16000Y80000D02*
Y136500D01*
X43500Y137000D02*
X54000Y126500D01*
Y123500D02*
Y126500D01*
X68500Y82000D02*
Y136000D01*
X75500Y115681D02*
X76260Y114921D01*
X12160Y79659D02*
Y136160D01*
X-4500Y63000D02*
X12160Y79659D01*
X64000Y78827D02*
Y133000D01*
X63000Y134000D02*
X64000Y133000D01*
X63000Y134000D02*
Y136500D01*
X150760Y62087D02*
X151000Y62327D01*
X150760Y54248D02*
Y62087D01*
X93000Y124000D02*
X94000Y123000D01*
X93000Y124000D02*
Y128500D01*
X94000Y123000D02*
X95709D01*
X98161D01*
X13000Y37500D02*
X21000D01*
X21087Y31413D02*
X24000Y28500D01*
X168500Y37500D02*
X176500D01*
X176587Y31413D02*
X179500Y28500D01*
X65000Y37500D02*
X73000D01*
X73087Y31413D02*
X76000Y28500D01*
X116500Y37673D02*
X124500D01*
X124587Y31587D02*
X127500Y28673D01*
X-9000Y98520D02*
X-1000D01*
X-913Y92433D02*
X2000Y89520D01*
X75500Y115681D02*
Y137000D01*
X94000Y98173D02*
X102000D01*
X102087Y92087D02*
X105000Y89173D01*
X43000Y98673D02*
X51000D01*
X51087Y92587D02*
X54000Y89673D01*
X145500Y98173D02*
X153500D01*
X153587Y92087D02*
X156500Y89173D01*
X127760Y114921D02*
Y140000D01*
X176347Y22000D02*
X179500Y25153D01*
X-18500Y82673D02*
X-15000Y86173D01*
X50000Y10000D02*
Y13500D01*
X85000Y16000D02*
X87000Y18000D01*
Y84827D02*
X88000Y85827D01*
X125000Y11500D02*
X138500Y25000D01*
Y84827D02*
X139500Y85827D01*
X154000Y19500D02*
X157000Y22500D01*
Y25153D01*
X140000Y0D02*
X145000Y5000D01*
X-12000Y136000D02*
X-10654D01*
X2000Y123346D01*
G54D22*
X67416Y152000D02*
X68000Y152584D01*
X69400D02*
X69984Y152000D01*
X69400Y152584D02*
Y163500D01*
X73400Y167500D01*
X68000Y152584D02*
Y164080D01*
X72820Y168900D01*
X140400D01*
X154500Y183000D01*
X73400Y167500D02*
X140980D01*
X155490Y182010D01*
Y182010D01*
X155900Y182420D01*
Y193580D01*
X154500Y183000D02*
Y193000D01*
X153000Y194500D02*
X154500Y193000D01*
X153990Y195490D02*
X155900Y193580D01*
X153990Y195490D02*
X153990D01*
X153580Y195900D02*
X153990Y195490D01*
X150000Y190000D02*
Y190500D01*
X51000Y148657D02*
X51584Y149241D01*
X57580D01*
X51000Y151225D02*
X51584Y150641D01*
X57000D01*
X60000Y153641D01*
X57580Y149241D02*
X61400Y153061D01*
Y162900D01*
X71500Y173000D01*
X60000Y153641D02*
Y163480D01*
X70920Y174400D01*
X117400D01*
X71500Y173000D02*
X117980D01*
X123980Y179000D01*
X117400Y174400D02*
X123400Y180400D01*
X142000D01*
X144500Y182900D01*
Y191500D01*
X123980Y179000D02*
X142580D01*
X145900Y182320D01*
Y192080D01*
X142000Y194000D02*
X144500Y191500D01*
X142580Y195400D02*
X145900Y192080D01*
X140000Y200000D02*
X143500D01*
X147600Y195900D01*
X153580D01*
X149000Y194500D02*
X153000D01*
X147500Y193000D02*
X149000Y194500D01*
X147500Y193000D02*
X150000Y190500D01*
X130000Y200000D02*
X133500D01*
X138100Y195400D01*
X142580D01*
X138500Y194000D02*
X142000D01*
X137250Y192750D02*
X138500Y194000D01*
X137250Y192750D02*
X140000Y190000D01*
X46416Y146682D02*
X47000Y146098D01*
X42420Y146682D02*
X46416D01*
Y148082D02*
X47000Y148666D01*
X43000Y148082D02*
X46416D01*
X41500Y149582D02*
X43000Y148082D01*
X41500Y149582D02*
Y151000D01*
X40100Y149002D02*
X42420Y146682D01*
X41500Y151000D02*
X43000Y152500D01*
X40100Y149002D02*
Y151580D01*
X42420Y153900D01*
X45900D01*
X43000Y152500D02*
X46480D01*
X45900Y153900D02*
X54000Y162000D01*
X46480Y152500D02*
X55400Y161420D01*
Y165000D01*
X68900Y178500D01*
X54000Y162000D02*
Y165580D01*
X68320Y179900D01*
X89400D01*
X68900Y178500D02*
X89980D01*
X89400Y179900D02*
X94500Y185000D01*
X89980Y178500D02*
X95900Y184420D01*
X94500Y185000D02*
Y195500D01*
X90000Y200000D02*
X94500Y195500D01*
X47153Y159347D02*
Y160173D01*
X49990Y163010D01*
X45337Y161163D02*
X46163D01*
X49000Y164000D01*
Y169500D01*
X49990Y163010D02*
Y163010D01*
X50400Y163420D01*
Y168920D01*
X63980Y182500D01*
X49000Y169500D02*
X63400Y183900D01*
X81900D01*
X84000Y186000D01*
X63980Y182500D02*
X82480D01*
X84990Y185010D01*
Y185010D01*
X85400Y185420D01*
Y192500D01*
X84000Y186000D02*
Y196000D01*
X80000Y200000D02*
X84000Y196000D01*
X85400Y192500D02*
X87900Y190000D01*
X90000D01*
X14000Y156377D02*
X14584Y156961D01*
X17580D01*
X14000Y158946D02*
X14584Y158361D01*
X17000D01*
X44000Y185361D01*
X17580Y156961D02*
X45400Y184782D01*
Y194400D01*
X14416Y149284D02*
X15000Y148700D01*
X14416Y150684D02*
X15000Y151268D01*
X10500Y150684D02*
X14416D01*
X9000Y152184D02*
X10500Y150684D01*
X9920Y149284D02*
X14416D01*
X7600Y151604D02*
X9920Y149284D01*
X9000Y152184D02*
Y161000D01*
X7600Y151604D02*
Y161580D01*
X34000Y187980D01*
X9000Y161000D02*
X35400Y187400D01*
Y193900D01*
X36000Y194500D01*
X34000Y187980D02*
Y194480D01*
X35010Y195490D01*
X-9500Y146141D02*
X-8916Y146725D01*
X-4920D01*
X-9500Y148709D02*
X-8916Y148125D01*
X-5500D01*
X4500Y158125D01*
X-4920Y146725D02*
X5900Y157545D01*
Y193080D01*
X4500Y158125D02*
Y192500D01*
X2500Y194500D02*
X4500Y192500D01*
X3490Y195490D02*
X5900Y193080D01*
X3490Y195490D02*
X3490D01*
X3080Y195900D02*
X3490Y195490D01*
X-5900Y195900D02*
X3080D01*
X-10000Y200000D02*
X-5900Y195900D01*
X-11084Y161000D02*
X-10500Y161584D01*
Y172000D01*
X-9100Y161584D02*
X-8516Y161000D01*
X-9100Y161584D02*
Y172580D01*
X-15500Y177000D02*
X-10500Y172000D01*
X-14100Y177580D02*
X-9100Y172580D01*
X-15500Y177000D02*
Y195500D01*
X-20000Y200000D02*
X-15500Y195500D01*
X36000Y194500D02*
X37500D01*
X40000Y192000D01*
Y190000D02*
Y192000D01*
X30000Y200000D02*
X31500D01*
X35010Y196490D01*
Y195490D02*
Y196490D01*
X-10000Y190000D02*
Y192000D01*
X-12000Y194000D02*
X-10000Y192000D01*
X-14100Y194000D02*
X-12000D01*
X-14100Y177580D02*
Y194000D01*
X-3500Y194500D02*
X2500D01*
X-4500Y193500D02*
X-3500Y194500D01*
X-4500Y193500D02*
X-1000Y190000D01*
X79500Y153500D02*
X82236Y150764D01*
X79500Y153500D02*
Y155500D01*
Y157500D01*
X153764Y150764D02*
X154000Y151000D01*
Y157000D01*
X40000Y200000D02*
X44000Y196000D01*
Y185361D02*
Y196000D01*
X45400Y194400D02*
X47100D01*
X50000Y191500D01*
Y190000D02*
Y191500D01*
X100000Y190000D02*
Y193000D01*
X98000Y195000D02*
X100000Y193000D01*
X95900Y195000D02*
X98000D01*
X95900Y184420D02*
Y195000D01*
G54D23*
X200000Y200000D02*
D03*
X0Y0D02*
D03*
G54D24*
X200000Y190000D02*
D03*
X190000Y200000D02*
D03*
Y190000D02*
D03*
X180000Y200000D02*
D03*
Y190000D02*
D03*
X170000Y200000D02*
D03*
Y190000D02*
D03*
X160000Y200000D02*
D03*
Y190000D02*
D03*
X150000Y200000D02*
D03*
X140000Y190000D02*
D03*
X130000Y200000D02*
D03*
Y190000D02*
D03*
X120000Y200000D02*
D03*
Y190000D02*
D03*
X110000Y200000D02*
D03*
Y190000D02*
D03*
X100000Y200000D02*
D03*
Y190000D02*
D03*
X90000Y200000D02*
D03*
Y190000D02*
D03*
X80000Y200000D02*
D03*
Y190000D02*
D03*
X70000Y200000D02*
D03*
Y190000D02*
D03*
X60000Y200000D02*
D03*
Y190000D02*
D03*
X50000Y200000D02*
D03*
Y190000D02*
D03*
X40000Y200000D02*
D03*
Y190000D02*
D03*
X30000Y200000D02*
D03*
Y190000D02*
D03*
X20000Y200000D02*
D03*
Y190000D02*
D03*
X10000Y200000D02*
D03*
Y190000D02*
D03*
X0Y200000D02*
D03*
Y190000D02*
D03*
X-10000Y200000D02*
D03*
Y190000D02*
D03*
X-20000Y200000D02*
D03*
Y190000D02*
D03*
X-30000Y200000D02*
D03*
Y190000D02*
D03*
X-40000Y200000D02*
D03*
Y190000D02*
D03*
X140000Y200000D02*
D03*
X150000Y190000D02*
D03*
Y10000D02*
D03*
Y0D02*
D03*
X140000Y10000D02*
D03*
Y0D02*
D03*
X130000Y10000D02*
D03*
Y0D02*
D03*
X120000Y10000D02*
D03*
Y0D02*
D03*
X110000Y10000D02*
D03*
Y0D02*
D03*
X100000Y10000D02*
D03*
Y0D02*
D03*
X90000Y10000D02*
D03*
Y0D02*
D03*
X80000Y10000D02*
D03*
Y0D02*
D03*
X70000Y10000D02*
D03*
Y0D02*
D03*
X60000Y10000D02*
D03*
Y0D02*
D03*
X50000Y10000D02*
D03*
Y0D02*
D03*
X40000Y10000D02*
D03*
Y0D02*
D03*
X30000Y10000D02*
D03*
Y0D02*
D03*
X20000Y10000D02*
D03*
Y0D02*
D03*
X10000Y10000D02*
D03*
Y0D02*
D03*
X0Y10000D02*
D03*
G54D25*
X180000Y119000D02*
D03*
Y80500D02*
D03*
X96000Y76500D02*
D03*
X87000D02*
D03*
X31500Y156500D02*
D03*
X138500Y77000D02*
D03*
X148000D02*
D03*
X55000Y14500D02*
D03*
X59000Y21500D02*
D03*
X75500Y21000D02*
D03*
X106500Y16500D02*
D03*
X122500Y20500D02*
D03*
X162000Y8000D02*
D03*
X175500Y21500D02*
D03*
X161000Y20500D02*
D03*
X146000Y26500D02*
D03*
X138500D02*
D03*
X146000Y57500D02*
D03*
X138000D02*
D03*
X94500D02*
D03*
X87000D02*
D03*
X94500Y27000D02*
D03*
X87000D02*
D03*
X43000D02*
D03*
Y57500D02*
D03*
X46000Y78000D02*
D03*
X35500Y77500D02*
D03*
Y57500D02*
D03*
Y27000D02*
D03*
X27000Y22000D02*
D03*
X16500Y21000D02*
D03*
X14000Y14500D02*
D03*
X3500Y19500D02*
D03*
X-10500Y27000D02*
D03*
X-11000Y50000D02*
D03*
X-10500Y74000D02*
D03*
X-12000Y20000D02*
D03*
X-18500Y27500D02*
D03*
Y50000D02*
D03*
Y76500D02*
D03*
X-6177Y153823D02*
D03*
X30000Y143000D02*
D03*
X194500Y134500D02*
D03*
X202000Y162000D02*
D03*
X129000Y157000D02*
D03*
X152000Y41500D02*
D03*
X129500Y43000D02*
D03*
X97500Y40500D02*
D03*
X79500D02*
D03*
X46500D02*
D03*
X26500D02*
D03*
X-6000Y41000D02*
D03*
X160000Y31327D02*
D03*
X176500D02*
D03*
X161500Y52327D02*
D03*
X169000Y56827D02*
D03*
X161000Y67827D02*
D03*
X167500D02*
D03*
X159000Y47827D02*
D03*
X153500Y92000D02*
D03*
X136000Y108500D02*
D03*
X137000Y92000D02*
D03*
X146000Y117500D02*
D03*
X144500Y128500D02*
D03*
X138500Y113000D02*
D03*
X124500Y31500D02*
D03*
X107000Y48000D02*
D03*
X108000Y31500D02*
D03*
X117000Y57000D02*
D03*
X115500Y68000D02*
D03*
X109500Y52500D02*
D03*
X73000Y31327D02*
D03*
X55500Y47827D02*
D03*
X56500Y31327D02*
D03*
X65500Y56827D02*
D03*
X64000Y67827D02*
D03*
X58000Y52327D02*
D03*
X21000Y31327D02*
D03*
X3500Y47827D02*
D03*
X4500Y31327D02*
D03*
X13500Y56827D02*
D03*
X12000Y67827D02*
D03*
X6000Y52327D02*
D03*
X-1000Y92347D02*
D03*
X-18500Y108846D02*
D03*
X-17500Y92347D02*
D03*
X-8500Y117847D02*
D03*
X-10000Y128847D02*
D03*
X-16500D02*
D03*
X-16000Y113347D02*
D03*
X51000Y92500D02*
D03*
X33500Y109000D02*
D03*
X43500Y118000D02*
D03*
X42000Y129000D02*
D03*
X36000Y113500D02*
D03*
X102000Y92000D02*
D03*
X84500Y108500D02*
D03*
X85500Y92000D02*
D03*
X94500Y117500D02*
D03*
X93000Y128500D02*
D03*
X87000Y113000D02*
D03*
X34500Y92500D02*
D03*
X190500Y108500D02*
D03*
X193000Y48500D02*
D03*
X80500Y47827D02*
D03*
X76500Y80500D02*
D03*
X178500Y138000D02*
D03*
X169500Y138500D02*
D03*
X147000Y139000D02*
D03*
X138000Y128000D02*
D03*
X109000Y68000D02*
D03*
X86000Y128500D02*
D03*
X59000Y68000D02*
D03*
X7000D02*
D03*
X37000Y128500D02*
D03*
X-26500Y159000D02*
D03*
X115500Y139500D02*
D03*
X101000D02*
D03*
X187500Y126500D02*
D03*
X141500Y161000D02*
D03*
X83000Y161500D02*
D03*
X67416Y152000D02*
D03*
X69984D02*
D03*
X51000Y151225D02*
D03*
Y148657D02*
D03*
X47000Y146098D02*
D03*
Y148666D02*
D03*
X47153Y159347D02*
D03*
X45337Y161163D02*
D03*
X14000Y156377D02*
D03*
Y158946D02*
D03*
X15000Y151268D02*
D03*
Y148700D02*
D03*
X-8516Y161000D02*
D03*
X-9500Y148709D02*
D03*
Y146141D02*
D03*
X-11084Y161000D02*
D03*
X127760Y140000D02*
D03*
X122000Y140500D02*
D03*
X106500Y143000D02*
D03*
X163587Y143087D02*
D03*
X54000Y143500D02*
D03*
X-2000Y144000D02*
D03*
X106000Y154500D02*
D03*
X82236Y150764D02*
D03*
X153764D02*
D03*
X165500Y153500D02*
D03*
X-31500Y101347D02*
D03*
X8000D02*
D03*
X0D02*
D03*
X21000Y101500D02*
D03*
X60000D02*
D03*
X71500Y101000D02*
D03*
X111000D02*
D03*
X52500Y101500D02*
D03*
X103000Y101000D02*
D03*
X123000D02*
D03*
X162500D02*
D03*
X154500D02*
D03*
X185500Y40327D02*
D03*
X177500D02*
D03*
X125500Y40500D02*
D03*
X73500Y40327D02*
D03*
X21500D02*
D03*
X-12000Y136000D02*
D03*
X25500Y136500D02*
D03*
X16000D02*
D03*
X43500Y137000D02*
D03*
X68500Y136000D02*
D03*
X75500Y137000D02*
D03*
X12160Y136160D02*
D03*
X63000Y136500D02*
D03*
X74500Y159000D02*
D03*
X75110Y161390D02*
D03*
X32000Y161500D02*
D03*
X-24500Y164500D02*
D03*
G54D26*
X187000Y73000D02*
D03*
X183000Y132500D02*
D03*
X196500Y117000D02*
D03*
M02*
