G04 Layer_Color=65535*
%FSLAX25Y25*%
%MOIN*%
G70*
G01*
G75*
%ADD21C,0.01000*%
%ADD22C,0.00600*%
%ADD28C,0.01181*%
%ADD36C,0.00787*%
%ADD37C,0.00984*%
%ADD38C,0.00800*%
%ADD39R,0.53500X0.11500*%
G54D21*
X179650Y47268D02*
X182248D01*
Y50476D01*
X170752Y47268D02*
Y50476D01*
Y47268D02*
X173350D01*
X170752D02*
X173350D01*
X170752D02*
X173350D01*
X157650Y46768D02*
X160248D01*
Y49976D01*
X148752Y46768D02*
Y49976D01*
Y46768D02*
X151350D01*
X148752D02*
X151350D01*
X148752D02*
X151350D01*
X2150Y108287D02*
X4748D01*
Y111496D01*
X-6748Y108287D02*
Y111496D01*
Y108287D02*
X-4150D01*
X-6748D02*
X-4150D01*
X-6748D02*
X-4150D01*
X-19850Y107787D02*
X-17252D01*
Y110996D01*
X-28748Y107787D02*
Y110996D01*
Y107787D02*
X-26150D01*
X-28748D02*
X-26150D01*
X-28748D02*
X-26150D01*
X24150Y47268D02*
X26748D01*
Y50476D01*
X15252Y47268D02*
Y50476D01*
Y47268D02*
X17850D01*
X15252D02*
X17850D01*
X15252D02*
X17850D01*
X2150Y46768D02*
X4748D01*
Y49976D01*
X-6748Y46768D02*
Y49976D01*
Y46768D02*
X-4150D01*
X-6748D02*
X-4150D01*
X-6748D02*
X-4150D01*
X54150Y108441D02*
X56748D01*
Y111650D01*
X45252Y108441D02*
Y111650D01*
Y108441D02*
X47850D01*
X45252D02*
X47850D01*
X45252D02*
X47850D01*
X32150Y107941D02*
X34748D01*
Y111150D01*
X23252Y107941D02*
Y111150D01*
Y107941D02*
X25850D01*
X23252D02*
X25850D01*
X23252D02*
X25850D01*
X76150Y47268D02*
X78748D01*
Y50476D01*
X67252Y47268D02*
Y50476D01*
Y47268D02*
X69850D01*
X67252D02*
X69850D01*
X67252D02*
X69850D01*
X54150Y46768D02*
X56748D01*
Y49976D01*
X45252Y46768D02*
Y49976D01*
Y46768D02*
X47850D01*
X45252D02*
X47850D01*
X45252D02*
X47850D01*
X105150Y107941D02*
X107748D01*
Y111150D01*
X96252Y107941D02*
Y111150D01*
Y107941D02*
X98850D01*
X96252D02*
X98850D01*
X96252D02*
X98850D01*
X83150Y107441D02*
X85748D01*
Y110650D01*
X74252Y107441D02*
Y110650D01*
Y107441D02*
X76850D01*
X74252D02*
X76850D01*
X74252D02*
X76850D01*
X127650Y47441D02*
X130248D01*
Y50650D01*
X118752Y47441D02*
Y50650D01*
Y47441D02*
X121350D01*
X118752D02*
X121350D01*
X118752D02*
X121350D01*
X105650Y46941D02*
X108248D01*
Y50150D01*
X96752Y46941D02*
Y50150D01*
Y46941D02*
X99350D01*
X96752D02*
X99350D01*
X96752D02*
X99350D01*
X156650Y107941D02*
X159248D01*
Y111150D01*
X147752Y107941D02*
Y111150D01*
Y107941D02*
X150350D01*
X147752D02*
X150350D01*
X147752D02*
X150350D01*
X134650Y107441D02*
X137248D01*
Y110650D01*
X125752Y107441D02*
Y110650D01*
Y107441D02*
X128350D01*
X125752D02*
X128350D01*
X125752D02*
X128350D01*
G54D22*
X148501Y15000D02*
X151500D01*
Y16499D01*
X151000Y16999D01*
X149001D01*
X148501Y16499D01*
Y15000D01*
X149001Y17999D02*
X148501Y18499D01*
Y19499D01*
X149001Y19998D01*
X151000D01*
X151500Y19499D01*
Y18499D01*
X151000Y17999D01*
X149001D01*
X138501Y15000D02*
X141500D01*
Y16499D01*
X141000Y16999D01*
X139001D01*
X138501Y16499D01*
Y15000D01*
X141500Y17999D02*
Y18999D01*
Y18499D01*
X138501D01*
X139001Y17999D01*
X128501Y15000D02*
X131500D01*
Y16499D01*
X131000Y16999D01*
X129001D01*
X128501Y16499D01*
Y15000D01*
X131500Y19998D02*
Y17999D01*
X129501Y19998D01*
X129001D01*
X128501Y19499D01*
Y18499D01*
X129001Y17999D01*
X118501Y15000D02*
X121500D01*
Y16499D01*
X121000Y16999D01*
X119001D01*
X118501Y16499D01*
Y15000D01*
X119001Y17999D02*
X118501Y18499D01*
Y19499D01*
X119001Y19998D01*
X119501D01*
X120001Y19499D01*
Y18999D01*
Y19499D01*
X120500Y19998D01*
X121000D01*
X121500Y19499D01*
Y18499D01*
X121000Y17999D01*
X108501Y15000D02*
X111500D01*
Y16499D01*
X111000Y16999D01*
X109001D01*
X108501Y16499D01*
Y15000D01*
X111500Y19499D02*
X108501D01*
X110001Y17999D01*
Y19998D01*
X98501Y15000D02*
X101500D01*
Y16499D01*
X101000Y16999D01*
X99001D01*
X98501Y16499D01*
Y15000D01*
Y19998D02*
Y17999D01*
X100001D01*
X99501Y18999D01*
Y19499D01*
X100001Y19998D01*
X101000D01*
X101500Y19499D01*
Y18499D01*
X101000Y17999D01*
X88501Y15000D02*
X91500D01*
Y16499D01*
X91000Y16999D01*
X89001D01*
X88501Y16499D01*
Y15000D01*
Y19998D02*
X89001Y18999D01*
X90000Y17999D01*
X91000D01*
X91500Y18499D01*
Y19499D01*
X91000Y19998D01*
X90500D01*
X90000Y19499D01*
Y17999D01*
X78501Y15000D02*
X81500D01*
Y16499D01*
X81000Y16999D01*
X79001D01*
X78501Y16499D01*
Y15000D01*
Y17999D02*
Y19998D01*
X79001D01*
X81000Y17999D01*
X81500D01*
X68501Y15000D02*
X71500D01*
Y16499D01*
X71000Y16999D01*
X69001D01*
X68501Y16499D01*
Y15000D01*
X69001Y17999D02*
X68501Y18499D01*
Y19499D01*
X69001Y19998D01*
X69501D01*
X70000Y19499D01*
X70500Y19998D01*
X71000D01*
X71500Y19499D01*
Y18499D01*
X71000Y17999D01*
X70500D01*
X70000Y18499D01*
X69501Y17999D01*
X69001D01*
X70000Y18499D02*
Y19499D01*
X58501Y15000D02*
X61500D01*
Y16499D01*
X61000Y16999D01*
X59001D01*
X58501Y16499D01*
Y15000D01*
X61000Y17999D02*
X61500Y18499D01*
Y19499D01*
X61000Y19998D01*
X59001D01*
X58501Y19499D01*
Y18499D01*
X59001Y17999D01*
X59501D01*
X60000Y18499D01*
Y19998D01*
X48501Y14000D02*
X51500D01*
Y15499D01*
X51000Y15999D01*
X49001D01*
X48501Y15499D01*
Y14000D01*
X51500Y16999D02*
Y17999D01*
Y17499D01*
X48501D01*
X49001Y16999D01*
Y19498D02*
X48501Y19998D01*
Y20998D01*
X49001Y21498D01*
X51000D01*
X51500Y20998D01*
Y19998D01*
X51000Y19498D01*
X49001D01*
X38501Y14000D02*
X41500D01*
Y15499D01*
X41000Y15999D01*
X39001D01*
X38501Y15499D01*
Y14000D01*
X41500Y16999D02*
Y17999D01*
Y17499D01*
X38501D01*
X39001Y16999D01*
X41500Y19498D02*
Y20498D01*
Y19998D01*
X38501D01*
X39001Y19498D01*
X28501Y14000D02*
X31500D01*
Y15499D01*
X31000Y15999D01*
X29001D01*
X28501Y15499D01*
Y14000D01*
X31500Y16999D02*
Y17999D01*
Y17499D01*
X28501D01*
X29001Y16999D01*
X31500Y21498D02*
Y19498D01*
X29501Y21498D01*
X29001D01*
X28501Y20998D01*
Y19998D01*
X29001Y19498D01*
X18501Y14000D02*
X21500D01*
Y15499D01*
X21000Y15999D01*
X19001D01*
X18501Y15499D01*
Y14000D01*
X21500Y16999D02*
Y17999D01*
Y17499D01*
X18501D01*
X19001Y16999D01*
Y19498D02*
X18501Y19998D01*
Y20998D01*
X19001Y21498D01*
X19501D01*
X20000Y20998D01*
Y20498D01*
Y20998D01*
X20500Y21498D01*
X21000D01*
X21500Y20998D01*
Y19998D01*
X21000Y19498D01*
X8501Y14000D02*
X11500D01*
Y15499D01*
X11000Y15999D01*
X9001D01*
X8501Y15499D01*
Y14000D01*
X11500Y16999D02*
Y17999D01*
Y17499D01*
X8501D01*
X9001Y16999D01*
X11500Y20998D02*
X8501D01*
X10001Y19498D01*
Y21498D01*
X-1499Y14000D02*
X1500D01*
Y15499D01*
X1000Y15999D01*
X-999D01*
X-1499Y15499D01*
Y14000D01*
X1500Y16999D02*
Y17999D01*
Y17499D01*
X-1499D01*
X-999Y16999D01*
X-1499Y21498D02*
Y19498D01*
X0D01*
X-499Y20498D01*
Y20998D01*
X0Y21498D01*
X1000D01*
X1500Y20998D01*
Y19998D01*
X1000Y19498D01*
X157999Y999D02*
X157500Y1499D01*
X156500D01*
X156000Y999D01*
Y-1000D01*
X156500Y-1500D01*
X157500D01*
X157999Y-1000D01*
Y-0D01*
X157000D01*
X158999Y-1500D02*
Y1499D01*
X160998Y-1500D01*
Y1499D01*
X161998D02*
Y-1500D01*
X163498D01*
X163997Y-1000D01*
Y999D01*
X163498Y1499D01*
X161998D01*
X-12001Y999D02*
X-12501Y1499D01*
X-13500D01*
X-14000Y999D01*
Y-1000D01*
X-13500Y-1500D01*
X-12501D01*
X-12001Y-1000D01*
Y-0D01*
X-13000D01*
X-11001Y-1500D02*
Y1499D01*
X-9002Y-1500D01*
Y1499D01*
X-8002D02*
Y-1500D01*
X-6502D01*
X-6003Y-1000D01*
Y999D01*
X-6502Y1499D01*
X-8002D01*
X61000Y75000D02*
Y77999D01*
X62000Y76999D01*
X62999Y77999D01*
Y75000D01*
X65998Y77499D02*
X65499Y77999D01*
X64499D01*
X63999Y77499D01*
Y76999D01*
X64499Y76499D01*
X65499D01*
X65998Y76000D01*
Y75500D01*
X65499Y75000D01*
X64499D01*
X63999Y75500D01*
X68498Y77999D02*
X67498D01*
X66998Y77499D01*
Y75500D01*
X67498Y75000D01*
X68498D01*
X68997Y75500D01*
Y77499D01*
X68498Y77999D01*
X71996D02*
X69997D01*
Y76499D01*
X70997Y76999D01*
X71497D01*
X71996Y76499D01*
Y75500D01*
X71497Y75000D01*
X70497D01*
X69997Y75500D01*
X72996Y77499D02*
X73496Y77999D01*
X74496D01*
X74995Y77499D01*
Y75500D01*
X74496Y75000D01*
X73496D01*
X72996Y75500D01*
Y77499D01*
X75995D02*
X76495Y77999D01*
X77495D01*
X77995Y77499D01*
Y75500D01*
X77495Y75000D01*
X76495D01*
X75995Y75500D01*
Y77499D01*
X78994D02*
X79494Y77999D01*
X80494D01*
X80993Y77499D01*
Y75500D01*
X80494Y75000D01*
X79494D01*
X78994Y75500D01*
Y77499D01*
X84992Y77999D02*
Y75000D01*
X86992D01*
X87991D02*
Y76999D01*
X88991Y77999D01*
X89991Y76999D01*
Y75000D01*
Y76499D01*
X87991D01*
X93989Y75000D02*
Y77999D01*
X95489D01*
X95989Y77499D01*
Y76499D01*
X95489Y76000D01*
X93989D01*
X96988Y76999D02*
Y75000D01*
Y76000D01*
X97488Y76499D01*
X97988Y76999D01*
X98488D01*
X100487Y75000D02*
X101487D01*
X101987Y75500D01*
Y76499D01*
X101487Y76999D01*
X100487D01*
X99987Y76499D01*
Y75500D01*
X100487Y75000D01*
X102986Y77999D02*
Y75000D01*
X104486D01*
X104986Y75500D01*
Y76000D01*
Y76499D01*
X104486Y76999D01*
X102986D01*
X107485Y75000D02*
X106485D01*
X105985Y75500D01*
Y76499D01*
X106485Y76999D01*
X107485D01*
X107985Y76499D01*
Y76000D01*
X105985D01*
X113983Y75000D02*
X111984D01*
X113983Y76999D01*
Y77499D01*
X113483Y77999D01*
X112483D01*
X111984Y77499D01*
X114982D02*
X115482Y77999D01*
X116482D01*
X116982Y77499D01*
Y75500D01*
X116482Y75000D01*
X115482D01*
X114982Y75500D01*
Y77499D01*
X119981Y75000D02*
X117982D01*
X119981Y76999D01*
Y77499D01*
X119481Y77999D01*
X118481D01*
X117982Y77499D01*
X120981D02*
X121480Y77999D01*
X122480D01*
X122980Y77499D01*
Y75500D01*
X122480Y75000D01*
X121480D01*
X120981Y75500D01*
Y77499D01*
G54D28*
X-3500Y4500D02*
X154000D01*
Y-4000D02*
Y4500D01*
X-4000Y-4000D02*
X154000D01*
X-4000D02*
Y4500D01*
G54D36*
X192394Y132925D02*
X193507Y133386D01*
X193968Y134500D01*
X193968Y139500D02*
X193507Y140614D01*
X192394Y141075D01*
X181606Y141075D02*
X180493Y140614D01*
X180032Y139500D01*
X180032Y134500D02*
X180493Y133386D01*
X181606Y132925D01*
X200075Y130394D02*
X199614Y131507D01*
X198500Y131968D01*
X193500Y131968D02*
X192386Y131507D01*
X191925Y130394D01*
X191925Y119606D02*
X192386Y118493D01*
X193500Y118032D01*
X198500Y118032D02*
X199614Y118493D01*
X200075Y119606D01*
X160988Y53929D02*
X161854Y53063D01*
Y57591D02*
X160988Y56724D01*
X167799Y53063D02*
X168665Y53929D01*
Y56724D02*
X167799Y57591D01*
X-7602Y93008D02*
X-6736Y93874D01*
X-11264D02*
X-10398Y93008D01*
X-6736Y99819D02*
X-7602Y100685D01*
X-10398D02*
X-11264Y99819D01*
X3398Y92835D02*
X4264Y93701D01*
X-264D02*
X602Y92835D01*
X4264Y99646D02*
X3398Y100512D01*
X602D02*
X-264Y99646D01*
X-24602Y92835D02*
X-23736Y93701D01*
X-28264D02*
X-27398Y92835D01*
X-23736Y99646D02*
X-24602Y100512D01*
X-27398D02*
X-28264Y99646D01*
X-13602Y93008D02*
X-12736Y93874D01*
X-17264D02*
X-16398Y93008D01*
X-12736Y99819D02*
X-13602Y100685D01*
X-16398D02*
X-17264Y99819D01*
X-8661Y105744D02*
X-9528Y106610D01*
Y102083D02*
X-8661Y102949D01*
X-15472Y106610D02*
X-16339Y105744D01*
Y102949D02*
X-15472Y102083D01*
X-8835Y112244D02*
X-9701Y113110D01*
Y108583D02*
X-8835Y109449D01*
X-15646Y113110D02*
X-16512Y112244D01*
Y109449D02*
X-15646Y108583D01*
X-16512Y114949D02*
X-15646Y114083D01*
Y118610D02*
X-16512Y117744D01*
X-9701Y114083D02*
X-8835Y114949D01*
Y117744D02*
X-9701Y118610D01*
X14398Y31988D02*
X15264Y32854D01*
X10736D02*
X11602Y31988D01*
X15264Y38799D02*
X14398Y39665D01*
X11602D02*
X10736Y38799D01*
X25398Y31815D02*
X26264Y32681D01*
X21736D02*
X22602Y31815D01*
X26264Y38626D02*
X25398Y39492D01*
X22602D02*
X21736Y38626D01*
X-2602Y31815D02*
X-1736Y32681D01*
X-6264D02*
X-5398Y31815D01*
X-1736Y38626D02*
X-2602Y39492D01*
X-5398D02*
X-6264Y38626D01*
X8398Y31988D02*
X9264Y32854D01*
X4736D02*
X5602Y31988D01*
X9264Y38799D02*
X8398Y39665D01*
X5602D02*
X4736Y38799D01*
X13339Y44724D02*
X12472Y45591D01*
Y41063D02*
X13339Y41929D01*
X6527Y45591D02*
X5661Y44724D01*
Y41929D02*
X6527Y41063D01*
X13165Y51224D02*
X12299Y52091D01*
Y47563D02*
X13165Y48429D01*
X6354Y52091D02*
X5488Y51224D01*
Y48429D02*
X6354Y47563D01*
X5488Y53929D02*
X6354Y53063D01*
Y57591D02*
X5488Y56724D01*
X12299Y53063D02*
X13165Y53929D01*
Y56724D02*
X12299Y57591D01*
X44398Y93161D02*
X45264Y94028D01*
X40736D02*
X41602Y93161D01*
X45264Y99972D02*
X44398Y100839D01*
X41602D02*
X40736Y99972D01*
X55398Y92988D02*
X56264Y93854D01*
X51736D02*
X52602Y92988D01*
X56264Y99799D02*
X55398Y100665D01*
X52602D02*
X51736Y99799D01*
X27398Y92988D02*
X28264Y93854D01*
X23736D02*
X24602Y92988D01*
X28264Y99799D02*
X27398Y100665D01*
X24602D02*
X23736Y99799D01*
X38398Y93161D02*
X39264Y94028D01*
X34736D02*
X35602Y93161D01*
X39264Y99972D02*
X38398Y100839D01*
X35602D02*
X34736Y99972D01*
X43339Y105898D02*
X42472Y106764D01*
Y102236D02*
X43339Y103102D01*
X36528Y106764D02*
X35661Y105898D01*
Y103102D02*
X36528Y102236D01*
X43165Y112398D02*
X42299Y113264D01*
Y108736D02*
X43165Y109602D01*
X36354Y113264D02*
X35488Y112398D01*
Y109602D02*
X36354Y108736D01*
X35488Y115102D02*
X36354Y114236D01*
Y118764D02*
X35488Y117898D01*
X42299Y114236D02*
X43165Y115102D01*
Y117898D02*
X42299Y118764D01*
X66398Y31988D02*
X67264Y32854D01*
X62736D02*
X63602Y31988D01*
X67264Y38799D02*
X66398Y39665D01*
X63602D02*
X62736Y38799D01*
X77398Y31815D02*
X78264Y32681D01*
X73736D02*
X74602Y31815D01*
X78264Y38626D02*
X77398Y39492D01*
X74602D02*
X73736Y38626D01*
X49398Y31815D02*
X50264Y32681D01*
X45736D02*
X46602Y31815D01*
X50264Y38626D02*
X49398Y39492D01*
X46602D02*
X45736Y38626D01*
X60398Y31988D02*
X61264Y32854D01*
X56736D02*
X57602Y31988D01*
X61264Y38799D02*
X60398Y39665D01*
X57602D02*
X56736Y38799D01*
X65339Y44724D02*
X64472Y45591D01*
Y41063D02*
X65339Y41929D01*
X58527Y45591D02*
X57661Y44724D01*
Y41929D02*
X58527Y41063D01*
X65165Y51224D02*
X64299Y52091D01*
Y47563D02*
X65165Y48429D01*
X58354Y52091D02*
X57488Y51224D01*
Y48429D02*
X58354Y47563D01*
X57488Y53929D02*
X58354Y53063D01*
Y57591D02*
X57488Y56724D01*
X64299Y53063D02*
X65165Y53929D01*
Y56724D02*
X64299Y57591D01*
X95398Y92661D02*
X96264Y93528D01*
X91736D02*
X92602Y92661D01*
X96264Y99472D02*
X95398Y100339D01*
X92602D02*
X91736Y99472D01*
X106398Y92488D02*
X107264Y93354D01*
X102736D02*
X103602Y92488D01*
X107264Y99299D02*
X106398Y100165D01*
X103602D02*
X102736Y99299D01*
X78398Y92488D02*
X79264Y93354D01*
X74736D02*
X75602Y92488D01*
X79264Y99299D02*
X78398Y100165D01*
X75602D02*
X74736Y99299D01*
X89398Y92661D02*
X90264Y93528D01*
X85736D02*
X86602Y92661D01*
X90264Y99472D02*
X89398Y100339D01*
X86602D02*
X85736Y99472D01*
X94339Y105398D02*
X93472Y106264D01*
Y101736D02*
X94339Y102602D01*
X87528Y106264D02*
X86661Y105398D01*
Y102602D02*
X87528Y101736D01*
X94165Y111898D02*
X93299Y112764D01*
Y108236D02*
X94165Y109102D01*
X87354Y112764D02*
X86488Y111898D01*
Y109102D02*
X87354Y108236D01*
X86488Y114602D02*
X87354Y113736D01*
Y118264D02*
X86488Y117398D01*
X93299Y113736D02*
X94165Y114602D01*
Y117398D02*
X93299Y118264D01*
X117898Y32161D02*
X118764Y33027D01*
X114236D02*
X115102Y32161D01*
X118764Y38972D02*
X117898Y39839D01*
X115102D02*
X114236Y38972D01*
X128898Y31988D02*
X129764Y32854D01*
X125236D02*
X126102Y31988D01*
X129764Y38799D02*
X128898Y39665D01*
X126102D02*
X125236Y38799D01*
X100898Y31988D02*
X101764Y32854D01*
X97236D02*
X98102Y31988D01*
X101764Y38799D02*
X100898Y39665D01*
X98102D02*
X97236Y38799D01*
X111898Y32161D02*
X112764Y33027D01*
X108236D02*
X109102Y32161D01*
X112764Y38972D02*
X111898Y39839D01*
X109102D02*
X108236Y38972D01*
X116839Y44898D02*
X115972Y45764D01*
Y41236D02*
X116839Y42102D01*
X110028Y45764D02*
X109161Y44898D01*
Y42102D02*
X110028Y41236D01*
X116665Y51398D02*
X115799Y52264D01*
Y47736D02*
X116665Y48602D01*
X109854Y52264D02*
X108988Y51398D01*
Y48602D02*
X109854Y47736D01*
X108988Y54102D02*
X109854Y53236D01*
Y57764D02*
X108988Y56898D01*
X115799Y53236D02*
X116665Y54102D01*
Y56898D02*
X115799Y57764D01*
X146898Y92661D02*
X147764Y93528D01*
X143236D02*
X144102Y92661D01*
X147764Y99472D02*
X146898Y100339D01*
X144102D02*
X143236Y99472D01*
X157898Y92488D02*
X158764Y93354D01*
X154236D02*
X155102Y92488D01*
X158764Y99299D02*
X157898Y100165D01*
X155102D02*
X154236Y99299D01*
X129898Y92488D02*
X130764Y93354D01*
X126236D02*
X127102Y92488D01*
X130764Y99299D02*
X129898Y100165D01*
X127102D02*
X126236Y99299D01*
X140898Y92661D02*
X141764Y93528D01*
X137236D02*
X138102Y92661D01*
X141764Y99472D02*
X140898Y100339D01*
X138102D02*
X137236Y99472D01*
X145839Y105398D02*
X144972Y106264D01*
Y101736D02*
X145839Y102602D01*
X139028Y106264D02*
X138161Y105398D01*
Y102602D02*
X139028Y101736D01*
X145665Y111898D02*
X144799Y112764D01*
Y108236D02*
X145665Y109102D01*
X138854Y112764D02*
X137988Y111898D01*
Y109102D02*
X138854Y108236D01*
X137988Y114602D02*
X138854Y113736D01*
Y118264D02*
X137988Y117398D01*
X144799Y113736D02*
X145665Y114602D01*
Y117398D02*
X144799Y118264D01*
X169898Y31988D02*
X170764Y32854D01*
X166236D02*
X167102Y31988D01*
X170764Y38799D02*
X169898Y39665D01*
X167102D02*
X166236Y38799D01*
X180898Y31815D02*
X181764Y32681D01*
X177236D02*
X178102Y31815D01*
X181764Y38626D02*
X180898Y39492D01*
X178102D02*
X177236Y38626D01*
X152898Y31815D02*
X153764Y32681D01*
X149236D02*
X150102Y31815D01*
X153764Y38626D02*
X152898Y39492D01*
X150102D02*
X149236Y38626D01*
X163898Y31988D02*
X164764Y32854D01*
X160236D02*
X161102Y31988D01*
X164764Y38799D02*
X163898Y39665D01*
X161102D02*
X160236Y38799D01*
X168839Y44724D02*
X167972Y45591D01*
Y41063D02*
X168839Y41929D01*
X162028Y45591D02*
X161161Y44724D01*
Y41929D02*
X162028Y41063D01*
X168665Y51224D02*
X167799Y52091D01*
Y47563D02*
X168665Y48429D01*
X161854Y52091D02*
X160988Y51224D01*
Y48429D02*
X161854Y47563D01*
X-15102Y155661D02*
X-14236Y156528D01*
X-18764D02*
X-17898Y155661D01*
X-14236Y162472D02*
X-15102Y163339D01*
X-17898D02*
X-18764Y162472D01*
X-21102Y155661D02*
X-20236Y156528D01*
X-24764D02*
X-23898Y155661D01*
X-20236Y162472D02*
X-21102Y163339D01*
X-23898D02*
X-24764Y162472D01*
X37398Y155661D02*
X38264Y156528D01*
X33736D02*
X34602Y155661D01*
X38264Y162472D02*
X37398Y163339D01*
X34602D02*
X33736Y162472D01*
X29398Y155661D02*
X30264Y156528D01*
X25736D02*
X26602Y155661D01*
X30264Y162472D02*
X29398Y163339D01*
X26602D02*
X25736Y162472D01*
X87898Y155335D02*
X88764Y156201D01*
X84236D02*
X85102Y155335D01*
X88764Y162146D02*
X87898Y163012D01*
X85102D02*
X84236Y162146D01*
X80898Y155335D02*
X81764Y156201D01*
X77236D02*
X78102Y155335D01*
X81764Y162146D02*
X80898Y163012D01*
X78102D02*
X77236Y162146D01*
X146398Y155335D02*
X147264Y156201D01*
X142736D02*
X143602Y155335D01*
X147264Y162146D02*
X146398Y163012D01*
X143602D02*
X142736Y162146D01*
X139898Y155335D02*
X140764Y156201D01*
X136236D02*
X137102Y155335D01*
X140764Y162146D02*
X139898Y163012D01*
X137102D02*
X136236Y162146D01*
X183925Y145965D02*
X184386Y144851D01*
X185500Y144390D01*
X185500Y150610D02*
X184386Y150149D01*
X183925Y149035D01*
X196012Y149035D02*
X195551Y150149D01*
X194437Y150610D01*
Y144390D02*
X195551Y144851D01*
X196012Y145965D01*
X195894Y167425D02*
X197007Y167886D01*
X197468Y169000D01*
X197468Y174000D02*
X197007Y175114D01*
X195894Y175575D01*
X185106Y175575D02*
X183993Y175114D01*
X183531Y174000D01*
X183531Y169000D02*
X183993Y167886D01*
X185106Y167425D01*
X193968Y134500D02*
Y139500D01*
X188772Y141075D02*
X192394D01*
X180032Y134500D02*
Y139500D01*
X181606Y141075D02*
X185228D01*
X181606Y132925D02*
X185228D01*
X188772D02*
X192394D01*
X193500Y131968D02*
X198500D01*
X191925Y126772D02*
Y130394D01*
X193500Y118032D02*
X198500D01*
X191925Y119606D02*
Y123228D01*
X200075Y119606D02*
Y123228D01*
Y126772D02*
Y130394D01*
X160988Y53929D02*
Y56724D01*
X161874Y53063D02*
X163646D01*
X161874Y57591D02*
X163646D01*
X166008Y53063D02*
X167780D01*
X166008Y57591D02*
X167780D01*
X168665Y53929D02*
Y56724D01*
X175319Y53370D02*
X177681D01*
X153319Y52870D02*
X155681D01*
X173280Y59965D02*
X176429D01*
X173280Y64689D02*
X176429D01*
X175366Y59965D02*
Y64689D01*
X176429Y59965D02*
Y64689D01*
X173280Y59965D02*
Y64689D01*
X154071D02*
X157220D01*
X154071Y59965D02*
X157220D01*
X155134D02*
Y64689D01*
X154071Y59965D02*
Y64689D01*
X157220Y59965D02*
Y64689D01*
X-10398Y93008D02*
X-7602D01*
X-6736Y93894D02*
Y95665D01*
X-11264Y93894D02*
Y95665D01*
X-6736Y98027D02*
Y99799D01*
X-11264Y98027D02*
Y99799D01*
X-10398Y100685D02*
X-7602D01*
X-6736Y89028D02*
Y91685D01*
Y84008D02*
Y86665D01*
X-11264Y89028D02*
Y91685D01*
Y84008D02*
Y86665D01*
Y91685D02*
X-6736D01*
X-11264Y84008D02*
X-6736D01*
X-4220Y120984D02*
X-1071D01*
X-4220Y125709D02*
X-1071D01*
X-2134Y120984D02*
Y125709D01*
X-1071Y120984D02*
Y125709D01*
X-4220Y120984D02*
Y125709D01*
X-1236Y98181D02*
Y100839D01*
Y93161D02*
Y95819D01*
X-5764Y98181D02*
Y100839D01*
Y93161D02*
Y95819D01*
Y100839D02*
X-1236D01*
X-5764Y93161D02*
X-1236D01*
Y89028D02*
Y91685D01*
Y84008D02*
Y86665D01*
X-5764Y89028D02*
Y91685D01*
Y84008D02*
Y86665D01*
Y91685D02*
X-1236D01*
X-5764Y84008D02*
X-1236D01*
X-2181Y114390D02*
X181D01*
X602Y92835D02*
X3398D01*
X4264Y93721D02*
Y95492D01*
X-264Y93721D02*
Y95492D01*
X4264Y97854D02*
Y99626D01*
X-264Y97854D02*
Y99626D01*
X602Y100512D02*
X3398D01*
X4264Y89028D02*
Y91685D01*
Y84008D02*
Y86665D01*
X-264Y89028D02*
Y91685D01*
Y84008D02*
Y86665D01*
Y91685D02*
X4264D01*
X-264Y84008D02*
X4264D01*
X-27398Y92835D02*
X-24602D01*
X-23736Y93721D02*
Y95492D01*
X-28264Y93721D02*
Y95492D01*
X-23736Y97854D02*
Y99626D01*
X-28264Y97854D02*
Y99626D01*
X-27398Y100512D02*
X-24602D01*
X-23736Y89028D02*
Y91685D01*
Y84008D02*
Y86665D01*
X-28264Y89028D02*
Y91685D01*
Y84008D02*
Y86665D01*
Y91685D02*
X-23736D01*
X-28264Y84008D02*
X-23736D01*
X-23429Y125709D02*
X-20279D01*
X-23429Y120984D02*
X-20279D01*
X-22366D02*
Y125709D01*
X-23429Y120984D02*
Y125709D01*
X-20279Y120984D02*
Y125709D01*
X-18236Y98181D02*
Y100839D01*
Y93161D02*
Y95819D01*
X-22764Y98181D02*
Y100839D01*
Y93161D02*
Y95819D01*
Y100839D02*
X-18236D01*
X-22764Y93161D02*
X-18236D01*
Y89028D02*
Y91685D01*
Y84008D02*
Y86665D01*
X-22764Y89028D02*
Y91685D01*
Y84008D02*
Y86665D01*
Y91685D02*
X-18236D01*
X-22764Y84008D02*
X-18236D01*
X-24181Y113890D02*
X-21819D01*
X-16398Y93008D02*
X-13602D01*
X-12736Y93894D02*
Y95665D01*
X-17264Y93894D02*
Y95665D01*
X-12736Y98027D02*
Y99799D01*
X-17264Y98027D02*
Y99799D01*
X-16398Y100685D02*
X-13602D01*
X-12736Y89028D02*
Y91685D01*
Y84008D02*
Y86665D01*
X-17264Y89028D02*
Y91685D01*
Y84008D02*
Y86665D01*
Y91685D02*
X-12736D01*
X-17264Y84008D02*
X-12736D01*
X-8661Y102949D02*
Y105744D01*
X-11319Y106610D02*
X-9547D01*
X-11319Y102083D02*
X-9547D01*
X-15453Y106610D02*
X-13681D01*
X-15453Y102083D02*
X-13681D01*
X-16339Y102949D02*
Y105744D01*
X-8835Y109449D02*
Y112244D01*
X-11492Y113110D02*
X-9720D01*
X-11492Y108583D02*
X-9720D01*
X-15626Y113110D02*
X-13854D01*
X-15626Y108583D02*
X-13854D01*
X-16512Y109449D02*
Y112244D01*
Y114949D02*
Y117744D01*
X-15626Y114083D02*
X-13854D01*
X-15626Y118610D02*
X-13854D01*
X-11492Y114083D02*
X-9720D01*
X-11492Y118610D02*
X-9720D01*
X-8835Y114949D02*
Y117744D01*
X11602Y31988D02*
X14398D01*
X15264Y32874D02*
Y34646D01*
X10736Y32874D02*
Y34646D01*
X15264Y37008D02*
Y38780D01*
X10736Y37008D02*
Y38780D01*
X11602Y39665D02*
X14398D01*
X15264Y28008D02*
Y30665D01*
Y22988D02*
Y25646D01*
X10736Y28008D02*
Y30665D01*
Y22988D02*
Y25646D01*
Y30665D02*
X15264D01*
X10736Y22988D02*
X15264D01*
X17779Y59965D02*
X20929D01*
X17779Y64689D02*
X20929D01*
X19866Y59965D02*
Y64689D01*
X20929Y59965D02*
Y64689D01*
X17779Y59965D02*
Y64689D01*
X20764Y37161D02*
Y39819D01*
Y32142D02*
Y34799D01*
X16236Y37161D02*
Y39819D01*
Y32142D02*
Y34799D01*
Y39819D02*
X20764D01*
X16236Y32142D02*
X20764D01*
Y28008D02*
Y30665D01*
Y22988D02*
Y25646D01*
X16236Y28008D02*
Y30665D01*
Y22988D02*
Y25646D01*
Y30665D02*
X20764D01*
X16236Y22988D02*
X20764D01*
X19819Y53370D02*
X22181D01*
X22602Y31815D02*
X25398D01*
X26264Y32701D02*
Y34473D01*
X21736Y32701D02*
Y34472D01*
X26264Y36835D02*
Y38606D01*
X21736Y36835D02*
Y38606D01*
X22602Y39492D02*
X25398D01*
X26264Y28008D02*
Y30665D01*
Y22988D02*
Y25646D01*
X21736Y28008D02*
Y30665D01*
Y22988D02*
Y25646D01*
Y30665D02*
X26264D01*
X21736Y22988D02*
X26264D01*
X-5398Y31815D02*
X-2602D01*
X-1736Y32701D02*
Y34473D01*
X-6264Y32701D02*
Y34472D01*
X-1736Y36835D02*
Y38606D01*
X-6264Y36835D02*
Y38606D01*
X-5398Y39492D02*
X-2602D01*
X-1736Y28008D02*
Y30665D01*
Y22988D02*
Y25646D01*
X-6264Y28008D02*
Y30665D01*
Y22988D02*
Y25646D01*
Y30665D02*
X-1736D01*
X-6264Y22988D02*
X-1736D01*
X-1429Y64689D02*
X1720D01*
X-1429Y59965D02*
X1720D01*
X-366D02*
Y64689D01*
X-1429Y59965D02*
Y64689D01*
X1720Y59965D02*
Y64689D01*
X3764Y37161D02*
Y39819D01*
Y32142D02*
Y34799D01*
X-764Y37161D02*
Y39819D01*
Y32142D02*
Y34799D01*
Y39819D02*
X3764D01*
X-764Y32142D02*
X3764D01*
Y28008D02*
Y30665D01*
Y22988D02*
Y25646D01*
X-764Y28008D02*
Y30665D01*
Y22988D02*
Y25646D01*
Y30665D02*
X3764D01*
X-764Y22988D02*
X3764D01*
X-2181Y52870D02*
X181D01*
X5602Y31988D02*
X8398D01*
X9264Y32874D02*
Y34646D01*
X4736Y32874D02*
Y34646D01*
X9264Y37008D02*
Y38780D01*
X4736Y37008D02*
Y38780D01*
X5602Y39665D02*
X8398D01*
X9264Y28008D02*
Y30665D01*
Y22988D02*
Y25646D01*
X4736Y28008D02*
Y30665D01*
Y22988D02*
Y25646D01*
Y30665D02*
X9264D01*
X4736Y22988D02*
X9264D01*
X13339Y41929D02*
Y44724D01*
X10681Y45591D02*
X12453D01*
X10681Y41063D02*
X12453D01*
X6547Y45591D02*
X8319D01*
X6547Y41063D02*
X8319D01*
X5661Y41929D02*
Y44724D01*
X13165Y48429D02*
Y51224D01*
X10508Y52091D02*
X12280D01*
X10508Y47563D02*
X12280D01*
X6374Y52091D02*
X8146D01*
X6374Y47563D02*
X8146D01*
X5488Y48429D02*
Y51224D01*
Y53929D02*
Y56724D01*
X6374Y53063D02*
X8146D01*
X6374Y57591D02*
X8146D01*
X10508Y53063D02*
X12280D01*
X10508Y57591D02*
X12280D01*
X13165Y53929D02*
Y56724D01*
X41602Y93161D02*
X44398D01*
X45264Y94047D02*
Y95819D01*
X40736Y94047D02*
Y95819D01*
X45264Y98181D02*
Y99953D01*
X40736Y98181D02*
Y99953D01*
X41602Y100839D02*
X44398D01*
X45264Y89181D02*
Y91839D01*
Y84161D02*
Y86819D01*
X40736Y89181D02*
Y91839D01*
Y84161D02*
Y86819D01*
Y91839D02*
X45264D01*
X40736Y84161D02*
X45264D01*
X47780Y121138D02*
X50929D01*
X47780Y125862D02*
X50929D01*
X49866Y121138D02*
Y125862D01*
X50929Y121138D02*
Y125862D01*
X47780Y121138D02*
Y125862D01*
X50764Y98335D02*
Y100992D01*
Y93315D02*
Y95972D01*
X46236Y98335D02*
Y100992D01*
Y93315D02*
Y95972D01*
Y100992D02*
X50764D01*
X46236Y93315D02*
X50764D01*
Y89181D02*
Y91839D01*
Y84161D02*
Y86819D01*
X46236Y89181D02*
Y91839D01*
Y84161D02*
Y86819D01*
Y91839D02*
X50764D01*
X46236Y84161D02*
X50764D01*
X49819Y114543D02*
X52181D01*
X52602Y92988D02*
X55398D01*
X56264Y93874D02*
Y95646D01*
X51736Y93874D02*
Y95646D01*
X56264Y98008D02*
Y99779D01*
X51736Y98008D02*
Y99779D01*
X52602Y100665D02*
X55398D01*
X56264Y89181D02*
Y91839D01*
Y84161D02*
Y86819D01*
X51736Y89181D02*
Y91839D01*
Y84161D02*
Y86819D01*
Y91839D02*
X56264D01*
X51736Y84161D02*
X56264D01*
X24602Y92988D02*
X27398D01*
X28264Y93874D02*
Y95646D01*
X23736Y93874D02*
Y95646D01*
X28264Y98008D02*
Y99779D01*
X23736Y98008D02*
Y99779D01*
X24602Y100665D02*
X27398D01*
X28264Y89181D02*
Y91839D01*
Y84161D02*
Y86819D01*
X23736Y89181D02*
Y91839D01*
Y84161D02*
Y86819D01*
Y91839D02*
X28264D01*
X23736Y84161D02*
X28264D01*
X28571Y125862D02*
X31721D01*
X28571Y121138D02*
X31721D01*
X29634D02*
Y125862D01*
X28571Y121138D02*
Y125862D01*
X31721Y121138D02*
Y125862D01*
X33764Y98335D02*
Y100992D01*
Y93315D02*
Y95972D01*
X29236Y98335D02*
Y100992D01*
Y93315D02*
Y95972D01*
Y100992D02*
X33764D01*
X29236Y93315D02*
X33764D01*
Y89181D02*
Y91839D01*
Y84161D02*
Y86819D01*
X29236Y89181D02*
Y91839D01*
Y84161D02*
Y86819D01*
Y91839D02*
X33764D01*
X29236Y84161D02*
X33764D01*
X27819Y114043D02*
X30181D01*
X35602Y93161D02*
X38398D01*
X39264Y94047D02*
Y95819D01*
X34736Y94047D02*
Y95819D01*
X39264Y98181D02*
Y99953D01*
X34736Y98181D02*
Y99953D01*
X35602Y100839D02*
X38398D01*
X39264Y89181D02*
Y91839D01*
Y84161D02*
Y86819D01*
X34736Y89181D02*
Y91839D01*
Y84161D02*
Y86819D01*
Y91839D02*
X39264D01*
X34736Y84161D02*
X39264D01*
X43339Y103102D02*
Y105898D01*
X40681Y106764D02*
X42453D01*
X40681Y102236D02*
X42453D01*
X36547Y106764D02*
X38319D01*
X36547Y102236D02*
X38319D01*
X35661Y103102D02*
Y105898D01*
X43165Y109602D02*
Y112398D01*
X40508Y113264D02*
X42279D01*
X40508Y108736D02*
X42279D01*
X36374Y113264D02*
X38146D01*
X36374Y108736D02*
X38146D01*
X35488Y109602D02*
Y112398D01*
Y115102D02*
Y117898D01*
X36374Y114236D02*
X38146D01*
X36374Y118764D02*
X38146D01*
X40508Y114236D02*
X42279D01*
X40508Y118764D02*
X42279D01*
X43165Y115102D02*
Y117898D01*
X63602Y31988D02*
X66398D01*
X67264Y32874D02*
Y34646D01*
X62736Y32874D02*
Y34646D01*
X67264Y37008D02*
Y38780D01*
X62736Y37008D02*
Y38780D01*
X63602Y39665D02*
X66398D01*
X67264Y28008D02*
Y30665D01*
Y22988D02*
Y25646D01*
X62736Y28008D02*
Y30665D01*
Y22988D02*
Y25646D01*
Y30665D02*
X67264D01*
X62736Y22988D02*
X67264D01*
X69779Y59965D02*
X72929D01*
X69779Y64689D02*
X72929D01*
X71866Y59965D02*
Y64689D01*
X72929Y59965D02*
Y64689D01*
X69779Y59965D02*
Y64689D01*
X72764Y37161D02*
Y39819D01*
Y32142D02*
Y34799D01*
X68236Y37161D02*
Y39819D01*
Y32142D02*
Y34799D01*
Y39819D02*
X72764D01*
X68236Y32142D02*
X72764D01*
Y28008D02*
Y30665D01*
Y22988D02*
Y25646D01*
X68236Y28008D02*
Y30665D01*
Y22988D02*
Y25646D01*
Y30665D02*
X72764D01*
X68236Y22988D02*
X72764D01*
X71819Y53370D02*
X74181D01*
X74602Y31815D02*
X77398D01*
X78264Y32701D02*
Y34473D01*
X73736Y32701D02*
Y34472D01*
X78264Y36835D02*
Y38606D01*
X73736Y36835D02*
Y38606D01*
X74602Y39492D02*
X77398D01*
X78264Y28008D02*
Y30665D01*
Y22988D02*
Y25646D01*
X73736Y28008D02*
Y30665D01*
Y22988D02*
Y25646D01*
Y30665D02*
X78264D01*
X73736Y22988D02*
X78264D01*
X46602Y31815D02*
X49398D01*
X50264Y32701D02*
Y34473D01*
X45736Y32701D02*
Y34472D01*
X50264Y36835D02*
Y38606D01*
X45736Y36835D02*
Y38606D01*
X46602Y39492D02*
X49398D01*
X50264Y28008D02*
Y30665D01*
Y22988D02*
Y25646D01*
X45736Y28008D02*
Y30665D01*
Y22988D02*
Y25646D01*
Y30665D02*
X50264D01*
X45736Y22988D02*
X50264D01*
X50571Y64689D02*
X53720D01*
X50571Y59965D02*
X53720D01*
X51634D02*
Y64689D01*
X50571Y59965D02*
Y64689D01*
X53720Y59965D02*
Y64689D01*
X55764Y37161D02*
Y39819D01*
Y32142D02*
Y34799D01*
X51236Y37161D02*
Y39819D01*
Y32142D02*
Y34799D01*
Y39819D02*
X55764D01*
X51236Y32142D02*
X55764D01*
Y28008D02*
Y30665D01*
Y22988D02*
Y25646D01*
X51236Y28008D02*
Y30665D01*
Y22988D02*
Y25646D01*
Y30665D02*
X55764D01*
X51236Y22988D02*
X55764D01*
X49819Y52870D02*
X52181D01*
X57602Y31988D02*
X60398D01*
X61264Y32874D02*
Y34646D01*
X56736Y32874D02*
Y34646D01*
X61264Y37008D02*
Y38780D01*
X56736Y37008D02*
Y38780D01*
X57602Y39665D02*
X60398D01*
X61264Y28008D02*
Y30665D01*
Y22988D02*
Y25646D01*
X56736Y28008D02*
Y30665D01*
Y22988D02*
Y25646D01*
Y30665D02*
X61264D01*
X56736Y22988D02*
X61264D01*
X65338Y41929D02*
Y44724D01*
X62681Y45591D02*
X64453D01*
X62681Y41063D02*
X64453D01*
X58547Y45591D02*
X60319D01*
X58547Y41063D02*
X60319D01*
X57661Y41929D02*
Y44724D01*
X65165Y48429D02*
Y51224D01*
X62508Y52091D02*
X64280D01*
X62508Y47563D02*
X64280D01*
X58374Y52091D02*
X60146D01*
X58374Y47563D02*
X60146D01*
X57488Y48429D02*
Y51224D01*
Y53929D02*
Y56724D01*
X58374Y53063D02*
X60146D01*
X58374Y57591D02*
X60146D01*
X62508Y53063D02*
X64280D01*
X62508Y57591D02*
X64280D01*
X65165Y53929D02*
Y56724D01*
X92602Y92661D02*
X95398D01*
X96264Y93547D02*
Y95319D01*
X91736Y93547D02*
Y95319D01*
X96264Y97681D02*
Y99453D01*
X91736Y97681D02*
Y99453D01*
X92602Y100339D02*
X95398D01*
X96264Y88681D02*
Y91339D01*
Y83661D02*
Y86319D01*
X91736Y88681D02*
Y91339D01*
Y83661D02*
Y86319D01*
Y91339D02*
X96264D01*
X91736Y83661D02*
X96264D01*
X98779Y120638D02*
X101929D01*
X98779Y125362D02*
X101929D01*
X100866Y120638D02*
Y125362D01*
X101929Y120638D02*
Y125362D01*
X98779Y120638D02*
Y125362D01*
X101764Y97835D02*
Y100492D01*
Y92815D02*
Y95472D01*
X97236Y97835D02*
Y100492D01*
Y92815D02*
Y95472D01*
Y100492D02*
X101764D01*
X97236Y92815D02*
X101764D01*
Y88681D02*
Y91339D01*
Y83661D02*
Y86319D01*
X97236Y88681D02*
Y91339D01*
Y83661D02*
Y86319D01*
Y91339D02*
X101764D01*
X97236Y83661D02*
X101764D01*
X100819Y114043D02*
X103181D01*
X103602Y92488D02*
X106398D01*
X107264Y93374D02*
Y95146D01*
X102736Y93374D02*
Y95146D01*
X107264Y97508D02*
Y99279D01*
X102736Y97508D02*
Y99279D01*
X103602Y100165D02*
X106398D01*
X107264Y88681D02*
Y91339D01*
Y83661D02*
Y86319D01*
X102736Y88681D02*
Y91339D01*
Y83661D02*
Y86319D01*
Y91339D02*
X107264D01*
X102736Y83661D02*
X107264D01*
X75602Y92488D02*
X78398D01*
X79264Y93374D02*
Y95146D01*
X74736Y93374D02*
Y95146D01*
X79264Y97508D02*
Y99279D01*
X74736Y97508D02*
Y99279D01*
X75602Y100165D02*
X78398D01*
X79264Y88681D02*
Y91339D01*
Y83661D02*
Y86319D01*
X74736Y88681D02*
Y91339D01*
Y83661D02*
Y86319D01*
Y91339D02*
X79264D01*
X74736Y83661D02*
X79264D01*
X79571Y125362D02*
X82721D01*
X79571Y120638D02*
X82721D01*
X80634D02*
Y125362D01*
X79571Y120638D02*
Y125362D01*
X82721Y120638D02*
Y125362D01*
X84764Y97835D02*
Y100492D01*
Y92815D02*
Y95472D01*
X80236Y97835D02*
Y100492D01*
Y92815D02*
Y95472D01*
Y100492D02*
X84764D01*
X80236Y92815D02*
X84764D01*
Y88681D02*
Y91339D01*
Y83661D02*
Y86319D01*
X80236Y88681D02*
Y91339D01*
Y83661D02*
Y86319D01*
Y91339D02*
X84764D01*
X80236Y83661D02*
X84764D01*
X78819Y113543D02*
X81181D01*
X86602Y92661D02*
X89398D01*
X90264Y93547D02*
Y95319D01*
X85736Y93547D02*
Y95319D01*
X90264Y97681D02*
Y99453D01*
X85736Y97681D02*
Y99453D01*
X86602Y100339D02*
X89398D01*
X90264Y88681D02*
Y91339D01*
Y83661D02*
Y86319D01*
X85736Y88681D02*
Y91339D01*
Y83661D02*
Y86319D01*
Y91339D02*
X90264D01*
X85736Y83661D02*
X90264D01*
X94339Y102602D02*
Y105398D01*
X91681Y106264D02*
X93453D01*
X91681Y101736D02*
X93453D01*
X87547Y106264D02*
X89319D01*
X87547Y101736D02*
X89319D01*
X86661Y102602D02*
Y105398D01*
X94165Y109102D02*
Y111898D01*
X91508Y112764D02*
X93279D01*
X91508Y108236D02*
X93279D01*
X87374Y112764D02*
X89146D01*
X87374Y108236D02*
X89146D01*
X86488Y109102D02*
Y111898D01*
Y114602D02*
Y117398D01*
X87374Y113736D02*
X89146D01*
X87374Y118264D02*
X89146D01*
X91508Y113736D02*
X93279D01*
X91508Y118264D02*
X93279D01*
X94165Y114602D02*
Y117398D01*
X115102Y32161D02*
X117898D01*
X118764Y33047D02*
Y34819D01*
X114236Y33047D02*
Y34819D01*
X118764Y37181D02*
Y38953D01*
X114236Y37181D02*
Y38953D01*
X115102Y39839D02*
X117898D01*
X118764Y28181D02*
Y30839D01*
Y23161D02*
Y25819D01*
X114236Y28181D02*
Y30839D01*
Y23161D02*
Y25819D01*
Y30839D02*
X118764D01*
X114236Y23161D02*
X118764D01*
X121280Y60138D02*
X124429D01*
X121280Y64862D02*
X124429D01*
X123366Y60138D02*
Y64862D01*
X124429Y60138D02*
Y64862D01*
X121280Y60138D02*
Y64862D01*
X124264Y37335D02*
Y39992D01*
Y32315D02*
Y34972D01*
X119736Y37335D02*
Y39992D01*
Y32315D02*
Y34972D01*
Y39992D02*
X124264D01*
X119736Y32315D02*
X124264D01*
Y28181D02*
Y30839D01*
Y23161D02*
Y25819D01*
X119736Y28181D02*
Y30839D01*
Y23161D02*
Y25819D01*
Y30839D02*
X124264D01*
X119736Y23161D02*
X124264D01*
X123319Y53543D02*
X125681D01*
X126102Y31988D02*
X128898D01*
X129764Y32874D02*
Y34646D01*
X125236Y32874D02*
Y34646D01*
X129764Y37008D02*
Y38780D01*
X125236Y37008D02*
Y38780D01*
X126102Y39665D02*
X128898D01*
X129764Y28181D02*
Y30839D01*
Y23161D02*
Y25819D01*
X125236Y28181D02*
Y30839D01*
Y23161D02*
Y25819D01*
Y30839D02*
X129764D01*
X125236Y23161D02*
X129764D01*
X98102Y31988D02*
X100898D01*
X101764Y32874D02*
Y34646D01*
X97236Y32874D02*
Y34646D01*
X101764Y37008D02*
Y38780D01*
X97236Y37008D02*
Y38780D01*
X98102Y39665D02*
X100898D01*
X101764Y28181D02*
Y30839D01*
Y23161D02*
Y25819D01*
X97236Y28181D02*
Y30839D01*
Y23161D02*
Y25819D01*
Y30839D02*
X101764D01*
X97236Y23161D02*
X101764D01*
X102071Y64862D02*
X105220D01*
X102071Y60138D02*
X105220D01*
X103134D02*
Y64862D01*
X102071Y60138D02*
Y64862D01*
X105220Y60138D02*
Y64862D01*
X107264Y37335D02*
Y39992D01*
Y32315D02*
Y34972D01*
X102736Y37335D02*
Y39992D01*
Y32315D02*
Y34972D01*
Y39992D02*
X107264D01*
X102736Y32315D02*
X107264D01*
Y28181D02*
Y30839D01*
Y23161D02*
Y25819D01*
X102736Y28181D02*
Y30839D01*
Y23161D02*
Y25819D01*
Y30839D02*
X107264D01*
X102736Y23161D02*
X107264D01*
X101319Y53043D02*
X103681D01*
X109102Y32161D02*
X111898D01*
X112764Y33047D02*
Y34819D01*
X108236Y33047D02*
Y34819D01*
X112764Y37181D02*
Y38953D01*
X108236Y37181D02*
Y38953D01*
X109102Y39839D02*
X111898D01*
X112764Y28181D02*
Y30839D01*
Y23161D02*
Y25819D01*
X108236Y28181D02*
Y30839D01*
Y23161D02*
Y25819D01*
Y30839D02*
X112764D01*
X108236Y23161D02*
X112764D01*
X116839Y42102D02*
Y44898D01*
X114181Y45764D02*
X115953D01*
X114181Y41236D02*
X115953D01*
X110047Y45764D02*
X111819D01*
X110047Y41236D02*
X111819D01*
X109161Y42102D02*
Y44898D01*
X116665Y48602D02*
Y51398D01*
X114008Y52264D02*
X115779D01*
X114008Y47736D02*
X115779D01*
X109874Y52264D02*
X111646D01*
X109874Y47736D02*
X111646D01*
X108988Y48602D02*
Y51398D01*
Y54102D02*
Y56898D01*
X109874Y53236D02*
X111646D01*
X109874Y57764D02*
X111646D01*
X114008Y53236D02*
X115779D01*
X114008Y57764D02*
X115779D01*
X116665Y54102D02*
Y56898D01*
X144102Y92661D02*
X146898D01*
X147764Y93547D02*
Y95319D01*
X143236Y93547D02*
Y95319D01*
X147764Y97681D02*
Y99453D01*
X143236Y97681D02*
Y99453D01*
X144102Y100339D02*
X146898D01*
X147764Y88681D02*
Y91339D01*
Y83661D02*
Y86319D01*
X143236Y88681D02*
Y91339D01*
Y83661D02*
Y86319D01*
Y91339D02*
X147764D01*
X143236Y83661D02*
X147764D01*
X150279Y120638D02*
X153429D01*
X150279Y125362D02*
X153429D01*
X152366Y120638D02*
Y125362D01*
X153429Y120638D02*
Y125362D01*
X150279Y120638D02*
Y125362D01*
X153264Y97835D02*
Y100492D01*
Y92815D02*
Y95472D01*
X148736Y97835D02*
Y100492D01*
Y92815D02*
Y95472D01*
Y100492D02*
X153264D01*
X148736Y92815D02*
X153264D01*
Y88681D02*
Y91339D01*
Y83661D02*
Y86319D01*
X148736Y88681D02*
Y91339D01*
Y83661D02*
Y86319D01*
Y91339D02*
X153264D01*
X148736Y83661D02*
X153264D01*
X152319Y114043D02*
X154681D01*
X155102Y92488D02*
X157898D01*
X158764Y93374D02*
Y95146D01*
X154236Y93374D02*
Y95146D01*
X158764Y97508D02*
Y99279D01*
X154236Y97508D02*
Y99279D01*
X155102Y100165D02*
X157898D01*
X158764Y88681D02*
Y91339D01*
Y83661D02*
Y86319D01*
X154236Y88681D02*
Y91339D01*
Y83661D02*
Y86319D01*
Y91339D02*
X158764D01*
X154236Y83661D02*
X158764D01*
X127102Y92488D02*
X129898D01*
X130764Y93374D02*
Y95146D01*
X126236Y93374D02*
Y95146D01*
X130764Y97508D02*
Y99279D01*
X126236Y97508D02*
Y99279D01*
X127102Y100165D02*
X129898D01*
X130764Y88681D02*
Y91339D01*
Y83661D02*
Y86319D01*
X126236Y88681D02*
Y91339D01*
Y83661D02*
Y86319D01*
Y91339D02*
X130764D01*
X126236Y83661D02*
X130764D01*
X131071Y125362D02*
X134221D01*
X131071Y120638D02*
X134221D01*
X132134D02*
Y125362D01*
X131071Y120638D02*
Y125362D01*
X134221Y120638D02*
Y125362D01*
X136264Y97835D02*
Y100492D01*
Y92815D02*
Y95472D01*
X131736Y97835D02*
Y100492D01*
Y92815D02*
Y95472D01*
Y100492D02*
X136264D01*
X131736Y92815D02*
X136264D01*
Y88681D02*
Y91339D01*
Y83661D02*
Y86319D01*
X131736Y88681D02*
Y91339D01*
Y83661D02*
Y86319D01*
Y91339D02*
X136264D01*
X131736Y83661D02*
X136264D01*
X130319Y113543D02*
X132681D01*
X138102Y92661D02*
X140898D01*
X141764Y93547D02*
Y95319D01*
X137236Y93547D02*
Y95319D01*
X141764Y97681D02*
Y99453D01*
X137236Y97681D02*
Y99453D01*
X138102Y100339D02*
X140898D01*
X141764Y88681D02*
Y91339D01*
Y83661D02*
Y86319D01*
X137236Y88681D02*
Y91339D01*
Y83661D02*
Y86319D01*
Y91339D02*
X141764D01*
X137236Y83661D02*
X141764D01*
X145839Y102602D02*
Y105398D01*
X143181Y106264D02*
X144953D01*
X143181Y101736D02*
X144953D01*
X139047Y106264D02*
X140819D01*
X139047Y101736D02*
X140819D01*
X138161Y102602D02*
Y105398D01*
X145665Y109102D02*
Y111898D01*
X143008Y112764D02*
X144780D01*
X143008Y108236D02*
X144780D01*
X138874Y112764D02*
X140646D01*
X138874Y108236D02*
X140646D01*
X137988Y109102D02*
Y111898D01*
Y114602D02*
Y117398D01*
X138874Y113736D02*
X140646D01*
X138874Y118264D02*
X140646D01*
X143008Y113736D02*
X144780D01*
X143008Y118264D02*
X144780D01*
X145665Y114602D02*
Y117398D01*
X167102Y31988D02*
X169898D01*
X170764Y32874D02*
Y34646D01*
X166236Y32874D02*
Y34646D01*
X170764Y37008D02*
Y38780D01*
X166236Y37008D02*
Y38780D01*
X167102Y39665D02*
X169898D01*
X170764Y28008D02*
Y30665D01*
Y22988D02*
Y25646D01*
X166236Y28008D02*
Y30665D01*
Y22988D02*
Y25646D01*
Y30665D02*
X170764D01*
X166236Y22988D02*
X170764D01*
X176264Y37161D02*
Y39819D01*
Y32142D02*
Y34799D01*
X171736Y37161D02*
Y39819D01*
Y32142D02*
Y34799D01*
Y39819D02*
X176264D01*
X171736Y32142D02*
X176264D01*
Y28008D02*
Y30665D01*
Y22988D02*
Y25646D01*
X171736Y28008D02*
Y30665D01*
Y22988D02*
Y25646D01*
Y30665D02*
X176264D01*
X171736Y22988D02*
X176264D01*
X178102Y31815D02*
X180898D01*
X181764Y32701D02*
Y34473D01*
X177236Y32701D02*
Y34472D01*
X181764Y36835D02*
Y38606D01*
X177236Y36835D02*
Y38606D01*
X178102Y39492D02*
X180898D01*
X181764Y28008D02*
Y30665D01*
Y22988D02*
Y25646D01*
X177236Y28008D02*
Y30665D01*
Y22988D02*
Y25646D01*
Y30665D02*
X181764D01*
X177236Y22988D02*
X181764D01*
X150102Y31815D02*
X152898D01*
X153764Y32701D02*
Y34473D01*
X149236Y32701D02*
Y34472D01*
X153764Y36835D02*
Y38606D01*
X149236Y36835D02*
Y38606D01*
X150102Y39492D02*
X152898D01*
X153764Y28008D02*
Y30665D01*
Y22988D02*
Y25646D01*
X149236Y28008D02*
Y30665D01*
Y22988D02*
Y25646D01*
Y30665D02*
X153764D01*
X149236Y22988D02*
X153764D01*
X159264Y37161D02*
Y39819D01*
Y32142D02*
Y34799D01*
X154736Y37161D02*
Y39819D01*
Y32142D02*
Y34799D01*
Y39819D02*
X159264D01*
X154736Y32142D02*
X159264D01*
Y28008D02*
Y30665D01*
Y22988D02*
Y25646D01*
X154736Y28008D02*
Y30665D01*
Y22988D02*
Y25646D01*
Y30665D02*
X159264D01*
X154736Y22988D02*
X159264D01*
X161102Y31988D02*
X163898D01*
X164764Y32874D02*
Y34646D01*
X160236Y32874D02*
Y34646D01*
X164764Y37008D02*
Y38780D01*
X160236Y37008D02*
Y38780D01*
X161102Y39665D02*
X163898D01*
X164764Y28008D02*
Y30665D01*
Y22988D02*
Y25646D01*
X160236Y28008D02*
Y30665D01*
Y22988D02*
Y25646D01*
Y30665D02*
X164764D01*
X160236Y22988D02*
X164764D01*
X168839Y41929D02*
Y44724D01*
X166181Y45591D02*
X167953D01*
X166181Y41063D02*
X167953D01*
X162047Y45591D02*
X163819D01*
X162047Y41063D02*
X163819D01*
X161161Y41929D02*
Y44724D01*
X168665Y48429D02*
Y51224D01*
X166008Y52091D02*
X167780D01*
X166008Y47563D02*
X167780D01*
X161874Y52091D02*
X163646D01*
X161874Y47563D02*
X163646D01*
X160988Y48429D02*
Y51224D01*
X-17898Y155661D02*
X-15102D01*
X-14236Y156547D02*
Y158319D01*
X-18764Y156547D02*
Y158319D01*
X-14236Y160681D02*
Y162453D01*
X-18764Y160681D02*
Y162453D01*
X-17898Y163339D02*
X-15102D01*
X-23898Y155661D02*
X-21102D01*
X-20236Y156547D02*
Y158319D01*
X-24764Y156547D02*
Y158319D01*
X-20236Y160681D02*
Y162453D01*
X-24764Y160681D02*
Y162453D01*
X-23898Y163339D02*
X-21102D01*
X34602Y155661D02*
X37398D01*
X38264Y156547D02*
Y158319D01*
X33736Y156547D02*
Y158319D01*
X38264Y160681D02*
Y162453D01*
X33736Y160681D02*
Y162453D01*
X34602Y163339D02*
X37398D01*
X26602Y155661D02*
X29398D01*
X30264Y156547D02*
Y158319D01*
X25736Y156547D02*
Y158319D01*
X30264Y160681D02*
Y162453D01*
X25736Y160681D02*
Y162453D01*
X26602Y163339D02*
X29398D01*
X85102Y155335D02*
X87898D01*
X88764Y156220D02*
Y157992D01*
X84236Y156220D02*
Y157992D01*
X88764Y160354D02*
Y162126D01*
X84236Y160354D02*
Y162126D01*
X85102Y163012D02*
X87898D01*
X78102Y155335D02*
X80898D01*
X81764Y156220D02*
Y157992D01*
X77236Y156220D02*
Y157992D01*
X81764Y160354D02*
Y162126D01*
X77236Y160354D02*
Y162126D01*
X78102Y163012D02*
X80898D01*
X143602Y155335D02*
X146398D01*
X147264Y156220D02*
Y157992D01*
X142736Y156220D02*
Y157992D01*
X147264Y160354D02*
Y162126D01*
X142736Y160354D02*
Y162126D01*
X143602Y163012D02*
X146398D01*
X137102Y155335D02*
X139898D01*
X140764Y156220D02*
Y157992D01*
X136236Y156220D02*
Y157992D01*
X140764Y160354D02*
Y162126D01*
X136236Y160354D02*
Y162126D01*
X137102Y163012D02*
X139898D01*
X205000Y205833D02*
Y210000D01*
X-45000D02*
X205000D01*
X-45000Y205833D02*
Y210000D01*
X202500Y205833D02*
X205000Y208333D01*
X201667Y210000D02*
Y223333D01*
X200000Y225000D02*
X201667Y223333D01*
X198333D02*
X200000Y225000D01*
X198333Y210000D02*
Y223333D01*
X191667Y210000D02*
Y223333D01*
X190000Y225000D02*
X191667Y223333D01*
X188333D02*
X190000Y225000D01*
X188333Y210000D02*
Y223333D01*
X181667Y210000D02*
Y223333D01*
X180000Y225000D02*
X181667Y223333D01*
X178333D02*
X180000Y225000D01*
X178333Y210000D02*
Y223333D01*
X171667Y210000D02*
Y223333D01*
X170000Y225000D02*
X171667Y223333D01*
X168333D02*
X170000Y225000D01*
X168333Y210000D02*
Y223333D01*
X161667Y210000D02*
Y223333D01*
X160000Y225000D02*
X161667Y223333D01*
X158333D02*
X160000Y225000D01*
X158333Y210000D02*
Y223333D01*
X151667Y210000D02*
Y223333D01*
X150000Y225000D02*
X151667Y223333D01*
X148333D02*
X150000Y225000D01*
X148333Y210000D02*
Y223333D01*
X141667Y210000D02*
Y223333D01*
X140000Y225000D02*
X141667Y223333D01*
X138333D02*
X140000Y225000D01*
X138333Y210000D02*
Y223333D01*
X131667Y210000D02*
Y223333D01*
X130000Y225000D02*
X131667Y223333D01*
X128333D02*
X130000Y225000D01*
X128333Y210000D02*
Y223333D01*
X121667Y210000D02*
Y223333D01*
X120000Y225000D02*
X121667Y223333D01*
X118333D02*
X120000Y225000D01*
X118333Y210000D02*
Y223333D01*
X111667Y210000D02*
Y223333D01*
X110000Y225000D02*
X111667Y223333D01*
X108333D02*
X110000Y225000D01*
X108333Y210000D02*
Y223333D01*
X101667Y210000D02*
Y223333D01*
X100000Y225000D02*
X101667Y223333D01*
X98333D02*
X100000Y225000D01*
X98333Y210000D02*
Y223333D01*
X91667Y210000D02*
Y223333D01*
X90000Y225000D02*
X91667Y223333D01*
X88333D02*
X90000Y225000D01*
X88333Y210000D02*
Y223333D01*
X81667Y210000D02*
Y223333D01*
X80000Y225000D02*
X81667Y223333D01*
X78333D02*
X80000Y225000D01*
X78333Y210000D02*
Y223333D01*
X71667Y210000D02*
Y223333D01*
X70000Y225000D02*
X71667Y223333D01*
X68333D02*
X70000Y225000D01*
X68333Y210000D02*
Y223333D01*
X61667Y210000D02*
Y223333D01*
X60000Y225000D02*
X61667Y223333D01*
X58333D02*
X60000Y225000D01*
X58333Y210000D02*
Y223333D01*
X51667Y210000D02*
Y223333D01*
X50000Y225000D02*
X51667Y223333D01*
X48333D02*
X50000Y225000D01*
X48333Y210000D02*
Y223333D01*
X41667Y210000D02*
Y223333D01*
X40000Y225000D02*
X41667Y223333D01*
X38333D02*
X40000Y225000D01*
X38333Y210000D02*
Y223333D01*
X31667Y210000D02*
Y223333D01*
X30000Y225000D02*
X31667Y223333D01*
X28333D02*
X30000Y225000D01*
X28333Y210000D02*
Y223333D01*
X21667Y210000D02*
Y223333D01*
X20000Y225000D02*
X21667Y223333D01*
X18333D02*
X20000Y225000D01*
X18333Y210000D02*
Y223333D01*
X11667Y210000D02*
Y223333D01*
X10000Y225000D02*
X11667Y223333D01*
X8333D02*
X10000Y225000D01*
X8333Y210000D02*
Y223333D01*
X1667Y210000D02*
Y223333D01*
X0Y225000D02*
X1667Y223333D01*
X-1667D02*
X0Y225000D01*
X-1667Y210000D02*
Y223333D01*
X-8333Y210000D02*
Y223333D01*
X-10000Y225000D02*
X-8333Y223333D01*
X-11667D02*
X-10000Y225000D01*
X-11667Y210000D02*
Y223333D01*
X-18333Y210000D02*
Y223333D01*
X-20000Y225000D02*
X-18333Y223333D01*
X-21667D02*
X-20000Y225000D01*
X-21667Y210000D02*
Y223333D01*
X-28333Y210000D02*
Y223333D01*
X-30000Y225000D02*
X-28333Y223333D01*
X-31667D02*
X-30000Y225000D01*
X-31667Y210000D02*
Y223333D01*
X-38333Y210000D02*
Y223333D01*
X-40000Y225000D02*
X-38333Y223333D01*
X-41667D02*
X-40000Y225000D01*
X-41667Y210000D02*
Y223333D01*
X-45000Y205833D02*
X205000D01*
X-5000Y-5000D02*
X155000D01*
X151667Y-23333D02*
Y-10000D01*
X150000Y-25000D02*
X151667Y-23333D01*
X148333D02*
X150000Y-25000D01*
X148333Y-23333D02*
Y-10000D01*
X141667Y-23333D02*
Y-10000D01*
X140000Y-25000D02*
X141667Y-23333D01*
X138333D02*
X140000Y-25000D01*
X138333Y-23333D02*
Y-10000D01*
X131667Y-23333D02*
Y-10000D01*
X130000Y-25000D02*
X131667Y-23333D01*
X128333D02*
X130000Y-25000D01*
X128333Y-23333D02*
Y-10000D01*
X121667Y-23333D02*
Y-10000D01*
X120000Y-25000D02*
X121667Y-23333D01*
X118333D02*
X120000Y-25000D01*
X118333Y-23333D02*
Y-10000D01*
X111667Y-23333D02*
Y-10000D01*
X110000Y-25000D02*
X111667Y-23333D01*
X108333D02*
X110000Y-25000D01*
X108333Y-23333D02*
Y-10000D01*
X101667Y-23333D02*
Y-10000D01*
X100000Y-25000D02*
X101667Y-23333D01*
X98333D02*
X100000Y-25000D01*
X98333Y-23333D02*
Y-10000D01*
X91667Y-23333D02*
Y-10000D01*
X90000Y-25000D02*
X91667Y-23333D01*
X88333D02*
X90000Y-25000D01*
X88333Y-23333D02*
Y-10000D01*
X81667Y-23333D02*
Y-10000D01*
X80000Y-25000D02*
X81667Y-23333D01*
X78333D02*
X80000Y-25000D01*
X78333Y-23333D02*
Y-10000D01*
X71667Y-23333D02*
Y-10000D01*
X70000Y-25000D02*
X71667Y-23333D01*
X68333D02*
X70000Y-25000D01*
X68333Y-23333D02*
Y-10000D01*
X61667Y-23333D02*
Y-10000D01*
X60000Y-25000D02*
X61667Y-23333D01*
X58333D02*
X60000Y-25000D01*
X58333Y-23333D02*
Y-10000D01*
X51667Y-23333D02*
Y-10000D01*
X50000Y-25000D02*
X51667Y-23333D01*
X48333D02*
X50000Y-25000D01*
X48333Y-23333D02*
Y-10000D01*
X41667Y-23333D02*
Y-10000D01*
X40000Y-25000D02*
X41667Y-23333D01*
X38333D02*
X40000Y-25000D01*
X38333Y-23333D02*
Y-10000D01*
X31667Y-23333D02*
Y-10000D01*
X30000Y-25000D02*
X31667Y-23333D01*
X28333D02*
X30000Y-25000D01*
X28333Y-23333D02*
Y-10000D01*
X21667Y-23333D02*
Y-10000D01*
X20000Y-25000D02*
X21667Y-23333D01*
X18333D02*
X20000Y-25000D01*
X18333Y-23333D02*
Y-10000D01*
X11667Y-23333D02*
Y-10000D01*
X10000Y-25000D02*
X11667Y-23333D01*
X8333D02*
X10000Y-25000D01*
X8333Y-23333D02*
Y-10000D01*
X1667Y-23333D02*
Y-10000D01*
X0Y-25000D02*
X1667Y-23333D01*
X-1667D02*
X0Y-25000D01*
X-1667Y-23333D02*
Y-10000D01*
X-5000Y-7500D02*
X-2500Y-5000D01*
X155000Y-10000D02*
Y-5000D01*
X-5000Y-10000D02*
X155000D01*
X-5000D02*
Y-5000D01*
X185957Y161354D02*
Y164602D01*
X191469D01*
X185957Y152398D02*
Y155646D01*
Y152398D02*
X191469D01*
X191543Y144390D02*
X194437D01*
X183925Y145965D02*
Y149035D01*
X196012Y145965D02*
Y149035D01*
X185500Y144390D02*
X188394D01*
X185500Y150610D02*
X188394D01*
X191543Y150610D02*
X194437D01*
X197468Y169000D02*
Y174000D01*
X192272Y175575D02*
X195894D01*
X183531Y169000D02*
Y174000D01*
X185106Y175575D02*
X188728D01*
X185106Y167425D02*
X188728D01*
X192272D02*
X195894D01*
G54D37*
X195799Y151315D02*
X195061Y151741D01*
Y150889D01*
X195799Y151315D01*
G54D38*
X206668Y192000D02*
X210000D01*
X206668Y188668D01*
Y187835D01*
X207501Y187002D01*
X209167D01*
X210000Y187835D01*
Y202000D02*
X208334D01*
X209167D01*
Y197002D01*
X210000Y197835D01*
X-48499Y202000D02*
Y197002D01*
X-46000Y199501D01*
X-49332D01*
X-50998Y201167D02*
X-51831Y202000D01*
X-53498D01*
X-54331Y201167D01*
Y197835D01*
X-53498Y197002D01*
X-51831D01*
X-50998Y197835D01*
Y198668D01*
X-51831Y199501D01*
X-54331D01*
X-49332Y187002D02*
X-46000D01*
Y189501D01*
X-47666Y188668D01*
X-48499D01*
X-49332Y189501D01*
Y191167D01*
X-48499Y192000D01*
X-46833D01*
X-46000Y191167D01*
X-50998Y187835D02*
X-51831Y187002D01*
X-53498D01*
X-54331Y187835D01*
Y191167D01*
X-53498Y192000D01*
X-51831D01*
X-50998Y191167D01*
Y187835D01*
G54D39*
X151750Y75750D02*
D03*
M02*
