G04 Layer_Color=255*
%FSLAX25Y25*%
%MOIN*%
G70*
G01*
G75*
%ADD10R,0.04567X0.05787*%
%ADD11R,0.05787X0.04567*%
%ADD12R,0.02362X0.02559*%
%ADD13R,0.02756X0.04921*%
%ADD14R,0.03937X0.03268*%
%ADD15R,0.02559X0.02362*%
%ADD16R,0.04528X0.02559*%
%ADD17R,0.03661X0.03858*%
%ADD23R,0.05905X0.05905*%
%ADD24C,0.05905*%
G54D10*
X183496Y137000D02*
D03*
X190504D02*
D03*
X186996Y171500D02*
D03*
X194004D02*
D03*
G54D11*
X196000Y121496D02*
D03*
Y128504D02*
D03*
G54D12*
X163154Y55327D02*
D03*
X166500D02*
D03*
X-10827Y104347D02*
D03*
X-14173D02*
D03*
X-11000Y110846D02*
D03*
X-14346D02*
D03*
Y116347D02*
D03*
X-11000D02*
D03*
X11173Y43327D02*
D03*
X7827D02*
D03*
X11000Y49827D02*
D03*
X7654D02*
D03*
Y55327D02*
D03*
X11000D02*
D03*
X41173Y104500D02*
D03*
X37827D02*
D03*
X41000Y111000D02*
D03*
X37653D02*
D03*
Y116500D02*
D03*
X41000D02*
D03*
X63173Y43327D02*
D03*
X59827D02*
D03*
X63000Y49827D02*
D03*
X59654D02*
D03*
Y55327D02*
D03*
X63000D02*
D03*
X92173Y104000D02*
D03*
X88827D02*
D03*
X92000Y110500D02*
D03*
X88653D02*
D03*
Y116000D02*
D03*
X92000D02*
D03*
X114673Y43500D02*
D03*
X111327D02*
D03*
X114500Y50000D02*
D03*
X111153D02*
D03*
Y55500D02*
D03*
X114500D02*
D03*
X143673Y104000D02*
D03*
X140327D02*
D03*
X143500Y110500D02*
D03*
X140154D02*
D03*
Y116000D02*
D03*
X143500D02*
D03*
X166673Y43327D02*
D03*
X163327D02*
D03*
X166500Y49827D02*
D03*
X163154D02*
D03*
G54D13*
X180240Y54748D02*
D03*
X172760D02*
D03*
X176500Y44905D02*
D03*
X158240Y54248D02*
D03*
X150760D02*
D03*
X154500Y44405D02*
D03*
X2740Y115768D02*
D03*
X-4740D02*
D03*
X-1000Y105925D02*
D03*
X-19260Y115268D02*
D03*
X-26740D02*
D03*
X-23000Y105425D02*
D03*
X24740Y54748D02*
D03*
X17260D02*
D03*
X21000Y44905D02*
D03*
X2740Y54248D02*
D03*
X-4740D02*
D03*
X-1000Y44405D02*
D03*
X54740Y115921D02*
D03*
X47260D02*
D03*
X51000Y106079D02*
D03*
X32740Y115421D02*
D03*
X25260D02*
D03*
X29000Y105579D02*
D03*
X76740Y54748D02*
D03*
X69260D02*
D03*
X73000Y44905D02*
D03*
X54740Y54248D02*
D03*
X47260D02*
D03*
X51000Y44405D02*
D03*
X105740Y115421D02*
D03*
X98260D02*
D03*
X102000Y105579D02*
D03*
X83740Y114921D02*
D03*
X76260D02*
D03*
X80000Y105079D02*
D03*
X128240Y54921D02*
D03*
X120760D02*
D03*
X124500Y45079D02*
D03*
X106240Y54421D02*
D03*
X98760D02*
D03*
X102500Y44579D02*
D03*
X157240Y115421D02*
D03*
X149760D02*
D03*
X153500Y105579D02*
D03*
X135240Y114921D02*
D03*
X127760D02*
D03*
X131500Y105079D02*
D03*
G54D14*
X179500Y62327D02*
D03*
X170209D02*
D03*
X151000D02*
D03*
X160291D02*
D03*
X2000Y123346D02*
D03*
X-7291D02*
D03*
X-26500D02*
D03*
X-17209D02*
D03*
X24000Y62327D02*
D03*
X14709D02*
D03*
X-4500D02*
D03*
X4791D02*
D03*
X54000Y123500D02*
D03*
X44709D02*
D03*
X25500D02*
D03*
X34791D02*
D03*
X76000Y62327D02*
D03*
X66709D02*
D03*
X47500D02*
D03*
X56791D02*
D03*
X105000Y123000D02*
D03*
X95709D02*
D03*
X76500D02*
D03*
X85791D02*
D03*
X127500Y62500D02*
D03*
X118209D02*
D03*
X99000D02*
D03*
X108291D02*
D03*
X156500Y123000D02*
D03*
X147209D02*
D03*
X128000D02*
D03*
X137291D02*
D03*
G54D15*
X-9000Y95173D02*
D03*
Y98520D02*
D03*
Y86173D02*
D03*
Y89520D02*
D03*
X-3500Y95327D02*
D03*
Y98673D02*
D03*
Y86173D02*
D03*
Y89520D02*
D03*
X2000Y95000D02*
D03*
Y98347D02*
D03*
X2000Y86173D02*
D03*
Y89520D02*
D03*
X-26000Y95000D02*
D03*
Y98347D02*
D03*
X-26000Y86173D02*
D03*
Y89520D02*
D03*
X-20500Y95327D02*
D03*
Y98673D02*
D03*
Y86173D02*
D03*
Y89520D02*
D03*
X-15000Y95173D02*
D03*
Y98520D02*
D03*
Y86173D02*
D03*
Y89520D02*
D03*
X13000Y34154D02*
D03*
Y37500D02*
D03*
Y25153D02*
D03*
Y28500D02*
D03*
X18500Y34307D02*
D03*
Y37653D02*
D03*
Y25153D02*
D03*
Y28500D02*
D03*
X24000Y33980D02*
D03*
Y37327D02*
D03*
X24000Y25153D02*
D03*
Y28500D02*
D03*
X-4000Y33980D02*
D03*
Y37327D02*
D03*
X-4000Y25153D02*
D03*
Y28500D02*
D03*
X1500Y34307D02*
D03*
Y37653D02*
D03*
Y25153D02*
D03*
Y28500D02*
D03*
X7000Y34154D02*
D03*
Y37500D02*
D03*
Y25153D02*
D03*
Y28500D02*
D03*
X43000Y95327D02*
D03*
Y98673D02*
D03*
Y86327D02*
D03*
Y89673D02*
D03*
X48500Y95480D02*
D03*
Y98827D02*
D03*
Y86327D02*
D03*
Y89673D02*
D03*
X54000Y95153D02*
D03*
Y98500D02*
D03*
X54000Y86327D02*
D03*
Y89673D02*
D03*
X26000Y95153D02*
D03*
Y98500D02*
D03*
X26000Y86327D02*
D03*
Y89673D02*
D03*
X31500Y95480D02*
D03*
Y98827D02*
D03*
Y86327D02*
D03*
Y89673D02*
D03*
X37000Y95327D02*
D03*
Y98673D02*
D03*
Y86327D02*
D03*
Y89673D02*
D03*
X65000Y34154D02*
D03*
Y37500D02*
D03*
Y25153D02*
D03*
Y28500D02*
D03*
X70500Y34307D02*
D03*
Y37653D02*
D03*
Y25153D02*
D03*
Y28500D02*
D03*
X76000Y33980D02*
D03*
Y37327D02*
D03*
X76000Y25153D02*
D03*
Y28500D02*
D03*
X48000Y33980D02*
D03*
Y37327D02*
D03*
X48000Y25153D02*
D03*
Y28500D02*
D03*
X53500Y34307D02*
D03*
Y37653D02*
D03*
Y25153D02*
D03*
Y28500D02*
D03*
X59000Y34154D02*
D03*
Y37500D02*
D03*
Y25153D02*
D03*
Y28500D02*
D03*
X94000Y94827D02*
D03*
Y98173D02*
D03*
Y85827D02*
D03*
Y89173D02*
D03*
X99500Y94980D02*
D03*
Y98327D02*
D03*
Y85827D02*
D03*
Y89173D02*
D03*
X105000Y94653D02*
D03*
Y98000D02*
D03*
X105000Y85827D02*
D03*
Y89173D02*
D03*
X77000Y94653D02*
D03*
Y98000D02*
D03*
X77000Y85827D02*
D03*
Y89173D02*
D03*
X82500Y94980D02*
D03*
Y98327D02*
D03*
Y85827D02*
D03*
Y89173D02*
D03*
X88000Y94827D02*
D03*
Y98173D02*
D03*
Y85827D02*
D03*
Y89173D02*
D03*
X116500Y34327D02*
D03*
Y37673D02*
D03*
Y25327D02*
D03*
Y28673D02*
D03*
X122000Y34480D02*
D03*
Y37827D02*
D03*
Y25327D02*
D03*
Y28673D02*
D03*
X127500Y34154D02*
D03*
Y37500D02*
D03*
X127500Y25327D02*
D03*
Y28673D02*
D03*
X99500Y34154D02*
D03*
Y37500D02*
D03*
X99500Y25327D02*
D03*
Y28673D02*
D03*
X105000Y34480D02*
D03*
Y37827D02*
D03*
Y25327D02*
D03*
Y28673D02*
D03*
X110500Y34327D02*
D03*
Y37673D02*
D03*
Y25327D02*
D03*
Y28673D02*
D03*
X145500Y94827D02*
D03*
Y98173D02*
D03*
Y85827D02*
D03*
Y89173D02*
D03*
X151000Y94980D02*
D03*
Y98327D02*
D03*
Y85827D02*
D03*
Y89173D02*
D03*
X156500Y94653D02*
D03*
Y98000D02*
D03*
X156500Y85827D02*
D03*
Y89173D02*
D03*
X128500Y94653D02*
D03*
Y98000D02*
D03*
X128500Y85827D02*
D03*
Y89173D02*
D03*
X134000Y94980D02*
D03*
Y98327D02*
D03*
Y85827D02*
D03*
Y89173D02*
D03*
X139500Y94827D02*
D03*
Y98173D02*
D03*
Y85827D02*
D03*
Y89173D02*
D03*
X168500Y34154D02*
D03*
Y37500D02*
D03*
Y25153D02*
D03*
Y28500D02*
D03*
X174000Y34307D02*
D03*
Y37653D02*
D03*
Y25153D02*
D03*
Y28500D02*
D03*
X179500Y33980D02*
D03*
Y37327D02*
D03*
X179500Y25153D02*
D03*
Y28500D02*
D03*
X151500Y33980D02*
D03*
Y37327D02*
D03*
X151500Y25153D02*
D03*
Y28500D02*
D03*
X157000Y34307D02*
D03*
Y37653D02*
D03*
Y25153D02*
D03*
Y28500D02*
D03*
X162500Y34154D02*
D03*
Y37500D02*
D03*
Y25153D02*
D03*
Y28500D02*
D03*
X-16500Y157827D02*
D03*
Y161173D02*
D03*
X-22500Y157827D02*
D03*
Y161173D02*
D03*
X36000Y157827D02*
D03*
Y161173D02*
D03*
X28000Y157827D02*
D03*
Y161173D02*
D03*
X86500Y157500D02*
D03*
Y160846D02*
D03*
X79500Y157500D02*
D03*
Y160846D02*
D03*
X145000Y157500D02*
D03*
Y160846D02*
D03*
X138500Y157500D02*
D03*
Y160846D02*
D03*
G54D16*
X183693Y158500D02*
D03*
X195307Y162240D02*
D03*
Y154760D02*
D03*
G54D17*
X193000Y147500D02*
D03*
X186937D02*
D03*
G54D23*
X200000Y200000D02*
D03*
X0Y0D02*
D03*
G54D24*
X200000Y190000D02*
D03*
X190000Y200000D02*
D03*
Y190000D02*
D03*
X180000Y200000D02*
D03*
Y190000D02*
D03*
X170000Y200000D02*
D03*
Y190000D02*
D03*
X160000Y200000D02*
D03*
Y190000D02*
D03*
X150000Y200000D02*
D03*
X140000Y190000D02*
D03*
X130000Y200000D02*
D03*
Y190000D02*
D03*
X120000Y200000D02*
D03*
Y190000D02*
D03*
X110000Y200000D02*
D03*
Y190000D02*
D03*
X100000Y200000D02*
D03*
Y190000D02*
D03*
X90000Y200000D02*
D03*
Y190000D02*
D03*
X80000Y200000D02*
D03*
Y190000D02*
D03*
X70000Y200000D02*
D03*
Y190000D02*
D03*
X60000Y200000D02*
D03*
Y190000D02*
D03*
X50000Y200000D02*
D03*
Y190000D02*
D03*
X40000Y200000D02*
D03*
Y190000D02*
D03*
X30000Y200000D02*
D03*
Y190000D02*
D03*
X20000Y200000D02*
D03*
Y190000D02*
D03*
X10000Y200000D02*
D03*
Y190000D02*
D03*
X0Y200000D02*
D03*
Y190000D02*
D03*
X-10000Y200000D02*
D03*
Y190000D02*
D03*
X-20000Y200000D02*
D03*
Y190000D02*
D03*
X-30000Y200000D02*
D03*
Y190000D02*
D03*
X-40000Y200000D02*
D03*
Y190000D02*
D03*
X140000Y200000D02*
D03*
X150000Y190000D02*
D03*
Y10000D02*
D03*
Y0D02*
D03*
X140000Y10000D02*
D03*
Y0D02*
D03*
X130000Y10000D02*
D03*
Y0D02*
D03*
X120000Y10000D02*
D03*
Y0D02*
D03*
X110000Y10000D02*
D03*
Y0D02*
D03*
X100000Y10000D02*
D03*
Y0D02*
D03*
X90000Y10000D02*
D03*
Y0D02*
D03*
X80000Y10000D02*
D03*
Y0D02*
D03*
X70000Y10000D02*
D03*
Y0D02*
D03*
X60000Y10000D02*
D03*
Y0D02*
D03*
X50000Y10000D02*
D03*
Y0D02*
D03*
X40000Y10000D02*
D03*
Y0D02*
D03*
X30000Y10000D02*
D03*
Y0D02*
D03*
X20000Y10000D02*
D03*
Y0D02*
D03*
X10000Y10000D02*
D03*
Y0D02*
D03*
X0Y10000D02*
D03*
M02*
