G04 Layer_Color=2752767*
%FSLAX25Y25*%
%MOIN*%
G70*
G01*
G75*
%ADD56C,0.00200*%
%ADD57C,0.00267*%
G36*
X421156Y71456D02*
X421404Y71291D01*
X421570Y71043D01*
X421628Y70750D01*
Y25750D01*
X421570Y25457D01*
X421404Y25209D01*
X421156Y25043D01*
X420863Y24985D01*
X241750D01*
X241457Y25043D01*
X241209Y25209D01*
X241043Y25457D01*
X240985Y25750D01*
Y70750D01*
X241043Y71043D01*
X241209Y71291D01*
X241457Y71456D01*
X241750Y71515D01*
X420863D01*
X421156Y71456D01*
D02*
G37*
%LPC*%
G36*
X410030Y67380D02*
X408965D01*
Y66020D01*
X410030D01*
X410325Y66315D01*
Y67084D01*
X410030Y67380D01*
D02*
G37*
G36*
X420099Y69985D02*
X382368D01*
Y64015D01*
X405645D01*
X405527Y64300D01*
X405679Y64668D01*
X406046Y64820D01*
X406431D01*
X406591Y64980D01*
X405446D01*
X405079Y65133D01*
X404479Y65732D01*
X404327Y66100D01*
Y67899D01*
X404479Y68267D01*
X404847Y68419D01*
X405214Y68267D01*
X405366Y67899D01*
Y66315D01*
X405662Y66020D01*
X406726D01*
Y67899D01*
X406878Y68267D01*
X407246Y68419D01*
X407613Y68267D01*
X407765Y67899D01*
Y65500D01*
Y64900D01*
X407613Y64533D01*
X407095Y64015D01*
X408044D01*
X407926Y64300D01*
Y67899D01*
X408078Y68267D01*
X408445Y68419D01*
X410245D01*
X410612Y68267D01*
X411212Y67667D01*
X411212Y67667D01*
X411257Y67559D01*
X411364Y67299D01*
X411364Y67299D01*
Y66100D01*
X411212Y65732D01*
X411212Y65732D01*
X410612Y65133D01*
X410612Y65133D01*
X410353Y65025D01*
X410245Y64980D01*
X410245D01*
D01*
X408965D01*
Y64300D01*
X408847Y64015D01*
X420099D01*
Y69985D01*
D02*
G37*
G36*
X380839D02*
X356754D01*
Y64015D01*
X380839D01*
Y69985D01*
D02*
G37*
G36*
X355225D02*
X300571D01*
Y64015D01*
X355225D01*
Y69985D01*
D02*
G37*
G36*
X299041D02*
X270378D01*
Y64015D01*
X299041D01*
Y69985D01*
D02*
G37*
G36*
X268849D02*
X242515D01*
Y64015D01*
X250647D01*
X250529Y64300D01*
X250681Y64668D01*
X251048Y64820D01*
X251433D01*
X251594Y64980D01*
X250449D01*
X250081Y65133D01*
X249482Y65732D01*
X249329Y66100D01*
Y67899D01*
X249482Y68267D01*
X249849Y68419D01*
X250216Y68267D01*
X250368Y67899D01*
Y66315D01*
X250664Y66020D01*
X251729D01*
Y67899D01*
X251881Y68267D01*
X252248Y68419D01*
X252615Y68267D01*
X252768Y67899D01*
Y65500D01*
Y64900D01*
X252615Y64533D01*
X252097Y64015D01*
X268849D01*
Y69985D01*
D02*
G37*
G36*
X420099Y62485D02*
X382368D01*
Y34015D01*
X420099D01*
Y62485D01*
D02*
G37*
G36*
X380839D02*
X356754D01*
Y34015D01*
X380839D01*
Y62485D01*
D02*
G37*
G36*
X355225D02*
X300571D01*
Y34015D01*
X355225D01*
Y62485D01*
D02*
G37*
G36*
X299041D02*
X270378D01*
Y34015D01*
X299041D01*
Y62485D01*
D02*
G37*
G36*
X268849D02*
X242515D01*
Y34015D01*
X268849D01*
Y62485D01*
D02*
G37*
G36*
X420099Y32485D02*
X382368D01*
Y26515D01*
X420099D01*
Y32485D01*
D02*
G37*
G36*
X380839D02*
X356754D01*
Y26515D01*
X380839D01*
Y32485D01*
D02*
G37*
G36*
X355225D02*
X300571D01*
Y26515D01*
X355225D01*
Y32485D01*
D02*
G37*
G36*
X299041D02*
X270378D01*
Y26515D01*
X299041D01*
Y32485D01*
D02*
G37*
G36*
X268849D02*
X242515D01*
Y26515D01*
X268849D01*
Y32485D01*
D02*
G37*
%LPD*%
G36*
X386620Y69466D02*
X386772Y69099D01*
Y65500D01*
X386620Y65133D01*
X386253Y64980D01*
X385885Y65133D01*
X385733Y65500D01*
Y66780D01*
X384373D01*
Y65500D01*
X384221Y65133D01*
X383853Y64980D01*
X383486Y65133D01*
X383334Y65500D01*
Y67299D01*
Y69099D01*
X383486Y69466D01*
X383853Y69618D01*
X384221Y69466D01*
X384373Y69099D01*
Y67819D01*
X385733D01*
Y69099D01*
X385885Y69466D01*
X386253Y69618D01*
X386620Y69466D01*
D02*
G37*
G36*
X414211Y68267D02*
X414811Y67667D01*
X414811Y67667D01*
X414855Y67559D01*
X414963Y67299D01*
X414963Y67299D01*
Y66700D01*
X414811Y66332D01*
X414443Y66180D01*
X412699D01*
X412859Y66020D01*
X413844D01*
X414211Y65867D01*
X414363Y65500D01*
X414211Y65133D01*
X413844Y64980D01*
X412644D01*
X412277Y65133D01*
X411677Y65732D01*
X411525Y66100D01*
Y67299D01*
X411677Y67667D01*
X411677Y67667D01*
X412277Y68267D01*
X412644Y68419D01*
X413844D01*
X414211Y68267D01*
D02*
G37*
G36*
X404014Y69466D02*
X404167Y69099D01*
X404014Y68731D01*
X403647Y68579D01*
X402967D01*
Y65500D01*
X402815Y65133D01*
X402447Y64980D01*
X402080Y65133D01*
X401928Y65500D01*
Y68579D01*
X401248D01*
X400880Y68731D01*
X400728Y69099D01*
X400880Y69466D01*
X401248Y69618D01*
X403647D01*
X404014Y69466D01*
D02*
G37*
G36*
X396217Y68267D02*
X396817Y67667D01*
X396817Y67667D01*
X396861Y67559D01*
X396969Y67299D01*
X396969Y67299D01*
Y66700D01*
X396817Y66332D01*
X396449Y66180D01*
X394705D01*
X394865Y66020D01*
X395849D01*
X396217Y65867D01*
X396369Y65500D01*
X396217Y65133D01*
X395849Y64980D01*
X394650D01*
X394283Y65133D01*
X393683Y65732D01*
X393531Y66100D01*
Y67299D01*
X393683Y67667D01*
X393683Y67667D01*
X394283Y68267D01*
X394650Y68419D01*
X395849D01*
X396217Y68267D01*
D02*
G37*
G36*
X392018Y69466D02*
X392170Y69099D01*
Y66020D01*
X392251D01*
X392618Y65867D01*
X392770Y65500D01*
X392618Y65133D01*
X392251Y64980D01*
X391051D01*
X390684Y65133D01*
X390531Y65500D01*
X390684Y65867D01*
X391051Y66020D01*
X391131D01*
Y68579D01*
X391051D01*
X390684Y68731D01*
X390531Y69099D01*
X390684Y69466D01*
X391051Y69618D01*
X391651D01*
X392018Y69466D01*
D02*
G37*
G36*
X389511Y68311D02*
X389619Y68267D01*
X389619Y68267D01*
X390219Y67667D01*
X390371Y67299D01*
Y66100D01*
X390219Y65732D01*
X389619Y65133D01*
X389619Y65133D01*
X389252Y64980D01*
X388052D01*
X387685Y65133D01*
X387085Y65732D01*
X386933Y66100D01*
Y67299D01*
D01*
Y67299D01*
X386977Y67407D01*
X387085Y67667D01*
X387085Y67667D01*
X387685Y68267D01*
X387685Y68267D01*
X388052Y68419D01*
X389252D01*
X389252Y68419D01*
X389511Y68311D01*
D02*
G37*
%LPC*%
G36*
X413628Y67380D02*
X412859D01*
X412699Y67219D01*
X413789D01*
X413628Y67380D01*
D02*
G37*
G36*
X395634D02*
X394865D01*
X394705Y67219D01*
X395795D01*
X395634Y67380D01*
D02*
G37*
G36*
X389036D02*
X388267D01*
X387972Y67084D01*
Y66315D01*
X388267Y66020D01*
X389036D01*
X389332Y66315D01*
Y67084D01*
X389036Y67380D01*
D02*
G37*
%LPD*%
G36*
X360406Y69466D02*
X360406Y69466D01*
X361006Y68866D01*
X361158Y68499D01*
Y67299D01*
X361006Y66932D01*
X361006Y66932D01*
X360406Y66332D01*
X360406Y66332D01*
X360147Y66225D01*
X360039Y66180D01*
D01*
X360039D01*
X358759D01*
Y65500D01*
X358607Y65133D01*
X358240Y64980D01*
X357872Y65133D01*
X357720Y65500D01*
Y69099D01*
X357872Y69466D01*
X358240Y69618D01*
X360039D01*
X360406Y69466D01*
D02*
G37*
G36*
X377801D02*
X377953Y69099D01*
Y65500D01*
X377801Y65133D01*
X377433Y64980D01*
X375634D01*
X375267Y65133D01*
X374667Y65732D01*
X374515Y66100D01*
Y67299D01*
X374667Y67667D01*
X374667Y67667D01*
X375267Y68267D01*
X375634Y68419D01*
X376914D01*
Y69099D01*
X377066Y69466D01*
X377433Y69618D01*
X377801Y69466D01*
D02*
G37*
G36*
X373602Y68267D02*
X374202Y67667D01*
X374202Y67667D01*
X374247Y67559D01*
X374354Y67299D01*
X374354Y67299D01*
Y66700D01*
X374202Y66332D01*
X373834Y66180D01*
X372090D01*
X372250Y66020D01*
X373235D01*
X373602Y65867D01*
X373754Y65500D01*
X373602Y65133D01*
X373235Y64980D01*
X372035D01*
X371668Y65133D01*
X371068Y65732D01*
X370916Y66100D01*
Y67299D01*
X371068Y67667D01*
X371068Y67667D01*
X371668Y68267D01*
X372035Y68419D01*
X373235D01*
X373602Y68267D01*
D02*
G37*
G36*
X369404Y68866D02*
X369556Y68499D01*
Y68419D01*
X369636D01*
X370003Y68267D01*
X370155Y67899D01*
X370003Y67532D01*
X369636Y67380D01*
X369556D01*
Y66315D01*
X370003Y65867D01*
X370155Y65500D01*
X370003Y65133D01*
X369636Y64980D01*
X369268Y65133D01*
X368669Y65732D01*
X368669Y65732D01*
X368516Y66100D01*
Y67380D01*
X368436D01*
X368069Y67532D01*
X367917Y67899D01*
X368069Y68267D01*
X368436Y68419D01*
X368516D01*
Y68499D01*
X368669Y68866D01*
X369036Y69019D01*
X369404Y68866D01*
D02*
G37*
G36*
X367004Y68267D02*
X367604Y67667D01*
X367604Y67667D01*
X367649Y67559D01*
X367756Y67299D01*
X367756Y67299D01*
Y65500D01*
X367604Y65133D01*
X367237Y64980D01*
X365437D01*
X365070Y65133D01*
X364470Y65732D01*
X364318Y66100D01*
X364470Y66467D01*
X364470Y66467D01*
X365070Y67067D01*
X365437Y67219D01*
X366582D01*
X366422Y67380D01*
X365437D01*
X365070Y67532D01*
X364918Y67899D01*
X365070Y68267D01*
X365437Y68419D01*
X366637D01*
X367004Y68267D01*
D02*
G37*
G36*
X362806Y69466D02*
X362958Y69099D01*
Y66020D01*
X363038D01*
X363405Y65867D01*
X363558Y65500D01*
X363405Y65133D01*
X363038Y64980D01*
X361838D01*
X361471Y65133D01*
X361319Y65500D01*
X361471Y65867D01*
X361838Y66020D01*
X361919D01*
Y68579D01*
X361838D01*
X361471Y68731D01*
X361319Y69099D01*
X361471Y69466D01*
X361838Y69618D01*
X362438D01*
X362806Y69466D01*
D02*
G37*
%LPC*%
G36*
X359824Y68579D02*
X358759D01*
Y67219D01*
X359824D01*
X360119Y67515D01*
Y68284D01*
X359824Y68579D01*
D02*
G37*
G36*
X376914Y67380D02*
X375849D01*
X375554Y67084D01*
Y66315D01*
X375849Y66020D01*
X376914D01*
Y67380D01*
D02*
G37*
G36*
X373020D02*
X372250D01*
X372090Y67219D01*
X373180D01*
X373020Y67380D01*
D02*
G37*
G36*
X366717Y66180D02*
X365652D01*
X365572Y66100D01*
X365652Y66020D01*
X366717D01*
Y66180D01*
D02*
G37*
%LPD*%
G36*
X321357Y69574D02*
X321617Y69466D01*
X321617Y69466D01*
X322217Y68866D01*
X322369Y68499D01*
X322217Y68132D01*
X321849Y67980D01*
X321482Y68132D01*
X321035Y68579D01*
X320265D01*
X319970Y68284D01*
Y68114D01*
X320265Y67819D01*
X321250D01*
X321617Y67667D01*
X321617Y67667D01*
X322217Y67067D01*
X322369Y66700D01*
Y66100D01*
X322217Y65732D01*
X322217Y65732D01*
X321617Y65133D01*
X321617Y65133D01*
X321357Y65025D01*
X321250Y64980D01*
X321250D01*
D01*
X320050D01*
X319683Y65133D01*
X319083Y65732D01*
X318931Y66100D01*
X319083Y66467D01*
X319450Y66619D01*
X319818Y66467D01*
X320265Y66020D01*
X321035D01*
X321330Y66315D01*
Y66484D01*
X321035Y66780D01*
X320050D01*
X319683Y66932D01*
X319083Y67532D01*
X319083Y67532D01*
X318931Y67899D01*
Y68499D01*
X319083Y68866D01*
X319683Y69466D01*
X320050Y69618D01*
X321250D01*
D01*
X321250D01*
X321357Y69574D01*
D02*
G37*
G36*
X324016Y69466D02*
X324168Y69099D01*
X324016Y68731D01*
X323649Y68579D01*
X323282Y68731D01*
X323129Y69099D01*
X323282Y69466D01*
X323649Y69618D01*
X324016Y69466D01*
D02*
G37*
G36*
X304822D02*
X304975Y69099D01*
Y65500D01*
X304822Y65133D01*
X304455Y64980D01*
X304088Y65133D01*
X303936Y65500D01*
Y66780D01*
X302575D01*
Y65500D01*
X302423Y65133D01*
X302056Y64980D01*
X301689Y65133D01*
X301536Y65500D01*
Y67299D01*
Y69099D01*
X301689Y69466D01*
X302056Y69618D01*
X302423Y69466D01*
X302575Y69099D01*
Y67819D01*
X303936D01*
Y69099D01*
X304088Y69466D01*
X304455Y69618D01*
X304822Y69466D01*
D02*
G37*
G36*
X331814Y68267D02*
X332414Y67667D01*
X332414Y67667D01*
X332458Y67559D01*
X332566Y67299D01*
X332566Y67299D01*
Y66700D01*
X332414Y66332D01*
X332046Y66180D01*
X330301D01*
X330462Y66020D01*
X331446D01*
X331814Y65867D01*
X331966Y65500D01*
X331814Y65133D01*
X331446Y64980D01*
X330247D01*
X329879Y65133D01*
X329280Y65732D01*
X329127Y66100D01*
Y67299D01*
X329280Y67667D01*
X329280Y67667D01*
X329879Y68267D01*
X330247Y68419D01*
X331446D01*
X331814Y68267D01*
D02*
G37*
G36*
X328815D02*
X328967Y67899D01*
X328815Y67532D01*
X327303Y66020D01*
X328447D01*
X328815Y65867D01*
X328967Y65500D01*
X328815Y65133D01*
X328447Y64980D01*
X326048D01*
X325681Y65133D01*
X325529Y65500D01*
X325681Y65867D01*
X327193Y67380D01*
X326048D01*
X325681Y67532D01*
X325529Y67899D01*
X325681Y68267D01*
X326048Y68419D01*
X328447D01*
X328815Y68267D01*
D02*
G37*
G36*
X324016D02*
X324168Y67899D01*
Y66020D01*
X324249D01*
X324616Y65867D01*
X324768Y65500D01*
X324616Y65133D01*
X324249Y64980D01*
X323049D01*
X322682Y65133D01*
X322530Y65500D01*
X322682Y65867D01*
X323049Y66020D01*
X323129D01*
Y67380D01*
X323049D01*
X322682Y67532D01*
X322530Y67899D01*
X322682Y68267D01*
X323049Y68419D01*
X323649D01*
X324016Y68267D01*
D02*
G37*
G36*
X314419D02*
X315019Y67667D01*
X315019Y67667D01*
X315064Y67559D01*
X315171Y67299D01*
X315171Y67299D01*
Y66700D01*
X315019Y66332D01*
X314652Y66180D01*
X312907D01*
X313068Y66020D01*
X314052D01*
X314419Y65867D01*
X314572Y65500D01*
X314419Y65133D01*
X314052Y64980D01*
X312852D01*
X312485Y65133D01*
X311885Y65732D01*
X311733Y66100D01*
Y67299D01*
X311885Y67667D01*
X311885Y67667D01*
X312485Y68267D01*
X312852Y68419D01*
X314052D01*
X314419Y68267D01*
D02*
G37*
G36*
X310221Y69466D02*
X310373Y69099D01*
Y66020D01*
X310453D01*
X310821Y65867D01*
X310973Y65500D01*
X310821Y65133D01*
X310453Y64980D01*
X309254D01*
X308886Y65133D01*
X308734Y65500D01*
X308886Y65867D01*
X309254Y66020D01*
X309334D01*
Y68579D01*
X309254D01*
X308886Y68731D01*
X308734Y69099D01*
X308886Y69466D01*
X309254Y69618D01*
X309853D01*
X310221Y69466D01*
D02*
G37*
G36*
X307714Y68311D02*
X307821Y68267D01*
X307821Y68267D01*
X308421Y67667D01*
X308574Y67299D01*
Y66100D01*
X308421Y65732D01*
X307821Y65133D01*
X307821Y65133D01*
X307454Y64980D01*
X306255D01*
X305887Y65133D01*
X305287Y65732D01*
X305135Y66100D01*
Y67299D01*
D01*
Y67299D01*
X305180Y67407D01*
X305287Y67667D01*
X305287Y67667D01*
X305887Y68267D01*
X305887Y68267D01*
X306255Y68419D01*
X307454D01*
X307454Y68419D01*
X307714Y68311D01*
D02*
G37*
%LPC*%
G36*
X331231Y67380D02*
X330462D01*
X330301Y67219D01*
X331392D01*
X331231Y67380D01*
D02*
G37*
G36*
X313837D02*
X313068D01*
X312907Y67219D01*
X313997D01*
X313837Y67380D01*
D02*
G37*
G36*
X307239D02*
X306470D01*
X306174Y67084D01*
Y66315D01*
X306470Y66020D01*
X307239D01*
X307534Y66315D01*
Y67084D01*
X307239Y67380D01*
D02*
G37*
%LPD*%
G36*
X273771Y69574D02*
X274031Y69466D01*
X274031Y69466D01*
X274630Y68866D01*
X274783Y68499D01*
X274630Y68132D01*
X274263Y67980D01*
X273896Y68132D01*
X273448Y68579D01*
X272679D01*
X272383Y68284D01*
Y66315D01*
X272679Y66020D01*
X273448D01*
X273896Y66467D01*
X274263Y66619D01*
X274630Y66467D01*
X274783Y66100D01*
X274630Y65732D01*
X274031Y65133D01*
X274031Y65133D01*
X273663Y64980D01*
X272464D01*
X272096Y65133D01*
X271496Y65732D01*
X271344Y66100D01*
Y68499D01*
X271496Y68866D01*
X272096Y69466D01*
X272464Y69618D01*
X273663D01*
X273663D01*
D01*
X273771Y69574D01*
D02*
G37*
G36*
X281828Y68267D02*
X281980Y67899D01*
Y65500D01*
X281828Y65133D01*
X281461Y64980D01*
X279661D01*
X279294Y65133D01*
X278694Y65732D01*
X278542Y66100D01*
Y67899D01*
X278694Y68267D01*
X279062Y68419D01*
X279429Y68267D01*
X279581Y67899D01*
Y66315D01*
X279876Y66020D01*
X280941D01*
Y67899D01*
X281093Y68267D01*
X281461Y68419D01*
X281828Y68267D01*
D02*
G37*
G36*
X287226Y68866D02*
X287379Y68499D01*
Y68419D01*
X287459D01*
X287826Y68267D01*
X287978Y67899D01*
X287826Y67532D01*
X287459Y67380D01*
X287379D01*
Y66315D01*
X287826Y65867D01*
X287978Y65500D01*
X287826Y65133D01*
X287459Y64980D01*
X287091Y65133D01*
X286492Y65732D01*
X286492Y65732D01*
X286339Y66100D01*
Y67380D01*
X286259D01*
X285892Y67532D01*
X285740Y67899D01*
X285892Y68267D01*
X286259Y68419D01*
X286339D01*
Y68499D01*
X286492Y68866D01*
X286859Y69019D01*
X287226Y68866D01*
D02*
G37*
G36*
X284827Y68267D02*
X285427Y67667D01*
X285427Y67667D01*
X285472Y67559D01*
X285579Y67299D01*
X285579Y67299D01*
Y65500D01*
X285427Y65133D01*
X285059Y64980D01*
X284692Y65133D01*
X284540Y65500D01*
Y67084D01*
X284244Y67380D01*
X283180D01*
Y65500D01*
X283028Y65133D01*
X282660Y64980D01*
X282293Y65133D01*
X282141Y65500D01*
Y67899D01*
X282293Y68267D01*
X282660Y68419D01*
X284460D01*
X284827Y68267D01*
D02*
G37*
G36*
X277522Y68311D02*
X277629Y68267D01*
X277629Y68267D01*
X278229Y67667D01*
X278381Y67299D01*
Y66100D01*
X278229Y65732D01*
X277629Y65133D01*
X277629Y65133D01*
X277262Y64980D01*
X276062D01*
X275695Y65133D01*
X275095Y65732D01*
X274943Y66100D01*
Y67299D01*
D01*
Y67299D01*
X274988Y67407D01*
X275095Y67667D01*
X275095Y67667D01*
X275695Y68267D01*
X275695Y68267D01*
X276062Y68419D01*
X277262D01*
X277262Y68419D01*
X277522Y68311D01*
D02*
G37*
%LPC*%
G36*
X277047Y67380D02*
X276278D01*
X275982Y67084D01*
Y66315D01*
X276278Y66020D01*
X277047D01*
X277342Y66315D01*
Y67084D01*
X277047Y67380D01*
D02*
G37*
%LPD*%
G36*
X248157Y69574D02*
X248417Y69466D01*
X248417Y69466D01*
X249017Y68866D01*
X249169Y68499D01*
X249017Y68132D01*
X248649Y67980D01*
X248282Y68132D01*
X247834Y68579D01*
X247065D01*
X246769Y68284D01*
Y68114D01*
X247065Y67819D01*
X248049D01*
X248417Y67667D01*
X248417Y67667D01*
X249017Y67067D01*
X249169Y66700D01*
Y66100D01*
X249017Y65732D01*
X249017Y65732D01*
X248417Y65133D01*
X248417Y65133D01*
X248157Y65025D01*
X248049Y64980D01*
X248049D01*
D01*
X246850D01*
X246482Y65133D01*
X245883Y65732D01*
X245730Y66100D01*
X245883Y66467D01*
X246250Y66619D01*
X246617Y66467D01*
X247065Y66020D01*
X247834D01*
X248130Y66315D01*
Y66484D01*
X247834Y66780D01*
X246850D01*
X246482Y66932D01*
X245883Y67532D01*
X245883Y67532D01*
X245730Y67899D01*
Y68499D01*
X245883Y68866D01*
X246482Y69466D01*
X246850Y69618D01*
X248049D01*
D01*
X248049D01*
X248157Y69574D01*
D02*
G37*
G36*
X255614Y68267D02*
X256214Y67667D01*
X256214Y67667D01*
X256259Y67559D01*
X256366Y67299D01*
X256366Y67299D01*
Y65500D01*
X256214Y65133D01*
X255847Y64980D01*
X255480Y65133D01*
X255327Y65500D01*
Y67084D01*
X255247Y67164D01*
X255167Y67084D01*
Y65500D01*
X255015Y65133D01*
X254647Y64980D01*
X254280Y65133D01*
X254128Y65500D01*
Y67084D01*
X253967Y67245D01*
Y65500D01*
X253815Y65133D01*
X253448Y64980D01*
X253080Y65133D01*
X252928Y65500D01*
Y67899D01*
X253080Y68267D01*
X253448Y68419D01*
X254047D01*
X254415Y68267D01*
X254647Y68034D01*
X254880Y68267D01*
X255247Y68419D01*
X255614Y68267D01*
D02*
G37*
G36*
X265211Y69466D02*
X265364Y69099D01*
Y66020D01*
X265444D01*
X265811Y65867D01*
X265963Y65500D01*
X265811Y65133D01*
X265444Y64980D01*
X264244D01*
X263877Y65133D01*
X263725Y65500D01*
X263877Y65867D01*
X264244Y66020D01*
X264324D01*
Y68579D01*
X264244D01*
X263877Y68731D01*
X263725Y69099D01*
X263877Y69466D01*
X264244Y69618D01*
X264844D01*
X265211Y69466D01*
D02*
G37*
G36*
X262705Y68311D02*
X262812Y68267D01*
X262812Y68267D01*
X263412Y67667D01*
X263564Y67299D01*
Y66100D01*
X263412Y65732D01*
X262812Y65133D01*
X262812Y65133D01*
X262445Y64980D01*
X261245D01*
X260878Y65133D01*
X260278Y65732D01*
X260126Y66100D01*
Y67299D01*
D01*
Y67299D01*
X260170Y67407D01*
X260278Y67667D01*
X260278Y67667D01*
X260878Y68267D01*
X260878Y68267D01*
X261245Y68419D01*
X262445D01*
X262445Y68419D01*
X262705Y68311D01*
D02*
G37*
G36*
X257414Y69466D02*
X257566Y69099D01*
Y68419D01*
X258846D01*
X258846Y68419D01*
X259106Y68311D01*
X259213Y68267D01*
X259213Y68267D01*
X259813Y67667D01*
X259965Y67299D01*
Y66700D01*
Y66100D01*
X259813Y65732D01*
X259213Y65133D01*
X259213Y65133D01*
X258846Y64980D01*
X257047D01*
X256679Y65133D01*
X256527Y65500D01*
Y69099D01*
X256679Y69466D01*
X257047Y69618D01*
X257414Y69466D01*
D02*
G37*
%LPC*%
G36*
X262230Y67380D02*
X261460D01*
X261165Y67084D01*
Y66315D01*
X261460Y66020D01*
X262230D01*
X262525Y66315D01*
Y67084D01*
X262230Y67380D01*
D02*
G37*
G36*
X258631D02*
X257566D01*
Y66020D01*
X258631D01*
X258926Y66315D01*
Y66700D01*
Y67084D01*
X258631Y67380D01*
D02*
G37*
%LPD*%
G36*
X392080Y60229D02*
X392176Y59999D01*
Y58000D01*
X392080Y57770D01*
X391851Y57675D01*
X390351D01*
X390122Y57770D01*
X389622Y58270D01*
X389527Y58500D01*
Y59999D01*
X389622Y60229D01*
X389851Y60324D01*
X390081Y60229D01*
X390176Y59999D01*
Y58634D01*
X390486Y58325D01*
X391526D01*
Y59999D01*
X391621Y60229D01*
X391851Y60324D01*
X392080Y60229D01*
D02*
G37*
G36*
X385582Y61229D02*
X386082Y60729D01*
X386177Y60499D01*
Y59500D01*
X386082Y59270D01*
X385582Y58770D01*
X385554Y58758D01*
X386082Y58230D01*
X386177Y58000D01*
X386082Y57770D01*
X385853Y57675D01*
X385623Y57770D01*
X384718Y58675D01*
X384178D01*
Y58000D01*
X384083Y57770D01*
X383853Y57675D01*
X383624Y57770D01*
X383529Y58000D01*
Y60999D01*
X383624Y61229D01*
X383853Y61324D01*
X385353D01*
X385582Y61229D01*
D02*
G37*
G36*
X398078D02*
X398173Y60999D01*
Y58000D01*
X398078Y57770D01*
X397849Y57675D01*
X396349D01*
X396120Y57770D01*
X395620Y58270D01*
X395525Y58500D01*
Y59500D01*
X395620Y59729D01*
X396120Y60229D01*
X396349Y60324D01*
X397524D01*
Y60999D01*
X397619Y61229D01*
X397849Y61324D01*
X398078Y61229D01*
D02*
G37*
G36*
X394580Y60229D02*
X395079Y59729D01*
X395175Y59500D01*
Y58000D01*
X395079Y57770D01*
X394850Y57675D01*
X394620Y57770D01*
X394525Y58000D01*
Y59365D01*
X394215Y59675D01*
X393175D01*
Y58000D01*
X393080Y57770D01*
X392850Y57675D01*
X392621Y57770D01*
X392526Y58000D01*
Y59999D01*
X392621Y60229D01*
X392850Y60324D01*
X394350D01*
X394580Y60229D01*
D02*
G37*
G36*
X388581D02*
X389081Y59729D01*
X389177Y59500D01*
Y58500D01*
X389081Y58270D01*
X388581Y57770D01*
X388352Y57675D01*
X387352D01*
X387123Y57770D01*
X386623Y58270D01*
X386528Y58500D01*
Y59500D01*
D01*
Y59500D01*
X386623Y59729D01*
X387123Y60229D01*
X387352Y60324D01*
X388352D01*
X388581Y60229D01*
D02*
G37*
G36*
X392080Y52729D02*
X392176Y52499D01*
Y50500D01*
X392080Y50270D01*
X391851Y50175D01*
X390351D01*
X390122Y50270D01*
X389622Y50770D01*
X389527Y51000D01*
Y52499D01*
X389622Y52729D01*
X389851Y52824D01*
X390081Y52729D01*
X390176Y52499D01*
Y51134D01*
X390486Y50825D01*
X391526D01*
Y52499D01*
X391621Y52729D01*
X391851Y52824D01*
X392080Y52729D01*
D02*
G37*
G36*
X385582Y53729D02*
X386082Y53229D01*
X386177Y52999D01*
Y51999D01*
X386082Y51770D01*
X385582Y51270D01*
X385554Y51258D01*
X386082Y50730D01*
X386177Y50500D01*
X386082Y50270D01*
X385853Y50175D01*
X385623Y50270D01*
X384718Y51175D01*
X384178D01*
Y50500D01*
X384083Y50270D01*
X383853Y50175D01*
X383624Y50270D01*
X383529Y50500D01*
Y53499D01*
X383624Y53729D01*
X383853Y53824D01*
X385353D01*
X385582Y53729D01*
D02*
G37*
G36*
X398078D02*
X398173Y53499D01*
Y50500D01*
X398078Y50270D01*
X397849Y50175D01*
X396349D01*
X396120Y50270D01*
X395620Y50770D01*
X395525Y51000D01*
Y51999D01*
X395620Y52229D01*
X396120Y52729D01*
X396349Y52824D01*
X397524D01*
Y53499D01*
X397619Y53729D01*
X397849Y53824D01*
X398078Y53729D01*
D02*
G37*
G36*
X394580Y52729D02*
X395079Y52229D01*
X395175Y51999D01*
Y50500D01*
X395079Y50270D01*
X394850Y50175D01*
X394620Y50270D01*
X394525Y50500D01*
Y51865D01*
X394215Y52175D01*
X393175D01*
Y50500D01*
X393080Y50270D01*
X392850Y50175D01*
X392621Y50270D01*
X392526Y50500D01*
Y52499D01*
X392621Y52729D01*
X392850Y52824D01*
X394350D01*
X394580Y52729D01*
D02*
G37*
G36*
X388581D02*
X389081Y52229D01*
X389177Y51999D01*
Y51000D01*
X389081Y50770D01*
X388581Y50270D01*
X388352Y50175D01*
X387352D01*
X387123Y50270D01*
X386623Y50770D01*
X386528Y51000D01*
Y51999D01*
D01*
Y51999D01*
X386623Y52229D01*
X387123Y52729D01*
X387352Y52824D01*
X388352D01*
X388581Y52729D01*
D02*
G37*
G36*
X392080Y45229D02*
X392176Y44999D01*
Y43000D01*
X392080Y42770D01*
X391851Y42675D01*
X390351D01*
X390122Y42770D01*
X389622Y43270D01*
X389527Y43500D01*
Y44999D01*
X389622Y45229D01*
X389851Y45324D01*
X390081Y45229D01*
X390176Y44999D01*
Y43634D01*
X390486Y43325D01*
X391526D01*
Y44999D01*
X391621Y45229D01*
X391851Y45324D01*
X392080Y45229D01*
D02*
G37*
G36*
X385582Y46229D02*
X386082Y45729D01*
X386177Y45499D01*
Y44499D01*
X386082Y44270D01*
X385582Y43770D01*
X385554Y43758D01*
X386082Y43230D01*
X386177Y43000D01*
X386082Y42770D01*
X385853Y42675D01*
X385623Y42770D01*
X384718Y43675D01*
X384178D01*
Y43000D01*
X384083Y42770D01*
X383853Y42675D01*
X383624Y42770D01*
X383529Y43000D01*
Y45999D01*
X383624Y46229D01*
X383853Y46324D01*
X385353D01*
X385582Y46229D01*
D02*
G37*
G36*
X398078D02*
X398173Y45999D01*
Y43000D01*
X398078Y42770D01*
X397849Y42675D01*
X396349D01*
X396120Y42770D01*
X395620Y43270D01*
X395525Y43500D01*
Y44499D01*
X395620Y44729D01*
X396120Y45229D01*
X396349Y45324D01*
X397524D01*
Y45999D01*
X397619Y46229D01*
X397849Y46324D01*
X398078Y46229D01*
D02*
G37*
G36*
X394580Y45229D02*
X395079Y44729D01*
X395175Y44499D01*
Y43000D01*
X395079Y42770D01*
X394850Y42675D01*
X394620Y42770D01*
X394525Y43000D01*
Y44365D01*
X394215Y44675D01*
X393175D01*
Y43000D01*
X393080Y42770D01*
X392850Y42675D01*
X392621Y42770D01*
X392526Y43000D01*
Y44999D01*
X392621Y45229D01*
X392850Y45324D01*
X394350D01*
X394580Y45229D01*
D02*
G37*
G36*
X388581D02*
X389081Y44729D01*
X389177Y44499D01*
Y43500D01*
X389081Y43270D01*
X388581Y42770D01*
X388352Y42675D01*
X387352D01*
X387123Y42770D01*
X386623Y43270D01*
X386528Y43500D01*
Y44499D01*
D01*
Y44499D01*
X386623Y44729D01*
X387123Y45229D01*
X387352Y45324D01*
X388352D01*
X388581Y45229D01*
D02*
G37*
G36*
X392080Y37729D02*
X392176Y37499D01*
Y35500D01*
X392080Y35270D01*
X391851Y35175D01*
X390351D01*
X390122Y35270D01*
X389622Y35770D01*
X389527Y36000D01*
Y37499D01*
X389622Y37729D01*
X389851Y37824D01*
X390081Y37729D01*
X390176Y37499D01*
Y36134D01*
X390486Y35825D01*
X391526D01*
Y37499D01*
X391621Y37729D01*
X391851Y37824D01*
X392080Y37729D01*
D02*
G37*
G36*
X385582Y38729D02*
X386082Y38229D01*
X386177Y37999D01*
Y36999D01*
X386082Y36770D01*
X385582Y36270D01*
X385554Y36258D01*
X386082Y35730D01*
X386177Y35500D01*
X386082Y35270D01*
X385853Y35175D01*
X385623Y35270D01*
X384718Y36175D01*
X384178D01*
Y35500D01*
X384083Y35270D01*
X383853Y35175D01*
X383624Y35270D01*
X383529Y35500D01*
Y38499D01*
X383624Y38729D01*
X383853Y38824D01*
X385353D01*
X385582Y38729D01*
D02*
G37*
G36*
X398078D02*
X398173Y38499D01*
Y35500D01*
X398078Y35270D01*
X397849Y35175D01*
X396349D01*
X396120Y35270D01*
X395620Y35770D01*
X395525Y36000D01*
Y36999D01*
X395620Y37229D01*
X396120Y37729D01*
X396349Y37824D01*
X397524D01*
Y38499D01*
X397619Y38729D01*
X397849Y38824D01*
X398078Y38729D01*
D02*
G37*
G36*
X394580Y37729D02*
X395079Y37229D01*
X395175Y36999D01*
Y35500D01*
X395079Y35270D01*
X394850Y35175D01*
X394620Y35270D01*
X394525Y35500D01*
Y36865D01*
X394215Y37175D01*
X393175D01*
Y35500D01*
X393080Y35270D01*
X392850Y35175D01*
X392621Y35270D01*
X392526Y35500D01*
Y37499D01*
X392621Y37729D01*
X392850Y37824D01*
X394350D01*
X394580Y37729D01*
D02*
G37*
G36*
X388581D02*
X389081Y37229D01*
X389177Y36999D01*
Y36000D01*
X389081Y35770D01*
X388581Y35270D01*
X388352Y35175D01*
X387352D01*
X387123Y35270D01*
X386623Y35770D01*
X386528Y36000D01*
Y36999D01*
D01*
Y36999D01*
X386623Y37229D01*
X387123Y37729D01*
X387352Y37824D01*
X388352D01*
X388581Y37729D01*
D02*
G37*
%LPC*%
G36*
X385218Y60674D02*
X384178D01*
Y59324D01*
X385218D01*
X385528Y59634D01*
Y60365D01*
X385218Y60674D01*
D02*
G37*
G36*
X397524Y59675D02*
X396484D01*
X396174Y59365D01*
Y58634D01*
X396484Y58325D01*
X397524D01*
Y59675D01*
D02*
G37*
G36*
X388217D02*
X387487D01*
X387177Y59365D01*
Y58634D01*
X387487Y58325D01*
X388217D01*
X388527Y58634D01*
Y59365D01*
X388217Y59675D01*
D02*
G37*
G36*
X385218Y53174D02*
X384178D01*
Y51824D01*
X385218D01*
X385528Y52134D01*
Y52865D01*
X385218Y53174D01*
D02*
G37*
G36*
X397524Y52175D02*
X396484D01*
X396174Y51865D01*
Y51134D01*
X396484Y50825D01*
X397524D01*
Y52175D01*
D02*
G37*
G36*
X388217D02*
X387487D01*
X387177Y51865D01*
Y51134D01*
X387487Y50825D01*
X388217D01*
X388527Y51134D01*
Y51865D01*
X388217Y52175D01*
D02*
G37*
G36*
X385218Y45674D02*
X384178D01*
Y44324D01*
X385218D01*
X385528Y44634D01*
Y45365D01*
X385218Y45674D01*
D02*
G37*
G36*
X397524Y44675D02*
X396484D01*
X396174Y44365D01*
Y43634D01*
X396484Y43325D01*
X397524D01*
Y44675D01*
D02*
G37*
G36*
X388217D02*
X387487D01*
X387177Y44365D01*
Y43634D01*
X387487Y43325D01*
X388217D01*
X388527Y43634D01*
Y44365D01*
X388217Y44675D01*
D02*
G37*
G36*
X385218Y38174D02*
X384178D01*
Y36824D01*
X385218D01*
X385528Y37134D01*
Y37865D01*
X385218Y38174D01*
D02*
G37*
G36*
X397524Y37175D02*
X396484D01*
X396174Y36865D01*
Y36134D01*
X396484Y35825D01*
X397524D01*
Y37175D01*
D02*
G37*
G36*
X388217D02*
X387487D01*
X387177Y36865D01*
Y36134D01*
X387487Y35825D01*
X388217D01*
X388527Y36134D01*
Y36865D01*
X388217Y37175D01*
D02*
G37*
%LPD*%
G36*
X366467Y61229D02*
X366562Y60999D01*
Y58000D01*
X366467Y57770D01*
X366237Y57675D01*
X366007Y57770D01*
X365912Y58000D01*
Y59175D01*
X364562D01*
Y58000D01*
X364467Y57770D01*
X364238Y57675D01*
X364008Y57770D01*
X363913Y58000D01*
Y59500D01*
Y60999D01*
X364008Y61229D01*
X364238Y61324D01*
X364467Y61229D01*
X364562Y60999D01*
Y59824D01*
X365912D01*
Y60999D01*
X366007Y61229D01*
X366237Y61324D01*
X366467Y61229D01*
D02*
G37*
G36*
X359969D02*
X360469Y60729D01*
X360564Y60499D01*
Y59500D01*
X360469Y59270D01*
X359969Y58770D01*
X359739Y58675D01*
X359739D01*
D01*
X358564D01*
Y58000D01*
X358469Y57770D01*
X358240Y57675D01*
X358010Y57770D01*
X357915Y58000D01*
Y60999D01*
X358010Y61229D01*
X358240Y61324D01*
X359739D01*
X359969Y61229D01*
D02*
G37*
G36*
X363468D02*
X363563Y60999D01*
X363468Y60769D01*
X363238Y60674D01*
X362563D01*
Y58000D01*
X362468Y57770D01*
X362238Y57675D01*
X362009Y57770D01*
X361913Y58000D01*
Y60674D01*
X361239D01*
X361009Y60769D01*
X360914Y60999D01*
X361009Y61229D01*
X361239Y61324D01*
X363238D01*
X363468Y61229D01*
D02*
G37*
G36*
X369466Y53729D02*
X369561Y53499D01*
Y50500D01*
X369466Y50270D01*
X369236Y50175D01*
X369006Y50270D01*
X368911Y50500D01*
Y51675D01*
X367561D01*
Y50500D01*
X367466Y50270D01*
X367237Y50175D01*
X367007Y50270D01*
X366912Y50500D01*
Y51999D01*
Y53499D01*
X367007Y53729D01*
X367237Y53824D01*
X367466Y53729D01*
X367561Y53499D01*
Y52324D01*
X368911D01*
Y53499D01*
X369006Y53729D01*
X369236Y53824D01*
X369466Y53729D01*
D02*
G37*
G36*
X360469D02*
X360564Y53499D01*
Y50500D01*
X360551Y50469D01*
X360557Y50436D01*
X360505Y50358D01*
X360469Y50270D01*
X360438Y50258D01*
X360419Y50230D01*
X360326Y50212D01*
X360239Y50175D01*
X360208Y50188D01*
X360175Y50182D01*
X360097Y50234D01*
X360009Y50270D01*
X359997Y50301D01*
X359969Y50320D01*
X358564Y52426D01*
Y50500D01*
X358469Y50270D01*
X358240Y50175D01*
X358010Y50270D01*
X357915Y50500D01*
Y53499D01*
X357928Y53530D01*
X357921Y53563D01*
X357974Y53641D01*
X358010Y53729D01*
X358041Y53741D01*
X358059Y53769D01*
X358152Y53788D01*
X358240Y53824D01*
X358270Y53811D01*
X358303Y53817D01*
X358382Y53765D01*
X358469Y53729D01*
X358482Y53698D01*
X358510Y53679D01*
X359914Y51573D01*
Y53499D01*
X360009Y53729D01*
X360239Y53824D01*
X360469Y53729D01*
D02*
G37*
G36*
X362968D02*
X363468Y53229D01*
X363563Y52999D01*
Y51999D01*
X363468Y51770D01*
X362968Y51270D01*
X362738Y51175D01*
X362738D01*
D01*
X361563D01*
Y50500D01*
X361468Y50270D01*
X361239Y50175D01*
X361009Y50270D01*
X360914Y50500D01*
Y53499D01*
X361009Y53729D01*
X361239Y53824D01*
X362738D01*
X362968Y53729D01*
D02*
G37*
G36*
X366467D02*
X366562Y53499D01*
X366467Y53269D01*
X366237Y53174D01*
X365562D01*
Y50500D01*
X365467Y50270D01*
X365237Y50175D01*
X365008Y50270D01*
X364913Y50500D01*
Y53174D01*
X364238D01*
X364008Y53269D01*
X363913Y53499D01*
X364008Y53729D01*
X364238Y53824D01*
X366237D01*
X366467Y53729D01*
D02*
G37*
G36*
Y46229D02*
X366562Y45999D01*
Y43000D01*
X366467Y42770D01*
X366237Y42675D01*
X366007Y42770D01*
X365912Y43000D01*
Y44175D01*
X364562D01*
Y43000D01*
X364467Y42770D01*
X364238Y42675D01*
X364008Y42770D01*
X363913Y43000D01*
Y44499D01*
Y45999D01*
X364008Y46229D01*
X364238Y46324D01*
X364467Y46229D01*
X364562Y45999D01*
Y44824D01*
X365912D01*
Y45999D01*
X366007Y46229D01*
X366237Y46324D01*
X366467Y46229D01*
D02*
G37*
G36*
X359969D02*
X360469Y45729D01*
X360564Y45499D01*
Y44499D01*
X360469Y44270D01*
X359969Y43770D01*
X359739Y43675D01*
X359739D01*
D01*
X358564D01*
Y43000D01*
X358469Y42770D01*
X358240Y42675D01*
X358010Y42770D01*
X357915Y43000D01*
Y45999D01*
X358010Y46229D01*
X358240Y46324D01*
X359739D01*
X359969Y46229D01*
D02*
G37*
G36*
X363468D02*
X363563Y45999D01*
X363468Y45769D01*
X363238Y45674D01*
X362563D01*
Y43000D01*
X362468Y42770D01*
X362238Y42675D01*
X362009Y42770D01*
X361913Y43000D01*
Y45674D01*
X361239D01*
X361009Y45769D01*
X360914Y45999D01*
X361009Y46229D01*
X361239Y46324D01*
X363238D01*
X363468Y46229D01*
D02*
G37*
G36*
X366467Y38729D02*
X366562Y38499D01*
Y35500D01*
X366467Y35270D01*
X366237Y35175D01*
X366007Y35270D01*
X365912Y35500D01*
Y36675D01*
X364562D01*
Y35500D01*
X364467Y35270D01*
X364238Y35175D01*
X364008Y35270D01*
X363913Y35500D01*
Y36999D01*
Y38499D01*
X364008Y38729D01*
X364238Y38824D01*
X364467Y38729D01*
X364562Y38499D01*
Y37324D01*
X365912D01*
Y38499D01*
X366007Y38729D01*
X366237Y38824D01*
X366467Y38729D01*
D02*
G37*
G36*
X359969D02*
X360469Y38229D01*
X360564Y37999D01*
Y36999D01*
X360469Y36770D01*
X359969Y36270D01*
X359739Y36175D01*
X359739D01*
D01*
X358564D01*
Y35500D01*
X358469Y35270D01*
X358240Y35175D01*
X358010Y35270D01*
X357915Y35500D01*
Y38499D01*
X358010Y38729D01*
X358240Y38824D01*
X359739D01*
X359969Y38729D01*
D02*
G37*
G36*
X363468D02*
X363563Y38499D01*
X363468Y38269D01*
X363238Y38174D01*
X362563D01*
Y35500D01*
X362468Y35270D01*
X362238Y35175D01*
X362009Y35270D01*
X361913Y35500D01*
Y38174D01*
X361239D01*
X361009Y38269D01*
X360914Y38499D01*
X361009Y38729D01*
X361239Y38824D01*
X363238D01*
X363468Y38729D01*
D02*
G37*
%LPC*%
G36*
X359605Y60674D02*
X358564D01*
Y59324D01*
X359605D01*
X359914Y59634D01*
Y60365D01*
X359605Y60674D01*
D02*
G37*
G36*
X362604Y53174D02*
X361563D01*
Y51824D01*
X362604D01*
X362913Y52134D01*
Y52865D01*
X362604Y53174D01*
D02*
G37*
G36*
X359605Y45674D02*
X358564D01*
Y44324D01*
X359605D01*
X359914Y44634D01*
Y45365D01*
X359605Y45674D01*
D02*
G37*
G36*
Y38174D02*
X358564D01*
Y36824D01*
X359605D01*
X359914Y37134D01*
Y37865D01*
X359605Y38174D01*
D02*
G37*
%LPD*%
G36*
X314781Y61229D02*
X315281Y60729D01*
X315376Y60499D01*
Y58500D01*
X315281Y58270D01*
X314781Y57770D01*
X314552Y57675D01*
X313552D01*
X313323Y57770D01*
X312823Y58270D01*
X312728Y58500D01*
X312823Y58729D01*
X313052Y58825D01*
X313282Y58729D01*
X313687Y58325D01*
X314417D01*
X314727Y58634D01*
Y59175D01*
X313552D01*
X313323Y59270D01*
X312823Y59770D01*
X312728Y59999D01*
Y60499D01*
X312823Y60729D01*
X313323Y61229D01*
X313552Y61324D01*
X314552D01*
D01*
X314552D01*
X314781Y61229D01*
D02*
G37*
G36*
X306284D02*
X306784Y60729D01*
X306879Y60499D01*
Y58500D01*
X306784Y58270D01*
X306284Y57770D01*
X306055Y57675D01*
X305055D01*
X304825Y57770D01*
X304326Y58270D01*
X304230Y58500D01*
X304326Y58729D01*
X304555Y58825D01*
X304785Y58729D01*
X305189Y58325D01*
X305920D01*
X306230Y58634D01*
Y59175D01*
X305055D01*
X304825Y59270D01*
X304326Y59770D01*
X304230Y59999D01*
Y60499D01*
X304326Y60729D01*
X304825Y61229D01*
X305055Y61324D01*
X306055D01*
D01*
X306055D01*
X306284Y61229D01*
D02*
G37*
G36*
X319780D02*
X319875Y60999D01*
X319780Y60769D01*
X319550Y60674D01*
X319321Y60769D01*
X319226Y60999D01*
X319321Y61229D01*
X319550Y61324D01*
X319780Y61229D01*
D02*
G37*
G36*
X348770Y60229D02*
X349270Y59729D01*
X349365Y59500D01*
Y58000D01*
X349270Y57770D01*
X349041Y57675D01*
X348811Y57770D01*
X348716Y58000D01*
Y59365D01*
X348541Y59540D01*
X348366Y59365D01*
Y58000D01*
X348271Y57770D01*
X348041Y57675D01*
X347811Y57770D01*
X347716Y58000D01*
Y59365D01*
X347407Y59675D01*
X347366D01*
Y58000D01*
X347271Y57770D01*
X347041Y57675D01*
X346812Y57770D01*
X346717Y58000D01*
Y59999D01*
X346812Y60229D01*
X347041Y60324D01*
X347541D01*
X347771Y60229D01*
X348041Y59959D01*
X348311Y60229D01*
X348541Y60324D01*
X348770Y60229D01*
D02*
G37*
G36*
X345771D02*
X346271Y59729D01*
X346366Y59500D01*
Y58000D01*
X346271Y57770D01*
X346042Y57675D01*
X345812Y57770D01*
X345717Y58000D01*
Y59365D01*
X345542Y59540D01*
X345367Y59365D01*
Y58000D01*
X345272Y57770D01*
X345042Y57675D01*
X344812Y57770D01*
X344717Y58000D01*
Y59365D01*
X344408Y59675D01*
X344367D01*
Y58000D01*
X344272Y57770D01*
X344042Y57675D01*
X343813Y57770D01*
X343718Y58000D01*
Y59999D01*
X343813Y60229D01*
X344042Y60324D01*
X344542D01*
X344772Y60229D01*
X345042Y59959D01*
X345312Y60229D01*
X345542Y60324D01*
X345771Y60229D01*
D02*
G37*
G36*
X317780D02*
X318280Y59729D01*
X318375Y59500D01*
Y58000D01*
X318280Y57770D01*
X318051Y57675D01*
X317821Y57770D01*
X317726Y58000D01*
Y59365D01*
X317551Y59540D01*
X317376Y59365D01*
Y58000D01*
X317281Y57770D01*
X317051Y57675D01*
X316821Y57770D01*
X316726Y58000D01*
Y59365D01*
X316417Y59675D01*
X316376D01*
Y58000D01*
X316281Y57770D01*
X316051Y57675D01*
X315822Y57770D01*
X315727Y58000D01*
Y59999D01*
X315822Y60229D01*
X316051Y60324D01*
X316551D01*
X316781Y60229D01*
X317051Y59959D01*
X317321Y60229D01*
X317551Y60324D01*
X317780Y60229D01*
D02*
G37*
G36*
X337274Y61229D02*
X337369Y60999D01*
X337274Y60769D01*
X337045Y60674D01*
X335370D01*
Y60025D01*
X335900Y60290D01*
X335975Y60295D01*
X336045Y60324D01*
X336545D01*
X336774Y60229D01*
X337274Y59729D01*
X337369Y59500D01*
Y58500D01*
X337274Y58270D01*
X336774Y57770D01*
X336545Y57675D01*
X336545D01*
D01*
X335545D01*
X335315Y57770D01*
X334816Y58270D01*
X334720Y58500D01*
X334816Y58729D01*
X335045Y58825D01*
X335275Y58729D01*
X335680Y58325D01*
X336410D01*
X336720Y58634D01*
Y59365D01*
X336410Y59675D01*
X336122D01*
X335190Y59209D01*
X335115Y59204D01*
X335045Y59175D01*
X334996Y59195D01*
X334943Y59192D01*
X334885Y59241D01*
X334816Y59270D01*
X334795Y59319D01*
X334755Y59354D01*
X334749Y59430D01*
X334720Y59500D01*
Y60999D01*
X334816Y61229D01*
X335045Y61324D01*
X337045D01*
X337274Y61229D01*
D02*
G37*
G36*
X350270D02*
X351270Y60229D01*
X351365Y59999D01*
Y59000D01*
X351270Y58770D01*
X350270Y57770D01*
X350040Y57675D01*
X349811Y57770D01*
X349716Y58000D01*
X349811Y58230D01*
X350715Y59134D01*
Y59865D01*
X349811Y60769D01*
X349716Y60999D01*
X349811Y61229D01*
X350040Y61324D01*
X350270Y61229D01*
D02*
G37*
G36*
X342772D02*
X343272Y60729D01*
X343367Y60499D01*
Y58500D01*
X343272Y58270D01*
X342772Y57770D01*
X342543Y57675D01*
X342543D01*
D01*
X341543D01*
X341314Y57770D01*
X340814Y58270D01*
X340719Y58500D01*
Y60499D01*
X340814Y60729D01*
X341314Y61229D01*
X341543Y61324D01*
X342543D01*
X342772Y61229D01*
D02*
G37*
G36*
X339773D02*
X340273Y60729D01*
X340368Y60499D01*
Y58500D01*
X340273Y58270D01*
X339773Y57770D01*
X339544Y57675D01*
X339544D01*
D01*
X338544D01*
X338315Y57770D01*
X337815Y58270D01*
X337719Y58500D01*
Y60499D01*
X337815Y60729D01*
X338315Y61229D01*
X338544Y61324D01*
X339544D01*
X339773Y61229D01*
D02*
G37*
G36*
X333276Y58729D02*
X333371Y58500D01*
Y58000D01*
X333276Y57770D01*
X333046Y57675D01*
X332546D01*
X332316Y57770D01*
X332221Y58000D01*
Y58500D01*
X332316Y58729D01*
X332546Y58825D01*
X333046D01*
X333276Y58729D01*
D02*
G37*
G36*
X331276Y61229D02*
X331776Y60729D01*
X331871Y60499D01*
Y58500D01*
X331776Y58270D01*
X331276Y57770D01*
X331047Y57675D01*
X331047D01*
D01*
X330047D01*
X329817Y57770D01*
X329317Y58270D01*
X329222Y58500D01*
Y60499D01*
X329317Y60729D01*
X329817Y61229D01*
X330047Y61324D01*
X331047D01*
X331276Y61229D01*
D02*
G37*
G36*
X328277D02*
X328372Y60999D01*
X328277Y60769D01*
X327373Y59865D01*
Y59134D01*
X328277Y58230D01*
X328372Y58000D01*
X328277Y57770D01*
X328047Y57675D01*
X327818Y57770D01*
X326818Y58770D01*
X326723Y59000D01*
Y59999D01*
X326818Y60229D01*
X327818Y61229D01*
X328047Y61324D01*
X328277Y61229D01*
D02*
G37*
G36*
X322279D02*
X322374Y60999D01*
Y58325D01*
X322549D01*
X322779Y58230D01*
X322874Y58000D01*
X322779Y57770D01*
X322549Y57675D01*
X321550D01*
X321320Y57770D01*
X321225Y58000D01*
X321320Y58230D01*
X321550Y58325D01*
X321725D01*
Y60674D01*
X321550D01*
X321320Y60769D01*
X321225Y60999D01*
X321320Y61229D01*
X321550Y61324D01*
X322049D01*
X322279Y61229D01*
D02*
G37*
G36*
X319780Y60229D02*
X319875Y59999D01*
Y58325D01*
X320050D01*
X320280Y58230D01*
X320375Y58000D01*
X320280Y57770D01*
X320050Y57675D01*
X319050D01*
X318821Y57770D01*
X318726Y58000D01*
X318821Y58230D01*
X319050Y58325D01*
X319226D01*
Y59675D01*
X319050D01*
X318821Y59770D01*
X318726Y59999D01*
X318821Y60229D01*
X319050Y60324D01*
X319550D01*
X319780Y60229D01*
D02*
G37*
G36*
X312343Y61144D02*
X312361Y60896D01*
X312198Y60709D01*
X311245Y60232D01*
X310837Y59824D01*
X311553D01*
D01*
X311553D01*
X311782Y59729D01*
X312282Y59229D01*
X312377Y59000D01*
Y58500D01*
X312282Y58270D01*
X311782Y57770D01*
X311553Y57675D01*
X310553D01*
X310324Y57770D01*
X309824Y58270D01*
X309729Y58500D01*
Y59500D01*
X309796Y59662D01*
X309824Y59729D01*
X310823Y60729D01*
X310873Y60749D01*
X310908Y60790D01*
X311907Y61290D01*
X312155Y61307D01*
X312343Y61144D01*
D02*
G37*
G36*
X308284Y58729D02*
X308379Y58500D01*
Y58000D01*
X308284Y57770D01*
X308054Y57675D01*
X307554D01*
X307325Y57770D01*
X307229Y58000D01*
Y58500D01*
X307325Y58729D01*
X307554Y58825D01*
X308054D01*
X308284Y58729D01*
D02*
G37*
G36*
X302785Y61229D02*
X302881Y60999D01*
Y58325D01*
X303056D01*
X303285Y58230D01*
X303380Y58000D01*
X303285Y57770D01*
X303056Y57675D01*
X302056D01*
X301826Y57770D01*
X301731Y58000D01*
X301826Y58230D01*
X302056Y58325D01*
X302231D01*
Y60247D01*
X302056Y60175D01*
X301826Y60270D01*
X301731Y60499D01*
X301826Y60729D01*
X302326Y61229D01*
X302556Y61324D01*
X302785Y61229D01*
D02*
G37*
G36*
X321279Y53729D02*
X321375Y53499D01*
X321279Y53269D01*
X321050Y53174D01*
X320820Y53269D01*
X320725Y53499D01*
X320820Y53729D01*
X321050Y53824D01*
X321279Y53729D01*
D02*
G37*
G36*
X350270Y52729D02*
X350770Y52229D01*
X350865Y51999D01*
Y50500D01*
X350770Y50270D01*
X350540Y50175D01*
X350311Y50270D01*
X350216Y50500D01*
Y51865D01*
X350040Y52040D01*
X349865Y51865D01*
Y50500D01*
X349770Y50270D01*
X349540Y50175D01*
X349311Y50270D01*
X349216Y50500D01*
Y51865D01*
X348906Y52175D01*
X348866D01*
Y50500D01*
X348770Y50270D01*
X348541Y50175D01*
X348311Y50270D01*
X348216Y50500D01*
Y52499D01*
X348311Y52729D01*
X348541Y52824D01*
X349041D01*
X349270Y52729D01*
X349540Y52459D01*
X349811Y52729D01*
X350040Y52824D01*
X350270Y52729D01*
D02*
G37*
G36*
X347271D02*
X347771Y52229D01*
X347866Y51999D01*
Y50500D01*
X347771Y50270D01*
X347541Y50175D01*
X347311Y50270D01*
X347216Y50500D01*
Y51865D01*
X347041Y52040D01*
X346866Y51865D01*
Y50500D01*
X346771Y50270D01*
X346542Y50175D01*
X346312Y50270D01*
X346217Y50500D01*
Y51865D01*
X345907Y52175D01*
X345866D01*
Y50500D01*
X345771Y50270D01*
X345542Y50175D01*
X345312Y50270D01*
X345217Y50500D01*
Y52499D01*
X345312Y52729D01*
X345542Y52824D01*
X346042D01*
X346271Y52729D01*
X346542Y52459D01*
X346812Y52729D01*
X347041Y52824D01*
X347271Y52729D01*
D02*
G37*
G36*
X319280D02*
X319780Y52229D01*
X319875Y51999D01*
Y50500D01*
X319780Y50270D01*
X319550Y50175D01*
X319321Y50270D01*
X319226Y50500D01*
Y51865D01*
X319050Y52040D01*
X318875Y51865D01*
Y50500D01*
X318780Y50270D01*
X318551Y50175D01*
X318321Y50270D01*
X318226Y50500D01*
Y51865D01*
X317916Y52175D01*
X317876D01*
Y50500D01*
X317780Y50270D01*
X317551Y50175D01*
X317321Y50270D01*
X317226Y50500D01*
Y52499D01*
X317321Y52729D01*
X317551Y52824D01*
X318051D01*
X318280Y52729D01*
X318551Y52459D01*
X318821Y52729D01*
X319050Y52824D01*
X319280Y52729D01*
D02*
G37*
G36*
X332776Y53729D02*
X333276Y53229D01*
X333371Y52999D01*
Y52499D01*
X333276Y52270D01*
X333005Y51999D01*
X333276Y51729D01*
X333371Y51500D01*
Y51000D01*
X333276Y50770D01*
X332776Y50270D01*
X332546Y50175D01*
X332546D01*
D01*
X331546D01*
X331317Y50270D01*
X330817Y50770D01*
X330722Y51000D01*
X330817Y51229D01*
X331047Y51325D01*
X331276Y51229D01*
X331681Y50825D01*
X332412D01*
X332721Y51134D01*
Y51365D01*
X332412Y51675D01*
X332046D01*
X331817Y51770D01*
X331721Y51999D01*
X331817Y52229D01*
X332046Y52324D01*
X332412D01*
X332721Y52634D01*
Y52865D01*
X332412Y53174D01*
X331681D01*
X331276Y52770D01*
X331047Y52675D01*
X330817Y52770D01*
X330722Y52999D01*
X330817Y53229D01*
X331317Y53729D01*
X331546Y53824D01*
X332546D01*
X332776Y53729D01*
D02*
G37*
G36*
X351769D02*
X352769Y52729D01*
X352864Y52499D01*
Y51500D01*
X352769Y51270D01*
X351769Y50270D01*
X351540Y50175D01*
X351310Y50270D01*
X351215Y50500D01*
X351310Y50730D01*
X352215Y51634D01*
Y52365D01*
X351310Y53269D01*
X351215Y53499D01*
X351310Y53729D01*
X351540Y53824D01*
X351769Y53729D01*
D02*
G37*
G36*
X344272D02*
X344772Y53229D01*
X344867Y52999D01*
Y51000D01*
X344772Y50770D01*
X344272Y50270D01*
X344042Y50175D01*
X344042D01*
D01*
X343043D01*
X342813Y50270D01*
X342313Y50770D01*
X342218Y51000D01*
Y52999D01*
X342313Y53229D01*
X342813Y53729D01*
X343043Y53824D01*
X344042D01*
X344272Y53729D01*
D02*
G37*
G36*
X341273D02*
X341773Y53229D01*
X341868Y52999D01*
Y51000D01*
X341773Y50770D01*
X341273Y50270D01*
X341043Y50175D01*
X341043D01*
D01*
X340044D01*
X339814Y50270D01*
X339314Y50770D01*
X339219Y51000D01*
Y52999D01*
X339314Y53229D01*
X339814Y53729D01*
X340044Y53824D01*
X341043D01*
X341273Y53729D01*
D02*
G37*
G36*
X338274D02*
X338774Y53229D01*
X338869Y52999D01*
Y51000D01*
X338774Y50770D01*
X338274Y50270D01*
X338044Y50175D01*
X338044D01*
D01*
X337045D01*
X336815Y50270D01*
X336315Y50770D01*
X336220Y51000D01*
Y52999D01*
X336315Y53229D01*
X336815Y53729D01*
X337045Y53824D01*
X338044D01*
X338274Y53729D01*
D02*
G37*
G36*
X334775Y51229D02*
X334870Y51000D01*
Y50500D01*
X334775Y50270D01*
X334545Y50175D01*
X334046D01*
X333816Y50270D01*
X333721Y50500D01*
Y51000D01*
X333816Y51229D01*
X334046Y51325D01*
X334545D01*
X334775Y51229D01*
D02*
G37*
G36*
X329777Y53729D02*
X329872Y53499D01*
X329777Y53269D01*
X328872Y52365D01*
Y51634D01*
X329777Y50730D01*
X329872Y50500D01*
X329777Y50270D01*
X329547Y50175D01*
X329317Y50270D01*
X328318Y51270D01*
X328223Y51500D01*
Y52499D01*
X328318Y52729D01*
X329317Y53729D01*
X329547Y53824D01*
X329777Y53729D01*
D02*
G37*
G36*
X323779D02*
X323874Y53499D01*
Y50825D01*
X324049D01*
X324278Y50730D01*
X324374Y50500D01*
X324278Y50270D01*
X324049Y50175D01*
X323049D01*
X322819Y50270D01*
X322724Y50500D01*
X322819Y50730D01*
X323049Y50825D01*
X323224D01*
Y53174D01*
X323049D01*
X322819Y53269D01*
X322724Y53499D01*
X322819Y53729D01*
X323049Y53824D01*
X323549D01*
X323779Y53729D01*
D02*
G37*
G36*
X321279Y52729D02*
X321375Y52499D01*
Y50825D01*
X321550D01*
X321779Y50730D01*
X321874Y50500D01*
X321779Y50270D01*
X321550Y50175D01*
X320550D01*
X320320Y50270D01*
X320225Y50500D01*
X320320Y50730D01*
X320550Y50825D01*
X320725D01*
Y52175D01*
X320550D01*
X320320Y52270D01*
X320225Y52499D01*
X320320Y52729D01*
X320550Y52824D01*
X321050D01*
X321279Y52729D01*
D02*
G37*
G36*
X315781Y53729D02*
X315876Y53499D01*
Y50825D01*
X316051D01*
X316281Y50730D01*
X316376Y50500D01*
X316281Y50270D01*
X316051Y50175D01*
X315052D01*
X314822Y50270D01*
X314727Y50500D01*
X314822Y50730D01*
X315052Y50825D01*
X315227D01*
Y52747D01*
X315052Y52675D01*
X314822Y52770D01*
X314727Y52999D01*
X314822Y53229D01*
X315322Y53729D01*
X315551Y53824D01*
X315781Y53729D01*
D02*
G37*
G36*
X313282D02*
X313377Y53499D01*
Y50825D01*
X313552D01*
X313782Y50730D01*
X313877Y50500D01*
X313782Y50270D01*
X313552Y50175D01*
X312552D01*
X312323Y50270D01*
X312228Y50500D01*
X312323Y50730D01*
X312552Y50825D01*
X312728D01*
Y52747D01*
X312552Y52675D01*
X312323Y52770D01*
X312228Y52999D01*
X312323Y53229D01*
X312823Y53729D01*
X313052Y53824D01*
X313282Y53729D01*
D02*
G37*
G36*
X310783Y51229D02*
X310878Y51000D01*
Y50500D01*
X310783Y50270D01*
X310553Y50175D01*
X310053D01*
X309824Y50270D01*
X309729Y50500D01*
Y51000D01*
X309824Y51229D01*
X310053Y51325D01*
X310553D01*
X310783Y51229D01*
D02*
G37*
G36*
X308783Y53729D02*
X309283Y53229D01*
X309378Y52999D01*
Y52499D01*
X309283Y52270D01*
X309013Y51999D01*
X309283Y51729D01*
X309378Y51500D01*
Y51000D01*
X309283Y50770D01*
X308783Y50270D01*
X308554Y50175D01*
X308554D01*
D01*
X307554D01*
X307325Y50270D01*
X306825Y50770D01*
X306730Y51000D01*
Y51500D01*
X306825Y51729D01*
X307095Y51999D01*
X306825Y52270D01*
X306730Y52499D01*
Y52499D01*
D01*
Y52999D01*
X306825Y53229D01*
X307325Y53729D01*
X307554Y53824D01*
X308554D01*
X308783Y53729D01*
D02*
G37*
G36*
X305285D02*
X305380Y53499D01*
Y50825D01*
X305555D01*
X305784Y50730D01*
X305879Y50500D01*
X305784Y50270D01*
X305555Y50175D01*
X304555D01*
X304326Y50270D01*
X304230Y50500D01*
X304326Y50730D01*
X304555Y50825D01*
X304730D01*
Y52747D01*
X304555Y52675D01*
X304326Y52770D01*
X304230Y52999D01*
X304326Y53229D01*
X304825Y53729D01*
X305055Y53824D01*
X305285Y53729D01*
D02*
G37*
G36*
X302785D02*
X302881Y53499D01*
Y50825D01*
X303056D01*
X303285Y50730D01*
X303380Y50500D01*
X303285Y50270D01*
X303056Y50175D01*
X302056D01*
X301826Y50270D01*
X301731Y50500D01*
X301826Y50730D01*
X302056Y50825D01*
X302231D01*
Y52747D01*
X302056Y52675D01*
X301826Y52770D01*
X301731Y52999D01*
X301826Y53229D01*
X302326Y53729D01*
X302556Y53824D01*
X302785Y53729D01*
D02*
G37*
G36*
X337274Y46229D02*
X337774Y45729D01*
X337869Y45499D01*
Y43500D01*
X337774Y43270D01*
X337274Y42770D01*
X337045Y42675D01*
X336045D01*
X335815Y42770D01*
X335315Y43270D01*
X335220Y43500D01*
X335315Y43729D01*
X335545Y43825D01*
X335775Y43729D01*
X336179Y43325D01*
X336910D01*
X337220Y43634D01*
Y44175D01*
X336045D01*
X335815Y44270D01*
X335315Y44770D01*
X335220Y44999D01*
Y45499D01*
X335315Y45729D01*
X335815Y46229D01*
X336045Y46324D01*
X337045D01*
D01*
X337045D01*
X337274Y46229D01*
D02*
G37*
G36*
X320280D02*
X320375Y45999D01*
X320280Y45769D01*
X320050Y45674D01*
X319820Y45769D01*
X319725Y45999D01*
X319820Y46229D01*
X320050Y46324D01*
X320280Y46229D01*
D02*
G37*
G36*
X318280Y45229D02*
X318780Y44729D01*
X318875Y44499D01*
Y43000D01*
X318780Y42770D01*
X318551Y42675D01*
X318321Y42770D01*
X318226Y43000D01*
Y44365D01*
X318051Y44540D01*
X317876Y44365D01*
Y43000D01*
X317780Y42770D01*
X317551Y42675D01*
X317321Y42770D01*
X317226Y43000D01*
Y44365D01*
X316916Y44675D01*
X316876D01*
Y43000D01*
X316781Y42770D01*
X316551Y42675D01*
X316322Y42770D01*
X316227Y43000D01*
Y44999D01*
X316322Y45229D01*
X316551Y45324D01*
X317051D01*
X317281Y45229D01*
X317551Y44959D01*
X317821Y45229D01*
X318051Y45324D01*
X318280Y45229D01*
D02*
G37*
G36*
X349270D02*
X349770Y44729D01*
X349865Y44499D01*
Y43000D01*
X349770Y42770D01*
X349540Y42675D01*
X349311Y42770D01*
X349216Y43000D01*
Y44365D01*
X349041Y44540D01*
X348866Y44365D01*
Y43000D01*
X348770Y42770D01*
X348541Y42675D01*
X348311Y42770D01*
X348216Y43000D01*
Y44365D01*
X347906Y44675D01*
X347866D01*
Y43000D01*
X347771Y42770D01*
X347541Y42675D01*
X347312Y42770D01*
X347216Y43000D01*
Y44999D01*
X347312Y45229D01*
X347541Y45324D01*
X348041D01*
X348271Y45229D01*
X348541Y44959D01*
X348811Y45229D01*
X349041Y45324D01*
X349270Y45229D01*
D02*
G37*
G36*
X346271D02*
X346771Y44729D01*
X346866Y44499D01*
Y43000D01*
X346771Y42770D01*
X346542Y42675D01*
X346312Y42770D01*
X346217Y43000D01*
Y44365D01*
X346042Y44540D01*
X345866Y44365D01*
Y43000D01*
X345771Y42770D01*
X345542Y42675D01*
X345312Y42770D01*
X345217Y43000D01*
Y44365D01*
X344907Y44675D01*
X344867D01*
Y43000D01*
X344772Y42770D01*
X344542Y42675D01*
X344313Y42770D01*
X344217Y43000D01*
Y44999D01*
X344313Y45229D01*
X344542Y45324D01*
X345042D01*
X345272Y45229D01*
X345542Y44959D01*
X345812Y45229D01*
X346042Y45324D01*
X346271Y45229D01*
D02*
G37*
G36*
X315281Y46229D02*
X315781Y45729D01*
X315876Y45499D01*
Y44999D01*
X315781Y44770D01*
X315511Y44499D01*
X315781Y44229D01*
X315876Y44000D01*
Y43500D01*
X315781Y43270D01*
X315281Y42770D01*
X315052Y42675D01*
X315052D01*
D01*
X314052D01*
X313822Y42770D01*
X313323Y43270D01*
X313227Y43500D01*
X313323Y43729D01*
X313552Y43825D01*
X313782Y43729D01*
X314187Y43325D01*
X314917D01*
X315227Y43634D01*
Y43865D01*
X314917Y44175D01*
X314552D01*
X314322Y44270D01*
X314227Y44499D01*
X314322Y44729D01*
X314552Y44824D01*
X314917D01*
X315227Y45134D01*
Y45365D01*
X314917Y45674D01*
X314187D01*
X313782Y45270D01*
X313552Y45175D01*
X313323Y45270D01*
X313227Y45499D01*
X313323Y45729D01*
X313822Y46229D01*
X314052Y46324D01*
X315052D01*
X315281Y46229D01*
D02*
G37*
G36*
X307284D02*
X307379Y45999D01*
X307284Y45769D01*
X307054Y45674D01*
X305380D01*
Y45025D01*
X305909Y45290D01*
X305985Y45295D01*
X306055Y45324D01*
X306554D01*
X306784Y45229D01*
X307284Y44729D01*
X307379Y44499D01*
Y43500D01*
X307284Y43270D01*
X306784Y42770D01*
X306554Y42675D01*
X306554D01*
D01*
X305555D01*
X305325Y42770D01*
X304825Y43270D01*
X304730Y43500D01*
X304825Y43729D01*
X305055Y43825D01*
X305285Y43729D01*
X305689Y43325D01*
X306420D01*
X306730Y43634D01*
Y44365D01*
X306420Y44675D01*
X306131D01*
X305200Y44209D01*
X305125Y44204D01*
X305055Y44175D01*
X305006Y44195D01*
X304952Y44192D01*
X304895Y44241D01*
X304825Y44270D01*
X304805Y44319D01*
X304765Y44354D01*
X304759Y44430D01*
X304730Y44499D01*
Y45999D01*
X304825Y46229D01*
X305055Y46324D01*
X307054D01*
X307284Y46229D01*
D02*
G37*
G36*
X303785D02*
X304285Y45729D01*
X304380Y45499D01*
Y44999D01*
X304285Y44770D01*
X304015Y44499D01*
X304285Y44229D01*
X304380Y44000D01*
Y43500D01*
X304285Y43270D01*
X303785Y42770D01*
X303555Y42675D01*
X303555D01*
D01*
X302556D01*
X302326Y42770D01*
X301826Y43270D01*
X301731Y43500D01*
X301826Y43729D01*
X302056Y43825D01*
X302286Y43729D01*
X302690Y43325D01*
X303421D01*
X303731Y43634D01*
Y43865D01*
X303421Y44175D01*
X303056D01*
X302826Y44270D01*
X302731Y44499D01*
X302826Y44729D01*
X303056Y44824D01*
X303421D01*
X303731Y45134D01*
Y45365D01*
X303421Y45674D01*
X302690D01*
X302286Y45270D01*
X302056Y45175D01*
X301826Y45270D01*
X301731Y45499D01*
X301826Y45729D01*
X302326Y46229D01*
X302556Y46324D01*
X303555D01*
X303785Y46229D01*
D02*
G37*
G36*
X350770D02*
X351769Y45229D01*
X351865Y44999D01*
Y44000D01*
X351769Y43770D01*
X350770Y42770D01*
X350540Y42675D01*
X350311Y42770D01*
X350216Y43000D01*
X350311Y43230D01*
X351215Y44134D01*
Y44865D01*
X350311Y45769D01*
X350216Y45999D01*
X350311Y46229D01*
X350540Y46324D01*
X350770Y46229D01*
D02*
G37*
G36*
X343272D02*
X343772Y45729D01*
X343867Y45499D01*
Y43500D01*
X343772Y43270D01*
X343272Y42770D01*
X343043Y42675D01*
X343043D01*
D01*
X342043D01*
X341813Y42770D01*
X341314Y43270D01*
X341218Y43500D01*
Y45499D01*
X341314Y45729D01*
X341813Y46229D01*
X342043Y46324D01*
X343043D01*
X343272Y46229D01*
D02*
G37*
G36*
X340273D02*
X340773Y45729D01*
X340868Y45499D01*
Y43500D01*
X340773Y43270D01*
X340273Y42770D01*
X340044Y42675D01*
X340044D01*
D01*
X339044D01*
X338814Y42770D01*
X338315Y43270D01*
X338219Y43500D01*
Y45499D01*
X338315Y45729D01*
X338814Y46229D01*
X339044Y46324D01*
X340044D01*
X340273Y46229D01*
D02*
G37*
G36*
X333775Y43729D02*
X333870Y43500D01*
Y43000D01*
X333775Y42770D01*
X333546Y42675D01*
X333046D01*
X332816Y42770D01*
X332721Y43000D01*
Y43500D01*
X332816Y43729D01*
X333046Y43825D01*
X333546D01*
X333775Y43729D01*
D02*
G37*
G36*
X331776Y46229D02*
X332276Y45729D01*
X332371Y45499D01*
Y43500D01*
X332276Y43270D01*
X331776Y42770D01*
X331546Y42675D01*
X331546D01*
D01*
X330547D01*
X330317Y42770D01*
X329817Y43270D01*
X329722Y43500D01*
Y45499D01*
X329817Y45729D01*
X330317Y46229D01*
X330547Y46324D01*
X331546D01*
X331776Y46229D01*
D02*
G37*
G36*
X328777D02*
X328872Y45999D01*
X328777Y45769D01*
X327872Y44865D01*
Y44134D01*
X328777Y43230D01*
X328872Y43000D01*
X328777Y42770D01*
X328547Y42675D01*
X328318Y42770D01*
X327318Y43770D01*
X327223Y44000D01*
Y44999D01*
X327318Y45229D01*
X328318Y46229D01*
X328547Y46324D01*
X328777Y46229D01*
D02*
G37*
G36*
X322779D02*
X322874Y45999D01*
Y43325D01*
X323049D01*
X323279Y43230D01*
X323374Y43000D01*
X323279Y42770D01*
X323049Y42675D01*
X322049D01*
X321820Y42770D01*
X321725Y43000D01*
X321820Y43230D01*
X322049Y43325D01*
X322224D01*
Y45674D01*
X322049D01*
X321820Y45769D01*
X321725Y45999D01*
X321820Y46229D01*
X322049Y46324D01*
X322549D01*
X322779Y46229D01*
D02*
G37*
G36*
X320280Y45229D02*
X320375Y44999D01*
Y43325D01*
X320550D01*
X320779Y43230D01*
X320875Y43000D01*
X320779Y42770D01*
X320550Y42675D01*
X319550D01*
X319321Y42770D01*
X319226Y43000D01*
X319321Y43230D01*
X319550Y43325D01*
X319725D01*
Y44675D01*
X319550D01*
X319321Y44770D01*
X319226Y44999D01*
X319321Y45229D01*
X319550Y45324D01*
X320050D01*
X320280Y45229D01*
D02*
G37*
G36*
X312282Y46229D02*
X312377Y45999D01*
Y44824D01*
X312552D01*
X312782Y44729D01*
X312877Y44499D01*
X312782Y44270D01*
X312552Y44175D01*
X312377D01*
Y43000D01*
X312282Y42770D01*
X312053Y42675D01*
X311823Y42770D01*
X311728Y43000D01*
Y44175D01*
X310553D01*
X310324Y44270D01*
X310228Y44499D01*
X310296Y44662D01*
X310324Y44729D01*
X311823Y46229D01*
X312053Y46324D01*
X312282Y46229D01*
D02*
G37*
G36*
X308783Y43729D02*
X308878Y43500D01*
Y43000D01*
X308783Y42770D01*
X308554Y42675D01*
X308054D01*
X307824Y42770D01*
X307729Y43000D01*
Y43500D01*
X307824Y43729D01*
X308054Y43825D01*
X308554D01*
X308783Y43729D01*
D02*
G37*
G36*
X318780Y38729D02*
X318875Y38499D01*
X318780Y38269D01*
X318551Y38174D01*
X318321Y38269D01*
X318226Y38499D01*
X318321Y38729D01*
X318551Y38824D01*
X318780Y38729D01*
D02*
G37*
G36*
X316781Y37729D02*
X317281Y37229D01*
X317376Y36999D01*
Y35500D01*
X317281Y35270D01*
X317051Y35175D01*
X316821Y35270D01*
X316726Y35500D01*
Y36865D01*
X316551Y37040D01*
X316376Y36865D01*
Y35500D01*
X316281Y35270D01*
X316051Y35175D01*
X315822Y35270D01*
X315727Y35500D01*
Y36865D01*
X315417Y37175D01*
X315376D01*
Y35500D01*
X315281Y35270D01*
X315052Y35175D01*
X314822Y35270D01*
X314727Y35500D01*
Y37499D01*
X314822Y37729D01*
X315052Y37824D01*
X315551D01*
X315781Y37729D01*
X316051Y37459D01*
X316322Y37729D01*
X316551Y37824D01*
X316781Y37729D01*
D02*
G37*
G36*
X347771D02*
X348271Y37229D01*
X348366Y36999D01*
Y35500D01*
X348271Y35270D01*
X348041Y35175D01*
X347811Y35270D01*
X347716Y35500D01*
Y36865D01*
X347541Y37040D01*
X347366Y36865D01*
Y35500D01*
X347271Y35270D01*
X347041Y35175D01*
X346812Y35270D01*
X346717Y35500D01*
Y36865D01*
X346407Y37175D01*
X346366D01*
Y35500D01*
X346271Y35270D01*
X346042Y35175D01*
X345812Y35270D01*
X345717Y35500D01*
Y37499D01*
X345812Y37729D01*
X346042Y37824D01*
X346542D01*
X346771Y37729D01*
X347041Y37459D01*
X347312Y37729D01*
X347541Y37824D01*
X347771Y37729D01*
D02*
G37*
G36*
X344772D02*
X345272Y37229D01*
X345367Y36999D01*
Y35500D01*
X345272Y35270D01*
X345042Y35175D01*
X344812Y35270D01*
X344717Y35500D01*
Y36865D01*
X344542Y37040D01*
X344367Y36865D01*
Y35500D01*
X344272Y35270D01*
X344042Y35175D01*
X343813Y35270D01*
X343718Y35500D01*
Y36865D01*
X343408Y37175D01*
X343367D01*
Y35500D01*
X343272Y35270D01*
X343043Y35175D01*
X342813Y35270D01*
X342718Y35500D01*
Y37499D01*
X342813Y37729D01*
X343043Y37824D01*
X343543D01*
X343772Y37729D01*
X344042Y37459D01*
X344313Y37729D01*
X344542Y37824D01*
X344772Y37729D01*
D02*
G37*
G36*
X335775Y38729D02*
X336275Y38229D01*
X336370Y37999D01*
Y37499D01*
X336275Y37270D01*
X336004Y36999D01*
X336275Y36729D01*
X336370Y36500D01*
Y36000D01*
X336275Y35770D01*
X335775Y35270D01*
X335545Y35175D01*
X335545D01*
D01*
X334545D01*
X334316Y35270D01*
X333816Y35770D01*
X333721Y36000D01*
X333816Y36230D01*
X334046Y36325D01*
X334275Y36230D01*
X334680Y35825D01*
X335411D01*
X335720Y36134D01*
Y36365D01*
X335411Y36675D01*
X335045D01*
X334816Y36770D01*
X334720Y36999D01*
X334816Y37229D01*
X335045Y37324D01*
X335411D01*
X335720Y37634D01*
Y37865D01*
X335411Y38174D01*
X334680D01*
X334275Y37770D01*
X334046Y37674D01*
X333816Y37770D01*
X333721Y37999D01*
X333816Y38229D01*
X334316Y38729D01*
X334545Y38824D01*
X335545D01*
X335775Y38729D01*
D02*
G37*
G36*
X349270D02*
X350270Y37729D01*
X350365Y37499D01*
Y36500D01*
X350270Y36270D01*
X349270Y35270D01*
X349041Y35175D01*
X348811Y35270D01*
X348716Y35500D01*
X348811Y35730D01*
X349716Y36634D01*
Y37365D01*
X348811Y38269D01*
X348716Y38499D01*
X348811Y38729D01*
X349041Y38824D01*
X349270Y38729D01*
D02*
G37*
G36*
X341773D02*
X342273Y38229D01*
X342368Y37999D01*
Y36000D01*
X342273Y35770D01*
X341773Y35270D01*
X341543Y35175D01*
X341543D01*
D01*
X340543D01*
X340314Y35270D01*
X339814Y35770D01*
X339719Y36000D01*
Y37999D01*
X339814Y38229D01*
X340314Y38729D01*
X340543Y38824D01*
X341543D01*
X341773Y38729D01*
D02*
G37*
G36*
X338774D02*
X339274Y38229D01*
X339369Y37999D01*
Y36000D01*
X339274Y35770D01*
X338774Y35270D01*
X338544Y35175D01*
X338544D01*
D01*
X337544D01*
X337315Y35270D01*
X336815Y35770D01*
X336720Y36000D01*
Y37999D01*
X336815Y38229D01*
X337315Y38729D01*
X337544Y38824D01*
X338544D01*
X338774Y38729D01*
D02*
G37*
G36*
X332276Y36230D02*
X332371Y36000D01*
Y35500D01*
X332276Y35270D01*
X332046Y35175D01*
X331546D01*
X331317Y35270D01*
X331222Y35500D01*
Y36000D01*
X331317Y36230D01*
X331546Y36325D01*
X332046D01*
X332276Y36230D01*
D02*
G37*
G36*
X330276Y38729D02*
X330776Y38229D01*
X330871Y37999D01*
Y36000D01*
X330776Y35770D01*
X330276Y35270D01*
X330047Y35175D01*
X330047D01*
D01*
X329047D01*
X328818Y35270D01*
X328318Y35770D01*
X328223Y36000D01*
Y37999D01*
X328318Y38229D01*
X328818Y38729D01*
X329047Y38824D01*
X330047D01*
X330276Y38729D01*
D02*
G37*
G36*
X327277D02*
X327373Y38499D01*
X327277Y38269D01*
X326373Y37365D01*
Y36634D01*
X327277Y35730D01*
X327373Y35500D01*
X327277Y35270D01*
X327048Y35175D01*
X326818Y35270D01*
X325818Y36270D01*
X325723Y36500D01*
Y37499D01*
X325818Y37729D01*
X326818Y38729D01*
X327048Y38824D01*
X327277Y38729D01*
D02*
G37*
G36*
X321279D02*
X321375Y38499D01*
Y35825D01*
X321550D01*
X321779Y35730D01*
X321874Y35500D01*
X321779Y35270D01*
X321550Y35175D01*
X320550D01*
X320320Y35270D01*
X320225Y35500D01*
X320320Y35730D01*
X320550Y35825D01*
X320725D01*
Y38174D01*
X320550D01*
X320320Y38269D01*
X320225Y38499D01*
X320320Y38729D01*
X320550Y38824D01*
X321050D01*
X321279Y38729D01*
D02*
G37*
G36*
X318780Y37729D02*
X318875Y37499D01*
Y35825D01*
X319050D01*
X319280Y35730D01*
X319375Y35500D01*
X319280Y35270D01*
X319050Y35175D01*
X318051D01*
X317821Y35270D01*
X317726Y35500D01*
X317821Y35730D01*
X318051Y35825D01*
X318226D01*
Y37175D01*
X318051D01*
X317821Y37270D01*
X317726Y37499D01*
X317821Y37729D01*
X318051Y37824D01*
X318551D01*
X318780Y37729D01*
D02*
G37*
G36*
X313282Y38729D02*
X313377Y38499D01*
Y35825D01*
X313552D01*
X313782Y35730D01*
X313877Y35500D01*
X313782Y35270D01*
X313552Y35175D01*
X312552D01*
X312323Y35270D01*
X312228Y35500D01*
X312323Y35730D01*
X312552Y35825D01*
X312728D01*
Y37747D01*
X312552Y37674D01*
X312323Y37770D01*
X312228Y37999D01*
X312323Y38229D01*
X312823Y38729D01*
X313052Y38824D01*
X313282Y38729D01*
D02*
G37*
G36*
X311283D02*
X311782Y38229D01*
X311877Y37999D01*
Y37499D01*
X311782Y37270D01*
X311512Y36999D01*
X311782Y36729D01*
X311877Y36500D01*
Y36000D01*
X311782Y35770D01*
X311283Y35270D01*
X311053Y35175D01*
X311053D01*
D01*
X310053D01*
X309824Y35270D01*
X309324Y35770D01*
X309229Y36000D01*
Y36500D01*
X309324Y36729D01*
X309594Y36999D01*
X309324Y37270D01*
X309229Y37499D01*
Y37499D01*
D01*
Y37999D01*
X309324Y38229D01*
X309824Y38729D01*
X310053Y38824D01*
X311053D01*
X311283Y38729D01*
D02*
G37*
G36*
X307784Y36230D02*
X307879Y36000D01*
Y35500D01*
X307784Y35270D01*
X307554Y35175D01*
X307054D01*
X306825Y35270D01*
X306730Y35500D01*
Y36000D01*
X306825Y36230D01*
X307054Y36325D01*
X307554D01*
X307784Y36230D01*
D02*
G37*
G36*
X305285Y38729D02*
X305380Y38499D01*
Y35825D01*
X305555D01*
X305784Y35730D01*
X305879Y35500D01*
X305784Y35270D01*
X305555Y35175D01*
X304555D01*
X304326Y35270D01*
X304230Y35500D01*
X304326Y35730D01*
X304555Y35825D01*
X304730D01*
Y37747D01*
X304555Y37674D01*
X304326Y37770D01*
X304230Y37999D01*
X304326Y38229D01*
X304825Y38729D01*
X305055Y38824D01*
X305285Y38729D01*
D02*
G37*
G36*
X302785D02*
X302881Y38499D01*
Y35825D01*
X303056D01*
X303285Y35730D01*
X303380Y35500D01*
X303285Y35270D01*
X303056Y35175D01*
X302056D01*
X301826Y35270D01*
X301731Y35500D01*
X301826Y35730D01*
X302056Y35825D01*
X302231D01*
Y37747D01*
X302056Y37674D01*
X301826Y37770D01*
X301731Y37999D01*
X301826Y38229D01*
X302326Y38729D01*
X302556Y38824D01*
X302785Y38729D01*
D02*
G37*
%LPC*%
G36*
X314417Y60674D02*
X313687D01*
X313377Y60365D01*
Y60134D01*
X313687Y59824D01*
X314727D01*
Y60365D01*
X314417Y60674D01*
D02*
G37*
G36*
X305920D02*
X305189D01*
X304880Y60365D01*
Y60134D01*
X305189Y59824D01*
X306230D01*
Y60365D01*
X305920Y60674D01*
D02*
G37*
G36*
X342408D02*
X341678D01*
X341368Y60365D01*
Y58634D01*
X341678Y58325D01*
X342408D01*
X342718Y58634D01*
Y60365D01*
X342408Y60674D01*
D02*
G37*
G36*
X339409D02*
X338679D01*
X338369Y60365D01*
Y58634D01*
X338679Y58325D01*
X339409D01*
X339719Y58634D01*
Y60365D01*
X339409Y60674D01*
D02*
G37*
G36*
X330912D02*
X330181D01*
X329872Y60365D01*
Y58634D01*
X330181Y58325D01*
X330912D01*
X331222Y58634D01*
Y60365D01*
X330912Y60674D01*
D02*
G37*
G36*
X311418Y59175D02*
X310378D01*
Y58634D01*
X310688Y58325D01*
X311418D01*
X311728Y58634D01*
Y58865D01*
X311418Y59175D01*
D02*
G37*
G36*
X343908Y53174D02*
X343177D01*
X342867Y52865D01*
Y51134D01*
X343177Y50825D01*
X343908D01*
X344217Y51134D01*
Y52865D01*
X343908Y53174D01*
D02*
G37*
G36*
X340909D02*
X340178D01*
X339868Y52865D01*
Y51134D01*
X340178Y50825D01*
X340909D01*
X341218Y51134D01*
Y52865D01*
X340909Y53174D01*
D02*
G37*
G36*
X337910D02*
X337179D01*
X336869Y52865D01*
Y51134D01*
X337179Y50825D01*
X337910D01*
X338219Y51134D01*
Y52865D01*
X337910Y53174D01*
D02*
G37*
G36*
X308419D02*
X307689D01*
X307379Y52865D01*
Y52634D01*
X307689Y52324D01*
X308419D01*
X308729Y52634D01*
Y52865D01*
X308419Y53174D01*
D02*
G37*
G36*
Y51675D02*
X307689D01*
X307379Y51365D01*
Y51134D01*
X307689Y50825D01*
X308419D01*
X308729Y51134D01*
Y51365D01*
X308419Y51675D01*
D02*
G37*
G36*
X336910Y45674D02*
X336179D01*
X335870Y45365D01*
Y45134D01*
X336179Y44824D01*
X337220D01*
Y45365D01*
X336910Y45674D01*
D02*
G37*
G36*
X342908D02*
X342177D01*
X341868Y45365D01*
Y43634D01*
X342177Y43325D01*
X342908D01*
X343218Y43634D01*
Y45365D01*
X342908Y45674D01*
D02*
G37*
G36*
X339909D02*
X339178D01*
X338869Y45365D01*
Y43634D01*
X339178Y43325D01*
X339909D01*
X340219Y43634D01*
Y45365D01*
X339909Y45674D01*
D02*
G37*
G36*
X331412D02*
X330681D01*
X330371Y45365D01*
Y43634D01*
X330681Y43325D01*
X331412D01*
X331721Y43634D01*
Y45365D01*
X331412Y45674D01*
D02*
G37*
G36*
X311728Y45215D02*
X311337Y44824D01*
X311728D01*
Y45215D01*
D02*
G37*
G36*
X341409Y38174D02*
X340678D01*
X340368Y37865D01*
Y36134D01*
X340678Y35825D01*
X341409D01*
X341718Y36134D01*
Y37865D01*
X341409Y38174D01*
D02*
G37*
G36*
X338410D02*
X337679D01*
X337369Y37865D01*
Y36134D01*
X337679Y35825D01*
X338410D01*
X338719Y36134D01*
Y37865D01*
X338410Y38174D01*
D02*
G37*
G36*
X329912D02*
X329182D01*
X328872Y37865D01*
Y36134D01*
X329182Y35825D01*
X329912D01*
X330222Y36134D01*
Y37865D01*
X329912Y38174D01*
D02*
G37*
G36*
X310918D02*
X310188D01*
X309878Y37865D01*
Y37634D01*
X310188Y37324D01*
X310918D01*
X311228Y37634D01*
Y37865D01*
X310918Y38174D01*
D02*
G37*
G36*
Y36675D02*
X310188D01*
X309878Y36365D01*
Y36134D01*
X310188Y35825D01*
X310918D01*
X311228Y36134D01*
Y36365D01*
X310918Y36675D01*
D02*
G37*
%LPD*%
G36*
X273593Y61229D02*
X274093Y60729D01*
X274188Y60499D01*
Y59999D01*
X274093Y59770D01*
X273823Y59500D01*
X274093Y59229D01*
X274188Y59000D01*
Y58500D01*
X274093Y58270D01*
X273593Y57770D01*
X273363Y57675D01*
X273363D01*
D01*
X272364D01*
X272134Y57770D01*
X271634Y58270D01*
X271539Y58500D01*
X271634Y58729D01*
X271864Y58825D01*
X272093Y58729D01*
X272498Y58325D01*
X273229D01*
X273538Y58634D01*
Y58865D01*
X273229Y59175D01*
X272864D01*
X272634Y59270D01*
X272539Y59500D01*
X272634Y59729D01*
X272864Y59824D01*
X273229D01*
X273538Y60134D01*
Y60365D01*
X273229Y60674D01*
X272498D01*
X272093Y60270D01*
X271864Y60175D01*
X271634Y60270D01*
X271539Y60499D01*
X271634Y60729D01*
X272134Y61229D01*
X272364Y61324D01*
X273363D01*
X273593Y61229D01*
D02*
G37*
G36*
X274154Y53644D02*
X274171Y53396D01*
X274008Y53209D01*
X273056Y52732D01*
X272648Y52324D01*
X273363D01*
D01*
X273363D01*
X273593Y52229D01*
X274093Y51729D01*
X274188Y51500D01*
Y51000D01*
X274093Y50770D01*
X273593Y50270D01*
X273363Y50175D01*
X272364D01*
X272134Y50270D01*
X271634Y50770D01*
X271539Y51000D01*
Y51999D01*
X271606Y52162D01*
X271634Y52229D01*
X272634Y53229D01*
X272683Y53249D01*
X272718Y53290D01*
X273718Y53790D01*
X273966Y53807D01*
X274154Y53644D01*
D02*
G37*
G36*
X276592Y46229D02*
X277092Y45729D01*
X277187Y45499D01*
Y44999D01*
X277092Y44770D01*
X275647Y43325D01*
X276862D01*
X277092Y43230D01*
X277187Y43000D01*
X277092Y42770D01*
X276862Y42675D01*
X274863D01*
X274633Y42770D01*
X274538Y43000D01*
X274633Y43230D01*
X276537Y45134D01*
Y45365D01*
X276228Y45674D01*
X275497D01*
X275093Y45270D01*
X274863Y45175D01*
X274633Y45270D01*
X274538Y45499D01*
X274633Y45729D01*
X275133Y46229D01*
X275363Y46324D01*
X276362D01*
D01*
X276362D01*
X276592Y46229D01*
D02*
G37*
G36*
X273593D02*
X274093Y45729D01*
X274188Y45499D01*
Y44999D01*
X274093Y44770D01*
X273823Y44499D01*
X274093Y44229D01*
X274188Y44000D01*
Y43500D01*
X274093Y43270D01*
X273593Y42770D01*
X273363Y42675D01*
X273363D01*
D01*
X272364D01*
X272134Y42770D01*
X271634Y43270D01*
X271539Y43500D01*
Y44000D01*
X271634Y44229D01*
X271904Y44499D01*
X271634Y44770D01*
X271539Y44999D01*
Y44999D01*
D01*
Y45499D01*
X271634Y45729D01*
X272134Y46229D01*
X272364Y46324D01*
X273363D01*
X273593Y46229D01*
D02*
G37*
G36*
X279652Y38644D02*
X279669Y38396D01*
X279507Y38209D01*
X278554Y37732D01*
X278146Y37324D01*
X278861D01*
D01*
X278862D01*
X279091Y37229D01*
X279591Y36729D01*
X279686Y36500D01*
Y36000D01*
X279591Y35770D01*
X279091Y35270D01*
X278861Y35175D01*
X277862D01*
X277632Y35270D01*
X277132Y35770D01*
X277037Y36000D01*
Y36999D01*
X277105Y37162D01*
X277132Y37229D01*
X278132Y38229D01*
X278182Y38249D01*
X278217Y38290D01*
X279216Y38789D01*
X279464Y38807D01*
X279652Y38644D01*
D02*
G37*
G36*
X276592Y38729D02*
X276687Y38499D01*
Y37999D01*
X276592Y37770D01*
X274688Y35865D01*
Y35500D01*
X274593Y35270D01*
X274363Y35175D01*
X274133Y35270D01*
X274038Y35500D01*
Y36000D01*
X274133Y36230D01*
X276038Y38134D01*
Y38174D01*
X274363D01*
X274133Y38269D01*
X274038Y38499D01*
X274133Y38729D01*
X274363Y38824D01*
X276362D01*
X276592Y38729D01*
D02*
G37*
G36*
X272593D02*
X272688Y38499D01*
Y35825D01*
X272864D01*
X273093Y35730D01*
X273188Y35500D01*
X273093Y35270D01*
X272864Y35175D01*
X271864D01*
X271634Y35270D01*
X271539Y35500D01*
X271634Y35730D01*
X271864Y35825D01*
X272039D01*
Y37747D01*
X271864Y37674D01*
X271634Y37770D01*
X271539Y37999D01*
X271634Y38229D01*
X272134Y38729D01*
X272364Y38824D01*
X272593Y38729D01*
D02*
G37*
%LPC*%
G36*
X273229Y51675D02*
X272188D01*
Y51134D01*
X272498Y50825D01*
X273229D01*
X273538Y51134D01*
Y51365D01*
X273229Y51675D01*
D02*
G37*
G36*
Y45674D02*
X272498D01*
X272188Y45365D01*
Y45134D01*
X272498Y44824D01*
X273229D01*
X273538Y45134D01*
Y45365D01*
X273229Y45674D01*
D02*
G37*
G36*
Y44175D02*
X272498D01*
X272188Y43865D01*
Y43634D01*
X272498Y43325D01*
X273229D01*
X273538Y43634D01*
Y43865D01*
X273229Y44175D01*
D02*
G37*
G36*
X278727Y36675D02*
X277687D01*
Y36134D01*
X277996Y35825D01*
X278727D01*
X279037Y36134D01*
Y36365D01*
X278727Y36675D01*
D02*
G37*
%LPD*%
G36*
X248174Y61629D02*
X248249Y61624D01*
X248284Y61583D01*
X248334Y61563D01*
X248363Y61493D01*
X248412Y61436D01*
X248408Y61383D01*
X248429Y61333D01*
X248400Y61264D01*
X248395Y61188D01*
X246728Y57855D01*
X246650Y57787D01*
X246583Y57710D01*
X246558Y57708D01*
X246540Y57692D01*
X246438Y57699D01*
X246335Y57692D01*
X246317Y57708D01*
X246292Y57710D01*
X246225Y57787D01*
X246147Y57855D01*
X244480Y61188D01*
X244475Y61264D01*
X244446Y61333D01*
X244467Y61383D01*
X244463Y61436D01*
X244512Y61493D01*
X244541Y61563D01*
X244591Y61583D01*
X244626Y61624D01*
X244701Y61629D01*
X244771Y61658D01*
X248104D01*
X248174Y61629D01*
D02*
G37*
G36*
X246667Y54063D02*
X247405Y53325D01*
X248104D01*
X248334Y53230D01*
X248429Y53000D01*
X248362Y52838D01*
X248334Y52770D01*
X247730Y52167D01*
X248334Y51563D01*
X248362Y51496D01*
X248429Y51333D01*
X248334Y51104D01*
X248104Y51009D01*
X247405D01*
X246667Y50270D01*
X246438Y50175D01*
X246275Y50243D01*
X246208Y50270D01*
X245470Y51009D01*
X244771D01*
X244541Y51104D01*
X244446Y51333D01*
X244541Y51563D01*
X245145Y52167D01*
X244541Y52770D01*
X244446Y53000D01*
X244541Y53230D01*
X244771Y53325D01*
X245470D01*
X246208Y54063D01*
X246275Y54091D01*
X246438Y54158D01*
X246667Y54063D01*
D02*
G37*
G36*
X248334Y46563D02*
X248429Y46333D01*
Y43000D01*
X248334Y42770D01*
X248104Y42675D01*
X244771D01*
X244541Y42770D01*
X244446Y43000D01*
Y46333D01*
X244541Y46563D01*
X244771Y46658D01*
X248104D01*
X248334Y46563D01*
D02*
G37*
G36*
X247205Y39019D02*
X247855Y38585D01*
X248290Y37934D01*
X248443Y37167D01*
X248290Y36399D01*
X247855Y35749D01*
X247205Y35314D01*
X246438Y35162D01*
X245670Y35314D01*
X245020Y35749D01*
X244585Y36399D01*
X244432Y37167D01*
X244585Y37934D01*
X245020Y38585D01*
X245670Y39019D01*
X246438Y39172D01*
X247205Y39019D01*
D02*
G37*
%LPC*%
G36*
X247579Y61009D02*
X245296D01*
X246438Y58726D01*
X247579Y61009D01*
D02*
G37*
G36*
X246438Y53374D02*
X245834Y52770D01*
X245604Y52675D01*
X245555D01*
X245834Y52396D01*
X245929Y52167D01*
X245834Y51937D01*
X245555Y51658D01*
X245604D01*
X245834Y51563D01*
X246438Y50959D01*
X247041Y51563D01*
X247109Y51591D01*
X247271Y51658D01*
X247320D01*
X247041Y51937D01*
X246946Y52167D01*
X247041Y52396D01*
X247320Y52675D01*
X247271D01*
X247109Y52742D01*
X247041Y52770D01*
X246438Y53374D01*
D02*
G37*
G36*
X247779Y46009D02*
X245096D01*
Y43325D01*
X247779D01*
Y46009D01*
D02*
G37*
G36*
X246438Y38509D02*
X245924Y38407D01*
X245488Y38116D01*
X245197Y37680D01*
X245095Y37167D01*
X245197Y36653D01*
X245488Y36217D01*
X245924Y35926D01*
X246438Y35824D01*
X246951Y35926D01*
X247387Y36217D01*
X247678Y36653D01*
X247780Y37167D01*
X247678Y37680D01*
X247387Y38116D01*
X246951Y38407D01*
X246438Y38509D01*
D02*
G37*
%LPD*%
G36*
X273593Y31229D02*
X274093Y30729D01*
X274188Y30499D01*
Y29999D01*
X274093Y29770D01*
X272648Y28325D01*
X273863D01*
X274093Y28230D01*
X274188Y28000D01*
X274093Y27770D01*
X273863Y27675D01*
X271864D01*
X271634Y27770D01*
X271539Y28000D01*
X271634Y28230D01*
X273538Y30134D01*
Y30365D01*
X273229Y30674D01*
X272498D01*
X272093Y30270D01*
X271864Y30174D01*
X271634Y30270D01*
X271539Y30499D01*
X271634Y30729D01*
X272134Y31229D01*
X272364Y31324D01*
X273363D01*
D01*
X273363D01*
X273593Y31229D01*
D02*
G37*
G36*
X296086D02*
X296181Y30999D01*
Y28325D01*
X296356D01*
X296585Y28230D01*
X296681Y28000D01*
X296585Y27770D01*
X296356Y27675D01*
X295356D01*
X295127Y27770D01*
X295031Y28000D01*
X295127Y28230D01*
X295356Y28325D01*
X295531D01*
Y30674D01*
X295356D01*
X295127Y30769D01*
X295031Y30999D01*
X295127Y31229D01*
X295356Y31324D01*
X295856D01*
X296086Y31229D01*
D02*
G37*
G36*
X294086Y30229D02*
X294586Y29729D01*
X294681Y29500D01*
Y28000D01*
X294586Y27770D01*
X294356Y27675D01*
X292857D01*
X292627Y27770D01*
X292128Y28270D01*
X292033Y28500D01*
X292128Y28730D01*
X292627Y29229D01*
X292857Y29324D01*
X294032D01*
Y29365D01*
X293722Y29675D01*
X292857D01*
X292627Y29770D01*
X292532Y29999D01*
X292627Y30229D01*
X292857Y30324D01*
X293857D01*
X294086Y30229D01*
D02*
G37*
G36*
X290587Y30729D02*
X290683Y30499D01*
Y30324D01*
X290858D01*
X291087Y30229D01*
X291182Y29999D01*
X291087Y29770D01*
X290858Y29675D01*
X290683D01*
Y28634D01*
X291087Y28230D01*
X291182Y28000D01*
X291087Y27770D01*
X290858Y27675D01*
X290628Y27770D01*
X290128Y28270D01*
X290033Y28500D01*
Y29675D01*
X289858D01*
X289628Y29770D01*
X289533Y29999D01*
X289628Y30229D01*
X289858Y30324D01*
X290033D01*
Y30499D01*
X290128Y30729D01*
X290358Y30824D01*
X290587Y30729D01*
D02*
G37*
G36*
X288588Y30229D02*
X289088Y29729D01*
X289183Y29500D01*
Y28500D01*
X289088Y28270D01*
X288588Y27770D01*
X288358Y27675D01*
X287359D01*
X287129Y27770D01*
X286629Y28270D01*
X286534Y28500D01*
Y29500D01*
D01*
Y29500D01*
X286629Y29729D01*
X287129Y30229D01*
X287359Y30324D01*
X288358D01*
X288588Y30229D01*
D02*
G37*
G36*
X286089Y31229D02*
X286184Y30999D01*
X286089Y30769D01*
X285859Y30674D01*
X285184D01*
Y28000D01*
X285089Y27770D01*
X284860Y27675D01*
X284630Y27770D01*
X284535Y28000D01*
Y30674D01*
X283860D01*
X283630Y30769D01*
X283535Y30999D01*
X283630Y31229D01*
X283860Y31324D01*
X285859D01*
X286089Y31229D01*
D02*
G37*
G36*
X280091D02*
X280186Y30999D01*
Y30499D01*
X280091Y30270D01*
X278187Y28365D01*
Y28000D01*
X278092Y27770D01*
X277862Y27675D01*
X277632Y27770D01*
X277537Y28000D01*
Y28500D01*
X277632Y28730D01*
X279537Y30634D01*
Y30674D01*
X277862D01*
X277632Y30769D01*
X277537Y30999D01*
X277632Y31229D01*
X277862Y31324D01*
X279861D01*
X280091Y31229D01*
D02*
G37*
G36*
X277153Y31144D02*
X277170Y30896D01*
X277007Y30709D01*
X276055Y30232D01*
X275647Y29824D01*
X276362D01*
D01*
X276362D01*
X276592Y29729D01*
X277092Y29229D01*
X277187Y29000D01*
Y28500D01*
X277092Y28270D01*
X276592Y27770D01*
X276362Y27675D01*
X275363D01*
X275133Y27770D01*
X274633Y28270D01*
X274538Y28500D01*
Y29500D01*
X274605Y29662D01*
X274633Y29729D01*
X275633Y30729D01*
X275682Y30749D01*
X275717Y30790D01*
X276717Y31289D01*
X276965Y31307D01*
X277153Y31144D01*
D02*
G37*
%LPC*%
G36*
X294032Y28675D02*
X292991D01*
X292816Y28500D01*
X292991Y28325D01*
X294032D01*
Y28675D01*
D02*
G37*
G36*
X288224Y29675D02*
X287493D01*
X287184Y29365D01*
Y28634D01*
X287493Y28325D01*
X288224D01*
X288534Y28634D01*
Y29365D01*
X288224Y29675D01*
D02*
G37*
G36*
X276228Y29175D02*
X275188D01*
Y28634D01*
X275497Y28325D01*
X276228D01*
X276537Y28634D01*
Y28865D01*
X276228Y29175D01*
D02*
G37*
%LPD*%
G54D56*
X199200Y199200D02*
Y200800D01*
X200800D01*
Y199200D01*
X199200D01*
Y189200D02*
Y190800D01*
X200800D01*
Y189200D01*
X199200D01*
X189200Y199200D02*
Y200800D01*
X190800D01*
Y199200D01*
X189200D01*
Y189200D02*
Y190800D01*
X190800D01*
Y189200D01*
X189200D01*
X179200Y199200D02*
Y200800D01*
X180800D01*
Y199200D01*
X179200D01*
Y189200D02*
Y190800D01*
X180800D01*
Y189200D01*
X179200D01*
X169200Y199200D02*
Y200800D01*
X170800D01*
Y199200D01*
X169200D01*
Y189200D02*
Y190800D01*
X170800D01*
Y189200D01*
X169200D01*
X159200Y199200D02*
Y200800D01*
X160800D01*
Y199200D01*
X159200D01*
Y189200D02*
Y190800D01*
X160800D01*
Y189200D01*
X159200D01*
X149200Y199200D02*
Y200800D01*
X150800D01*
Y199200D01*
X149200D01*
X139200Y189200D02*
Y190800D01*
X140800D01*
Y189200D01*
X139200D01*
X129200Y199200D02*
Y200800D01*
X130800D01*
Y199200D01*
X129200D01*
Y189200D02*
Y190800D01*
X130800D01*
Y189200D01*
X129200D01*
X119200Y199200D02*
Y200800D01*
X120800D01*
Y199200D01*
X119200D01*
Y189200D02*
Y190800D01*
X120800D01*
Y189200D01*
X119200D01*
X109200Y199200D02*
Y200800D01*
X110800D01*
Y199200D01*
X109200D01*
Y189200D02*
Y190800D01*
X110800D01*
Y189200D01*
X109200D01*
X99200Y199200D02*
Y200800D01*
X100800D01*
Y199200D01*
X99200D01*
Y189200D02*
Y190800D01*
X100800D01*
Y189200D01*
X99200D01*
X89200Y199200D02*
Y200800D01*
X90800D01*
Y199200D01*
X89200D01*
Y189200D02*
Y190800D01*
X90800D01*
Y189200D01*
X89200D01*
X79200Y199200D02*
Y200800D01*
X80800D01*
Y199200D01*
X79200D01*
Y189200D02*
Y190800D01*
X80800D01*
Y189200D01*
X79200D01*
X69200Y199200D02*
Y200800D01*
X70800D01*
Y199200D01*
X69200D01*
Y189200D02*
Y190800D01*
X70800D01*
Y189200D01*
X69200D01*
X59200Y199200D02*
Y200800D01*
X60800D01*
Y199200D01*
X59200D01*
Y189200D02*
Y190800D01*
X60800D01*
Y189200D01*
X59200D01*
X49200Y199200D02*
Y200800D01*
X50800D01*
Y199200D01*
X49200D01*
Y189200D02*
Y190800D01*
X50800D01*
Y189200D01*
X49200D01*
X39200Y199200D02*
Y200800D01*
X40800D01*
Y199200D01*
X39200D01*
Y189200D02*
Y190800D01*
X40800D01*
Y189200D01*
X39200D01*
X29200Y199200D02*
Y200800D01*
X30800D01*
Y199200D01*
X29200D01*
Y189200D02*
Y190800D01*
X30800D01*
Y189200D01*
X29200D01*
X19200Y199200D02*
Y200800D01*
X20800D01*
Y199200D01*
X19200D01*
Y189200D02*
Y190800D01*
X20800D01*
Y189200D01*
X19200D01*
X9200Y199200D02*
Y200800D01*
X10800D01*
Y199200D01*
X9200D01*
Y189200D02*
Y190800D01*
X10800D01*
Y189200D01*
X9200D01*
X-800Y199200D02*
Y200800D01*
X800D01*
Y199200D01*
X-800D01*
Y189200D02*
Y190800D01*
X800D01*
Y189200D01*
X-800D01*
X-10800Y199200D02*
Y200800D01*
X-9200D01*
Y199200D01*
X-10800D01*
Y189200D02*
Y190800D01*
X-9200D01*
Y189200D01*
X-10800D01*
X-20800Y199200D02*
Y200800D01*
X-19200D01*
Y199200D01*
X-20800D01*
Y189200D02*
Y190800D01*
X-19200D01*
Y189200D01*
X-20800D01*
X-30800Y199200D02*
Y200800D01*
X-29200D01*
Y199200D01*
X-30800D01*
Y189200D02*
Y190800D01*
X-29200D01*
Y189200D01*
X-30800D01*
X-40800Y199200D02*
Y200800D01*
X-39200D01*
Y199200D01*
X-40800D01*
Y189200D02*
Y190800D01*
X-39200D01*
Y189200D01*
X-40800D01*
X139200Y199200D02*
Y200800D01*
X140800D01*
Y199200D01*
X139200D01*
X149200Y189200D02*
Y190800D01*
X150800D01*
Y189200D01*
X149200D01*
X-800Y-800D02*
Y800D01*
X800D01*
Y-800D01*
X-800D01*
X149200Y9200D02*
Y10800D01*
X150800D01*
Y9200D01*
X149200D01*
Y-800D02*
Y800D01*
X150800D01*
Y-800D01*
X149200D01*
X139200Y9200D02*
Y10800D01*
X140800D01*
Y9200D01*
X139200D01*
Y-800D02*
Y800D01*
X140800D01*
Y-800D01*
X139200D01*
X129200Y9200D02*
Y10800D01*
X130800D01*
Y9200D01*
X129200D01*
Y-800D02*
Y800D01*
X130800D01*
Y-800D01*
X129200D01*
X119200Y9200D02*
Y10800D01*
X120800D01*
Y9200D01*
X119200D01*
Y-800D02*
Y800D01*
X120800D01*
Y-800D01*
X119200D01*
X109200Y9200D02*
Y10800D01*
X110800D01*
Y9200D01*
X109200D01*
Y-800D02*
Y800D01*
X110800D01*
Y-800D01*
X109200D01*
X99200Y9200D02*
Y10800D01*
X100800D01*
Y9200D01*
X99200D01*
Y-800D02*
Y800D01*
X100800D01*
Y-800D01*
X99200D01*
X89200Y9200D02*
Y10800D01*
X90800D01*
Y9200D01*
X89200D01*
Y-800D02*
Y800D01*
X90800D01*
Y-800D01*
X89200D01*
X79200Y9200D02*
Y10800D01*
X80800D01*
Y9200D01*
X79200D01*
Y-800D02*
Y800D01*
X80800D01*
Y-800D01*
X79200D01*
X69200Y9200D02*
Y10800D01*
X70800D01*
Y9200D01*
X69200D01*
Y-800D02*
Y800D01*
X70800D01*
Y-800D01*
X69200D01*
X59200Y9200D02*
Y10800D01*
X60800D01*
Y9200D01*
X59200D01*
Y-800D02*
Y800D01*
X60800D01*
Y-800D01*
X59200D01*
X49200Y9200D02*
Y10800D01*
X50800D01*
Y9200D01*
X49200D01*
Y-800D02*
Y800D01*
X50800D01*
Y-800D01*
X49200D01*
X39200Y9200D02*
Y10800D01*
X40800D01*
Y9200D01*
X39200D01*
Y-800D02*
Y800D01*
X40800D01*
Y-800D01*
X39200D01*
X29200Y9200D02*
Y10800D01*
X30800D01*
Y9200D01*
X29200D01*
Y-800D02*
Y800D01*
X30800D01*
Y-800D01*
X29200D01*
X19200Y9200D02*
Y10800D01*
X20800D01*
Y9200D01*
X19200D01*
Y-800D02*
Y800D01*
X20800D01*
Y-800D01*
X19200D01*
X9200Y9200D02*
Y10800D01*
X10800D01*
Y9200D01*
X9200D01*
Y-800D02*
Y800D01*
X10800D01*
Y-800D01*
X9200D01*
X-800Y9200D02*
Y10800D01*
X800D01*
Y9200D01*
X-800D01*
X180000Y118200D02*
X179200Y119800D01*
X180800D01*
X180000Y118200D01*
Y79700D02*
X179200Y81300D01*
X180800D01*
X180000Y79700D01*
X96000Y75700D02*
X95200Y77300D01*
X96800D01*
X96000Y75700D01*
X87000D02*
X86200Y77300D01*
X87800D01*
X87000Y75700D01*
X31500Y155700D02*
X30700Y157300D01*
X32300D01*
X31500Y155700D01*
X138500Y76200D02*
X137700Y77800D01*
X139300D01*
X138500Y76200D01*
X148000D02*
X147200Y77800D01*
X148800D01*
X148000Y76200D01*
X55000Y13700D02*
X54200Y15300D01*
X55800D01*
X55000Y13700D01*
X59000Y20700D02*
X58200Y22300D01*
X59800D01*
X59000Y20700D01*
X75500Y20200D02*
X74700Y21800D01*
X76300D01*
X75500Y20200D01*
X106500Y15700D02*
X105700Y17300D01*
X107300D01*
X106500Y15700D01*
X122500Y19700D02*
X121700Y21300D01*
X123300D01*
X122500Y19700D01*
X162000Y7200D02*
X161200Y8800D01*
X162800D01*
X162000Y7200D01*
X175500Y20700D02*
X174700Y22300D01*
X176300D01*
X175500Y20700D01*
X161000Y19700D02*
X160200Y21300D01*
X161800D01*
X161000Y19700D01*
X146000Y25700D02*
X145200Y27300D01*
X146800D01*
X146000Y25700D01*
X138500D02*
X137700Y27300D01*
X139300D01*
X138500Y25700D01*
X146000Y56700D02*
X145200Y58300D01*
X146800D01*
X146000Y56700D01*
X138000D02*
X137200Y58300D01*
X138800D01*
X138000Y56700D01*
X94500D02*
X93700Y58300D01*
X95300D01*
X94500Y56700D01*
X87000D02*
X86200Y58300D01*
X87800D01*
X87000Y56700D01*
X94500Y26200D02*
X93700Y27800D01*
X95300D01*
X94500Y26200D01*
X87000D02*
X86200Y27800D01*
X87800D01*
X87000Y26200D01*
X43000D02*
X42200Y27800D01*
X43800D01*
X43000Y26200D01*
Y56700D02*
X42200Y58300D01*
X43800D01*
X43000Y56700D01*
X46000Y77200D02*
X45200Y78800D01*
X46800D01*
X46000Y77200D01*
X35500Y76700D02*
X34700Y78300D01*
X36300D01*
X35500Y76700D01*
Y56700D02*
X34700Y58300D01*
X36300D01*
X35500Y56700D01*
Y26200D02*
X34700Y27800D01*
X36300D01*
X35500Y26200D01*
X27000Y21200D02*
X26200Y22800D01*
X27800D01*
X27000Y21200D01*
X16500Y20200D02*
X15700Y21800D01*
X17300D01*
X16500Y20200D01*
X14000Y13700D02*
X13200Y15300D01*
X14800D01*
X14000Y13700D01*
X3500Y18700D02*
X2700Y20300D01*
X4300D01*
X3500Y18700D01*
X-10500Y26200D02*
X-11300Y27800D01*
X-9700D01*
X-10500Y26200D01*
X-11000Y49200D02*
X-11800Y50800D01*
X-10200D01*
X-11000Y49200D01*
X-10500Y73200D02*
X-11300Y74800D01*
X-9700D01*
X-10500Y73200D01*
X-12000Y19200D02*
X-12800Y20800D01*
X-11200D01*
X-12000Y19200D01*
X-18500Y26700D02*
X-19300Y28300D01*
X-17700D01*
X-18500Y26700D01*
Y49200D02*
X-19300Y50800D01*
X-17700D01*
X-18500Y49200D01*
Y75700D02*
X-19300Y77300D01*
X-17700D01*
X-18500Y75700D01*
X-6177Y153023D02*
X-6977Y154623D01*
X-5377D01*
X-6177Y153023D01*
X30000Y142200D02*
X29200Y143800D01*
X30800D01*
X30000Y142200D01*
X194500Y133700D02*
X193700Y135300D01*
X195300D01*
X194500Y133700D01*
X202000Y161200D02*
X201200Y162800D01*
X202800D01*
X202000Y161200D01*
X129000Y156200D02*
X128200Y157800D01*
X129800D01*
X129000Y156200D01*
X152000Y40700D02*
X151200Y42300D01*
X152800D01*
X152000Y40700D01*
X129500Y42200D02*
X128700Y43800D01*
X130300D01*
X129500Y42200D01*
X97500Y39700D02*
X96700Y41300D01*
X98300D01*
X97500Y39700D01*
X79500D02*
X78700Y41300D01*
X80300D01*
X79500Y39700D01*
X46500D02*
X45700Y41300D01*
X47300D01*
X46500Y39700D01*
X26500D02*
X25700Y41300D01*
X27300D01*
X26500Y39700D01*
X-6000Y40200D02*
X-6800Y41800D01*
X-5200D01*
X-6000Y40200D01*
X160000Y30527D02*
X159200Y32127D01*
X160800D01*
X160000Y30527D01*
X176500D02*
X175700Y32127D01*
X177300D01*
X176500Y30527D01*
X161500Y51527D02*
X160700Y53127D01*
X162300D01*
X161500Y51527D01*
X169000Y56027D02*
X168200Y57627D01*
X169800D01*
X169000Y56027D01*
X161000Y67027D02*
X160200Y68627D01*
X161800D01*
X161000Y67027D01*
X167500D02*
X166700Y68627D01*
X168300D01*
X167500Y67027D01*
X159000Y47027D02*
X158200Y48627D01*
X159800D01*
X159000Y47027D01*
X153500Y91200D02*
X152700Y92800D01*
X154300D01*
X153500Y91200D01*
X136000Y107700D02*
X135200Y109300D01*
X136800D01*
X136000Y107700D01*
X137000Y91200D02*
X136200Y92800D01*
X137800D01*
X137000Y91200D01*
X146000Y116700D02*
X145200Y118300D01*
X146800D01*
X146000Y116700D01*
X144500Y127700D02*
X143700Y129300D01*
X145300D01*
X144500Y127700D01*
X138500Y112200D02*
X137700Y113800D01*
X139300D01*
X138500Y112200D01*
X124500Y30700D02*
X123700Y32300D01*
X125300D01*
X124500Y30700D01*
X107000Y47200D02*
X106200Y48800D01*
X107800D01*
X107000Y47200D01*
X108000Y30700D02*
X107200Y32300D01*
X108800D01*
X108000Y30700D01*
X117000Y56200D02*
X116200Y57800D01*
X117800D01*
X117000Y56200D01*
X115500Y67200D02*
X114700Y68800D01*
X116300D01*
X115500Y67200D01*
X109500Y51700D02*
X108700Y53300D01*
X110300D01*
X109500Y51700D01*
X73000Y30527D02*
X72200Y32127D01*
X73800D01*
X73000Y30527D01*
X55500Y47027D02*
X54700Y48627D01*
X56300D01*
X55500Y47027D01*
X56500Y30527D02*
X55700Y32127D01*
X57300D01*
X56500Y30527D01*
X65500Y56027D02*
X64700Y57627D01*
X66300D01*
X65500Y56027D01*
X64000Y67027D02*
X63200Y68627D01*
X64800D01*
X64000Y67027D01*
X58000Y51527D02*
X57200Y53127D01*
X58800D01*
X58000Y51527D01*
X21000Y30527D02*
X20200Y32127D01*
X21800D01*
X21000Y30527D01*
X3500Y47027D02*
X2700Y48627D01*
X4300D01*
X3500Y47027D01*
X4500Y30527D02*
X3700Y32127D01*
X5300D01*
X4500Y30527D01*
X13500Y56027D02*
X12700Y57627D01*
X14300D01*
X13500Y56027D01*
X12000Y67027D02*
X11200Y68627D01*
X12800D01*
X12000Y67027D01*
X6000Y51527D02*
X5200Y53127D01*
X6800D01*
X6000Y51527D01*
X-1000Y91546D02*
X-1800Y93147D01*
X-200D01*
X-1000Y91546D01*
X-18500Y108046D02*
X-19300Y109646D01*
X-17700D01*
X-18500Y108046D01*
X-17500Y91546D02*
X-18300Y93147D01*
X-16700D01*
X-17500Y91546D01*
X-8500Y117046D02*
X-9300Y118647D01*
X-7700D01*
X-8500Y117046D01*
X-10000Y128047D02*
X-10800Y129647D01*
X-9200D01*
X-10000Y128047D01*
X-16500D02*
X-17300Y129647D01*
X-15700D01*
X-16500Y128047D01*
X-16000Y112547D02*
X-16800Y114146D01*
X-15200D01*
X-16000Y112547D01*
X51000Y91700D02*
X50200Y93300D01*
X51800D01*
X51000Y91700D01*
X33500Y108200D02*
X32700Y109800D01*
X34300D01*
X33500Y108200D01*
X43500Y117200D02*
X42700Y118800D01*
X44300D01*
X43500Y117200D01*
X42000Y128200D02*
X41200Y129800D01*
X42800D01*
X42000Y128200D01*
X36000Y112700D02*
X35200Y114300D01*
X36800D01*
X36000Y112700D01*
X102000Y91200D02*
X101200Y92800D01*
X102800D01*
X102000Y91200D01*
X84500Y107700D02*
X83700Y109300D01*
X85300D01*
X84500Y107700D01*
X85500Y91200D02*
X84700Y92800D01*
X86300D01*
X85500Y91200D01*
X94500Y116700D02*
X93700Y118300D01*
X95300D01*
X94500Y116700D01*
X93000Y127700D02*
X92200Y129300D01*
X93800D01*
X93000Y127700D01*
X87000Y112200D02*
X86200Y113800D01*
X87800D01*
X87000Y112200D01*
X34500Y91700D02*
X33700Y93300D01*
X35300D01*
X34500Y91700D01*
X190500Y107700D02*
X189700Y109300D01*
X191300D01*
X190500Y107700D01*
X193000Y47700D02*
X192200Y49300D01*
X193800D01*
X193000Y47700D01*
X80500Y47027D02*
X79700Y48627D01*
X81300D01*
X80500Y47027D01*
X76500Y79700D02*
X75700Y81300D01*
X77300D01*
X76500Y79700D01*
X178500Y137200D02*
X177700Y138800D01*
X179300D01*
X178500Y137200D01*
X169500Y137700D02*
X168700Y139300D01*
X170300D01*
X169500Y137700D01*
X147000Y138200D02*
X146200Y139800D01*
X147800D01*
X147000Y138200D01*
X138000Y127200D02*
X137200Y128800D01*
X138800D01*
X138000Y127200D01*
X109000Y67200D02*
X108200Y68800D01*
X109800D01*
X109000Y67200D01*
X86000Y127700D02*
X85200Y129300D01*
X86800D01*
X86000Y127700D01*
X59000Y67200D02*
X58200Y68800D01*
X59800D01*
X59000Y67200D01*
X7000D02*
X6200Y68800D01*
X7800D01*
X7000Y67200D01*
X37000Y127700D02*
X36200Y129300D01*
X37800D01*
X37000Y127700D01*
X-26500Y158200D02*
X-27300Y159800D01*
X-25700D01*
X-26500Y158200D01*
X115500Y138700D02*
X114700Y140300D01*
X116300D01*
X115500Y138700D01*
X101000D02*
X100200Y140300D01*
X101800D01*
X101000Y138700D01*
X187500Y125700D02*
X186700Y127300D01*
X188300D01*
X187500Y125700D01*
X187000Y72200D02*
X187400Y72600D01*
X187800D01*
X187400Y73000D01*
X187800Y73400D01*
X187400D01*
X187000Y73800D01*
X186600Y73400D01*
X186200D01*
X186600Y73000D01*
X186200Y72600D01*
X186600D01*
X187000Y72200D01*
X183000Y131700D02*
X183400Y132100D01*
X183800D01*
X183400Y132500D01*
X183800Y132900D01*
X183400D01*
X183000Y133300D01*
X182600Y132900D01*
X182200D01*
X182600Y132500D01*
X182200Y132100D01*
X182600D01*
X183000Y131700D01*
X196500Y116200D02*
X196900Y116600D01*
X197300D01*
X196900Y117000D01*
X197300Y117400D01*
X196900D01*
X196500Y117800D01*
X196100Y117400D01*
X195700D01*
X196100Y117000D01*
X195700Y116600D01*
X196100D01*
X196500Y116200D01*
X141500Y160200D02*
X140700Y161800D01*
X142300D01*
X141500Y160200D01*
X83000Y160700D02*
X82200Y162300D01*
X83800D01*
X83000Y160700D01*
X67416Y151200D02*
X66616Y152800D01*
X68216D01*
X67416Y151200D01*
X69984D02*
X69184Y152800D01*
X70784D01*
X69984Y151200D01*
X51000Y150425D02*
X50200Y152025D01*
X51800D01*
X51000Y150425D01*
Y147857D02*
X50200Y149457D01*
X51800D01*
X51000Y147857D01*
X47000Y145298D02*
X46200Y146898D01*
X47800D01*
X47000Y145298D01*
Y147866D02*
X46200Y149466D01*
X47800D01*
X47000Y147866D01*
X47153Y158547D02*
X46353Y160147D01*
X47953D01*
X47153Y158547D01*
X45337Y160363D02*
X44537Y161963D01*
X46137D01*
X45337Y160363D01*
X14000Y155577D02*
X13200Y157177D01*
X14800D01*
X14000Y155577D01*
Y158146D02*
X13200Y159746D01*
X14800D01*
X14000Y158146D01*
X15000Y150469D02*
X14200Y152068D01*
X15800D01*
X15000Y150469D01*
Y147900D02*
X14200Y149500D01*
X15800D01*
X15000Y147900D01*
X-8516Y160200D02*
X-9316Y161800D01*
X-7716D01*
X-8516Y160200D01*
X-9500Y147909D02*
X-10300Y149509D01*
X-8700D01*
X-9500Y147909D01*
Y145341D02*
X-10300Y146941D01*
X-8700D01*
X-9500Y145341D01*
X-11084Y160200D02*
X-11884Y161800D01*
X-10284D01*
X-11084Y160200D01*
X127760Y139200D02*
X126960Y140800D01*
X128560D01*
X127760Y139200D01*
X122000Y139700D02*
X121200Y141300D01*
X122800D01*
X122000Y139700D01*
X106500Y142200D02*
X105700Y143800D01*
X107300D01*
X106500Y142200D01*
X163587Y142287D02*
X162787Y143887D01*
X164387D01*
X163587Y142287D01*
X54000Y142700D02*
X53200Y144300D01*
X54800D01*
X54000Y142700D01*
X-2000Y143200D02*
X-2800Y144800D01*
X-1200D01*
X-2000Y143200D01*
X106000Y153700D02*
X105200Y155300D01*
X106800D01*
X106000Y153700D01*
X82236Y149964D02*
X81436Y151564D01*
X83036D01*
X82236Y149964D01*
X153764D02*
X152964Y151564D01*
X154564D01*
X153764Y149964D01*
X165500Y152700D02*
X164700Y154300D01*
X166300D01*
X165500Y152700D01*
X-31500Y100547D02*
X-32300Y102146D01*
X-30700D01*
X-31500Y100547D01*
X8000D02*
X7200Y102146D01*
X8800D01*
X8000Y100547D01*
X0D02*
X-800Y102146D01*
X800D01*
X0Y100547D01*
X21000Y100700D02*
X20200Y102300D01*
X21800D01*
X21000Y100700D01*
X60000D02*
X59200Y102300D01*
X60800D01*
X60000Y100700D01*
X71500Y100200D02*
X70700Y101800D01*
X72300D01*
X71500Y100200D01*
X111000D02*
X110200Y101800D01*
X111800D01*
X111000Y100200D01*
X52500Y100700D02*
X51700Y102300D01*
X53300D01*
X52500Y100700D01*
X103000Y100200D02*
X102200Y101800D01*
X103800D01*
X103000Y100200D01*
X123000D02*
X122200Y101800D01*
X123800D01*
X123000Y100200D01*
X162500D02*
X161700Y101800D01*
X163300D01*
X162500Y100200D01*
X154500D02*
X153700Y101800D01*
X155300D01*
X154500Y100200D01*
X185500Y39527D02*
X184700Y41127D01*
X186300D01*
X185500Y39527D01*
X177500D02*
X176700Y41127D01*
X178300D01*
X177500Y39527D01*
X125500Y39700D02*
X124700Y41300D01*
X126300D01*
X125500Y39700D01*
X73500Y39527D02*
X72700Y41127D01*
X74300D01*
X73500Y39527D01*
X21500D02*
X20700Y41127D01*
X22300D01*
X21500Y39527D01*
X-12000Y135200D02*
X-12800Y136800D01*
X-11200D01*
X-12000Y135200D01*
X25500Y135700D02*
X24700Y137300D01*
X26300D01*
X25500Y135700D01*
X16000D02*
X15200Y137300D01*
X16800D01*
X16000Y135700D01*
X43500Y136200D02*
X42700Y137800D01*
X44300D01*
X43500Y136200D01*
X68500Y135200D02*
X67700Y136800D01*
X69300D01*
X68500Y135200D01*
X75500Y136200D02*
X74700Y137800D01*
X76300D01*
X75500Y136200D01*
X12160Y135360D02*
X11360Y136960D01*
X12959D01*
X12160Y135360D01*
X63000Y135700D02*
X62200Y137300D01*
X63800D01*
X63000Y135700D01*
X74500Y158200D02*
X73700Y159800D01*
X75300D01*
X74500Y158200D01*
X75110Y160590D02*
X74310Y162190D01*
X75910D01*
X75110Y160590D01*
X32000Y160700D02*
X31200Y162300D01*
X32800D01*
X32000Y160700D01*
X-24500Y163700D02*
X-25300Y165300D01*
X-23700D01*
X-24500Y163700D01*
G54D57*
X176233Y9921D02*
X175680Y10682D01*
X174786Y10391D01*
Y9451D01*
X175680Y9160D01*
X176233Y9921D01*
X-16680D02*
X-17233Y10682D01*
X-18127Y10391D01*
Y9451D01*
X-17233Y9160D01*
X-16680Y9921D01*
X211666Y96535D02*
X211113Y97296D01*
X210219Y97006D01*
Y96065D01*
X211113Y95775D01*
X211666Y96535D01*
X-48176D02*
X-48729Y97296D01*
X-49624Y97006D01*
Y96065D01*
X-48729Y95775D01*
X-48176Y96535D01*
Y175276D02*
X-48729Y176036D01*
X-49624Y175746D01*
Y174805D01*
X-48729Y174515D01*
X-48176Y175276D01*
X211666D02*
X211113Y176036D01*
X210219Y175746D01*
Y174805D01*
X211113Y174515D01*
X211666Y175276D01*
M02*
