G04 Layer_Color=32896*
%FSLAX25Y25*%
%MOIN*%
G70*
G01*
G75*
%ADD21C,0.01000*%
%ADD22C,0.00600*%
%ADD28C,0.01181*%
%ADD55C,0.01575*%
G54D21*
X61000Y164507D02*
X60500Y165373D01*
X59500D01*
X59000Y164507D01*
X59500Y163641D01*
X60500D01*
X61000Y164507D01*
X46221Y162361D02*
X46427Y161327D01*
X47012Y160451D01*
X47888Y159866D01*
X48921Y159661D01*
X49955Y159866D01*
X50831Y160451D01*
X51416Y161327D01*
X51621Y162361D01*
X113689Y164050D02*
X113189Y164916D01*
X112189D01*
X111689Y164050D01*
X112189Y163184D01*
X113189D01*
X113689Y164050D01*
X98910Y161904D02*
X99116Y160871D01*
X99701Y159995D01*
X100577Y159409D01*
X101610Y159204D01*
X102644Y159409D01*
X103519Y159995D01*
X104105Y160871D01*
X104310Y161904D01*
X6189Y164550D02*
X5689Y165416D01*
X4689D01*
X4189Y164550D01*
X4689Y163684D01*
X5689D01*
X6189Y164550D01*
X-8590Y162404D02*
X-8384Y161371D01*
X-7799Y160495D01*
X-6923Y159909D01*
X-5890Y159704D01*
X-4857Y159909D01*
X-3980Y160495D01*
X-3395Y161371D01*
X-3190Y162404D01*
X171189Y164050D02*
X170689Y164916D01*
X169689D01*
X169189Y164050D01*
X169689Y163184D01*
X170689D01*
X171189Y164050D01*
X156410Y161904D02*
X156616Y160871D01*
X157201Y159995D01*
X158077Y159409D01*
X159110Y159204D01*
X160144Y159409D01*
X161020Y159995D01*
X161605Y160871D01*
X161810Y161904D01*
X41598Y162349D02*
X46221Y162361D01*
X51621D02*
X56323Y162349D01*
X41644Y142664D02*
X56356D01*
X94287Y161892D02*
X98910Y161904D01*
X104310D02*
X109012Y161892D01*
X94333Y142208D02*
X109045D01*
X-13213Y162392D02*
X-8590Y162404D01*
X-3190D02*
X1512Y162392D01*
X-13167Y142708D02*
X1545D01*
X151787Y161892D02*
X156410Y161904D01*
X161810D02*
X166512Y161892D01*
X151833Y142208D02*
X166545D01*
X-21949Y107571D02*
X-3051D01*
X-21949Y118595D02*
X-3051D01*
Y107571D02*
Y118595D01*
X-21949Y107571D02*
Y118595D01*
X51Y46551D02*
X18949D01*
X51Y57575D02*
X18949D01*
Y46551D02*
Y57575D01*
X51Y46551D02*
Y57575D01*
X30051Y107724D02*
X48949D01*
X30051Y118748D02*
X48949D01*
Y107724D02*
Y118748D01*
X30051Y107724D02*
Y118748D01*
X52051Y46551D02*
X70949D01*
X52051Y57575D02*
X70949D01*
Y46551D02*
Y57575D01*
X52051Y46551D02*
Y57575D01*
X81051Y107224D02*
X99949D01*
X81051Y118248D02*
X99949D01*
Y107224D02*
Y118248D01*
X81051Y107224D02*
Y118248D01*
X103551Y46724D02*
X122449D01*
X103551Y57748D02*
X122449D01*
Y46724D02*
Y57748D01*
X103551Y46724D02*
Y57748D01*
X132551Y107224D02*
X151449D01*
X132551Y118248D02*
X151449D01*
Y107224D02*
Y118248D01*
X132551Y107224D02*
Y118248D01*
X155551Y46551D02*
X174449D01*
X155551Y57575D02*
X174449D01*
Y46551D02*
Y57575D01*
X155551Y46551D02*
Y57575D01*
G54D22*
X163501Y999D02*
X164000Y1499D01*
X165000D01*
X165500Y999D01*
Y-1000D01*
X165000Y-1500D01*
X164000D01*
X163501Y-1000D01*
Y-0D01*
X164500D01*
X162501Y-1500D02*
Y1499D01*
X160502Y-1500D01*
Y1499D01*
X159502D02*
Y-1500D01*
X158002D01*
X157503Y-1000D01*
Y999D01*
X158002Y1499D01*
X159502D01*
X-9499Y999D02*
X-8999Y1499D01*
X-8000D01*
X-7500Y999D01*
Y-1000D01*
X-8000Y-1500D01*
X-8999D01*
X-9499Y-1000D01*
Y-0D01*
X-8500D01*
X-10499Y-1500D02*
Y1499D01*
X-12498Y-1500D01*
Y1499D01*
X-13498D02*
Y-1500D01*
X-14998D01*
X-15497Y-1000D01*
Y999D01*
X-14998Y1499D01*
X-13498D01*
G54D28*
X-1083Y101665D02*
X-1673Y102256D01*
X-2264Y101665D01*
X-1673Y101075D01*
X-1083Y101665D01*
X20917Y40646D02*
X20327Y41236D01*
X19736Y40646D01*
X20327Y40055D01*
X20917Y40646D01*
X50917Y101819D02*
X50327Y102409D01*
X49736Y101819D01*
X50327Y101228D01*
X50917Y101819D01*
X72917Y40646D02*
X72327Y41236D01*
X71736Y40646D01*
X72327Y40055D01*
X72917Y40646D01*
X101917Y101319D02*
X101327Y101909D01*
X100736Y101319D01*
X101327Y100728D01*
X101917Y101319D01*
X124417Y40819D02*
X123827Y41409D01*
X123236Y40819D01*
X123827Y40228D01*
X124417Y40819D01*
X153417Y101319D02*
X152827Y101909D01*
X152236Y101319D01*
X152827Y100728D01*
X153417Y101319D01*
X176417Y40646D02*
X175827Y41236D01*
X175236Y40646D01*
X175827Y40055D01*
X176417Y40646D01*
X-5000Y5000D02*
X155000D01*
Y-5000D02*
Y5000D01*
X-5000Y-5000D02*
X155000D01*
X-5000D02*
Y5000D01*
G54D55*
X-5020Y110327D02*
X-5564Y111076D01*
X-6444Y110790D01*
Y109864D01*
X-5564Y109578D01*
X-5020Y110327D01*
X16980Y49307D02*
X16436Y50056D01*
X15556Y49770D01*
Y48844D01*
X16436Y48558D01*
X16980Y49307D01*
X46980Y110480D02*
X46436Y111229D01*
X45556Y110943D01*
Y110018D01*
X46436Y109731D01*
X46980Y110480D01*
X68980Y49307D02*
X68436Y50056D01*
X67556Y49770D01*
Y48844D01*
X68436Y48558D01*
X68980Y49307D01*
X97980Y109980D02*
X97436Y110729D01*
X96556Y110443D01*
Y109518D01*
X97436Y109231D01*
X97980Y109980D01*
X120480Y49480D02*
X119936Y50229D01*
X119056Y49943D01*
Y49018D01*
X119936Y48731D01*
X120480Y49480D01*
X149480Y109980D02*
X148936Y110729D01*
X148056Y110443D01*
Y109518D01*
X148936Y109231D01*
X149480Y109980D01*
X172480Y49307D02*
X171936Y50056D01*
X171056Y49770D01*
Y48844D01*
X171936Y48558D01*
X172480Y49307D01*
M02*
